<svg width="137" height="23" viewBox="0 0 137 23" fill="none" xmlns="http://www.w3.org/2000/svg">
<g clip-path="url(#clip0_888_1132)">
<path d="M60.8741 0.73877H0.5V23.0001H60.8741V0.73877Z" fill="#F6A330"/>
<path d="M6.34688 9.20728V20.1737H3.37891V9.20728H6.34688Z" fill="black"/>
<path d="M11.0612 9.78631C11.8849 9.15826 12.7809 8.84424 13.749 8.84424C14.4283 8.84424 15.0865 8.97308 15.7233 9.23075C16.3603 9.48843 16.8995 9.84669 17.3411 10.3056C17.7911 10.7566 18.1139 11.296 18.3092 11.924C18.513 12.5521 18.6149 13.3371 18.6149 14.2791V20.173H15.6469V14.4604C15.6469 13.2284 15.4558 12.4072 15.0737 11.9965C14.7001 11.602 14.1863 11.4047 13.5324 11.4047C12.6747 11.4047 12.0293 11.6583 11.5962 12.1656C11.2396 12.5843 11.0612 13.4257 11.0612 14.6898V20.173H8.09326V9.20661H11.0612V9.78631Z" fill="black"/>
<path d="M28.2335 11.441L25.9279 12.5279C25.5883 12.077 25.2953 11.771 25.049 11.61C24.8028 11.441 24.5098 11.3564 24.1701 11.3564C23.8049 11.3564 23.512 11.4369 23.2912 11.598C23.0788 11.759 22.9727 11.9724 22.9727 12.238C22.9727 12.4796 23.0491 12.6568 23.202 12.7695C23.3634 12.8822 23.7752 13.0594 24.4376 13.3009L25.4948 13.6753C26.2422 13.949 26.8408 14.2631 27.2909 14.6174C27.9788 15.1568 28.3227 15.8815 28.3227 16.7913C28.3227 17.8944 27.8641 18.8122 26.947 19.545C26.1403 20.2052 25.1551 20.5353 23.9918 20.5353C22.4462 20.5353 21.2403 19.9757 20.3742 18.8566C20.0684 18.462 19.767 17.8863 19.4697 17.1295L21.89 16.2116C22.2551 16.896 22.5863 17.367 22.8836 17.6247C23.1892 17.8743 23.5629 17.9991 24.0045 17.9991C24.4121 17.9991 24.7391 17.8944 24.9853 17.685C25.2316 17.4757 25.3547 17.2019 25.3547 16.8637C25.3547 16.6303 25.2655 16.4491 25.0872 16.3203C24.9089 16.1834 24.5055 16.0022 23.8771 15.7768L22.7052 15.3541C20.9813 14.726 20.1193 13.7115 20.1193 12.3105C20.1193 11.2558 20.5482 10.3982 21.4059 9.73803C22.1957 9.14219 23.1256 8.84424 24.1955 8.84424C25.1042 8.84424 25.877 9.0496 26.5139 9.46025C27.1593 9.87083 27.7325 10.5311 28.2335 11.441Z" fill="black"/>
<path d="M32.2848 9.20728V20.1737H29.3169V9.20728H32.2848Z" fill="black"/>
<path d="M45.4446 20.1739H42.4766V19.4733C41.4915 20.1819 40.4555 20.5362 39.3685 20.5362C37.5682 20.5362 36.0651 19.8961 34.8593 18.6158C33.8147 17.5127 33.2925 16.2004 33.2925 14.6786C33.2925 12.9152 33.9676 11.4619 35.3178 10.3186C36.4727 9.33628 37.8229 8.84507 39.3685 8.84507C40.4555 8.84507 41.4915 9.19937 42.4766 9.90791V3.68799H45.4446V20.1739ZM39.3685 11.4055C38.3919 11.4055 37.5979 11.7759 36.9865 12.5167C36.5279 13.0803 36.2987 13.8009 36.2987 14.6786C36.2987 15.7091 36.6086 16.5224 37.2285 17.1182C37.8229 17.6899 38.5533 17.9757 39.4195 17.9757C40.43 17.9757 41.2283 17.6053 41.8143 16.8646C42.2643 16.2849 42.4893 15.5521 42.4893 14.6665C42.4893 13.66 42.1879 12.8548 41.585 12.251C41.016 11.6874 40.2772 11.4055 39.3685 11.4055Z" fill="black"/>
<path d="M49.4961 15.7405C49.666 16.3364 49.9122 16.7993 50.2349 17.1295C50.8039 17.7011 51.5214 17.987 52.3876 17.987C53.3982 17.987 54.2177 17.685 54.8461 17.0811C54.965 16.9604 55.1603 16.7027 55.4321 16.3082L57.9542 17.2985C57.3767 18.2003 56.8077 18.8646 56.2472 19.2913C55.1518 20.1206 53.8695 20.5353 52.4003 20.5353C50.5661 20.5353 49.0758 19.8953 47.9293 18.615C46.9357 17.5119 46.439 16.1995 46.439 14.6778C46.439 13.6391 46.6895 12.6769 47.1905 11.7912C47.717 10.8491 48.4473 10.1164 49.3814 9.59305C50.2731 9.09384 51.237 8.84424 52.273 8.84424C53.9629 8.84424 55.3429 9.41594 56.4129 10.5593C57.4829 11.6946 58.0179 13.1599 58.0179 14.9555C58.0179 15.1165 58.0136 15.3782 58.0051 15.7405H49.4961ZM55.0499 13.6391C54.5404 12.1012 53.6147 11.3322 52.273 11.3322C51.5767 11.3322 50.9865 11.5335 50.5024 11.9361C50.0269 12.3306 49.6914 12.8983 49.4961 13.6391H55.0499Z" fill="black"/>
<path d="M63.7534 20.5264V4.04053H66.7214V10.2605C67.7065 9.55189 68.7425 9.19766 69.8295 9.19766C71.6299 9.19766 73.1332 9.8337 74.3388 11.1059C75.383 12.209 75.9055 13.5174 75.9055 15.0311C75.9055 16.8025 75.2307 18.2639 73.8804 19.4153C72.7256 20.3975 71.3753 20.8887 69.8295 20.8887C68.7425 20.8887 67.7065 20.5344 66.7214 19.8259V20.5264H63.7534ZM69.7149 11.7581C68.7468 11.7581 67.9697 12.1284 67.3838 12.8692C66.9337 13.4409 66.7087 14.1615 66.7087 15.0311C66.7087 16.0537 67.0101 16.8669 67.613 17.4707C68.1905 18.0424 68.9123 18.3283 69.7785 18.3283C70.7888 18.3283 71.6 17.9539 72.2115 17.2051C72.6699 16.6414 72.8995 15.9168 72.8995 15.0311C72.8995 14.0085 72.5892 13.1993 71.9694 12.6035C71.3836 12.0399 70.6323 11.7581 69.7149 11.7581Z" fill="black"/>
<path d="M79.8681 9.5603V20.5267H76.9004V9.5603H79.8681Z" fill="black"/>
<path d="M84.7099 12.0966V16.9881C84.7099 17.3987 84.7482 17.6805 84.824 17.8335C84.9096 17.9865 85.0661 18.063 85.2957 18.063C85.5844 18.063 86.0386 17.9704 86.6585 17.7852V20.4543C86.0219 20.6395 85.4487 20.7321 84.9388 20.7321C83.9113 20.7321 83.1217 20.4101 82.57 19.7659C82.0177 19.1137 81.7415 18.1878 81.7415 16.9881V12.0966H80.5317V9.56037H81.7415V7.20526L84.7099 6.1062V9.56037H86.4929V12.0966H84.7099Z" fill="black"/>
<path d="M95.7924 13.2923C95.1385 12.6482 94.6292 12.2335 94.264 12.0483C93.8988 11.855 93.4278 11.7584 92.8504 11.7584C91.7805 11.7584 90.9478 12.1288 90.3537 12.8696C89.8952 13.4331 89.6656 14.1538 89.6656 15.0314C89.6656 16.0621 89.9759 16.8753 90.5957 17.4711C91.1815 18.0428 91.937 18.3286 92.8629 18.3286C93.4403 18.3286 93.9496 18.2119 94.3913 17.9784C94.8331 17.7368 95.3214 17.3141 95.8564 16.7102L97.8432 18.5219C97.0369 19.3673 96.2466 19.9752 95.4745 20.3456C94.7016 20.7079 93.8264 20.889 92.8504 20.889C90.9561 20.889 89.411 20.253 88.2138 18.9808C87.1772 17.8697 86.6597 16.5572 86.6597 15.0435C86.6597 13.2722 87.3345 11.8108 88.6848 10.6594C89.8312 9.6851 91.2198 9.198 92.8504 9.198C93.8014 9.198 94.655 9.37512 95.4105 9.72942C96.175 10.0757 96.9604 10.6594 97.7674 11.4806L95.7924 13.2923Z" fill="black"/>
<path d="M103.64 9.198C105.415 9.198 106.906 9.83405 108.111 11.1062C109.156 12.2093 109.678 13.5177 109.678 15.0314C109.678 16.8028 109.003 18.2642 107.653 19.4156C106.506 20.3979 105.135 20.889 103.539 20.889C101.679 20.889 100.146 20.253 98.9404 18.9808C97.9038 17.8777 97.3862 16.5492 97.3862 14.9952C97.3862 13.2641 98.061 11.8228 99.4113 10.6714C100.558 9.68914 101.967 9.198 103.64 9.198ZM103.475 11.7584C102.49 11.7584 101.692 12.1288 101.08 12.8696C100.622 13.4331 100.392 14.1538 100.392 15.0314C100.392 16.0621 100.702 16.8753 101.322 17.4711C101.916 18.0428 102.655 18.3286 103.539 18.3286C104.566 18.3286 105.382 17.9542 105.984 17.2054C106.443 16.6418 106.672 15.9171 106.672 15.0314C106.672 14.0089 106.362 13.1997 105.742 12.6038C105.156 12.0402 104.401 11.7584 103.475 11.7584Z" fill="black"/>
<path d="M113.628 9.5603V20.5267H110.66V9.5603H113.628Z" fill="black"/>
<path d="M118.342 10.14C119.166 9.51202 120.062 9.198 121.03 9.198C121.709 9.198 122.368 9.32684 123.004 9.58444C123.641 9.84212 124.18 10.2004 124.622 10.6594C125.072 11.1102 125.395 11.6497 125.59 12.2778C125.794 12.9058 125.896 13.6908 125.896 14.6329V20.5267H122.928V14.814C122.928 13.5822 122.737 12.7609 122.354 12.3502C121.981 11.9557 121.467 11.7584 120.813 11.7584C119.956 11.7584 119.31 12.012 118.877 12.5193C118.521 12.938 118.342 13.7794 118.342 15.0435V20.5267H115.374V9.5603H118.342V10.14Z" fill="black"/>
<path d="M135.514 11.7946L133.209 12.8816C132.869 12.4308 132.576 12.1248 132.33 11.9638C132.083 11.7946 131.791 11.7101 131.451 11.7101C131.086 11.7101 130.793 11.7906 130.572 11.9517C130.36 12.1127 130.253 12.3261 130.253 12.5917C130.253 12.8333 130.33 13.0105 130.483 13.1232C130.644 13.2359 131.056 13.413 131.718 13.6546L132.776 14.029C133.523 14.3027 134.122 14.6168 134.572 14.9711C135.26 15.5105 135.604 16.2352 135.604 17.145C135.604 18.2481 135.145 19.166 134.228 19.8987C133.421 20.5589 132.436 20.889 131.272 20.889C129.727 20.889 128.521 20.3294 127.655 19.2102C127.349 18.8157 127.048 18.2401 126.75 17.4832L129.171 16.5653C129.536 17.2497 129.867 17.7207 130.164 17.9784C130.47 18.228 130.844 18.3528 131.286 18.3528C131.693 18.3528 132.02 18.2481 132.266 18.0387C132.513 17.8294 132.636 17.5557 132.636 17.2175C132.636 16.984 132.546 16.8028 132.368 16.674C132.19 16.5371 131.786 16.3559 131.158 16.1305L129.986 15.7078C128.262 15.0797 127.4 14.0652 127.4 12.6642C127.4 11.6095 127.829 10.752 128.687 10.0917C129.477 9.49588 130.406 9.198 131.476 9.198C132.385 9.198 133.158 9.40329 133.795 9.81394C134.44 10.2246 135.014 10.8848 135.514 11.7946Z" fill="black"/>
</g>
<defs>
<clipPath id="clip0_888_1132">
<rect width="135.655" height="22.2613" fill="white" transform="translate(0.5 0.73877)"/>
</clipPath>
</defs>
</svg>
