<svg width="130" height="19" viewBox="0 0 130 19" fill="none" xmlns="http://www.w3.org/2000/svg">
<g clip-path="url(#clip0_888_1022)">
<path d="M46.59 6.61002C46.72 6.81002 46.78 7.02002 46.78 7.25002C46.78 7.53002 46.7 7.78002 46.53 7.97002C46.36 8.17002 46.14 8.27002 45.86 8.27002C45.62 8.27002 45.42 8.19002 45.25 8.04002C45.08 7.89002 45 7.69002 45 7.43002C45 7.08002 45.18 6.78002 45.55 6.55002C45.48 6.45002 45.36 6.39002 45.21 6.39002C44.78 6.39002 44.4 6.55002 44.06 6.88002C43.72 7.21002 43.45 7.61002 43.25 8.09002C43.05 8.57002 42.95 9.02002 42.95 9.44002V12.87C42.95 13.37 43.09 13.72 43.38 13.91C43.66 14.1 44.09 14.2 44.67 14.2V14.54C43.34 14.5 42.51 14.48 42.18 14.48C41.89 14.48 41.26 14.5 40.27 14.54V14.2C40.57 14.2 40.82 14.17 40.99 14.1C41.17 14.03 41.29 13.91 41.38 13.75C41.46 13.58 41.5 13.35 41.5 13.05V7.97002C41.5 7.47002 41.41 7.11002 41.23 6.88002C41.05 6.65002 40.73 6.54002 40.27 6.54002V6.20002C40.61 6.23002 40.94 6.25002 41.27 6.25002C41.95 6.25002 42.52 6.18002 42.95 6.03002V8.05002C43.07 7.71002 43.25 7.39002 43.47 7.07002C43.7 6.75002 43.97 6.49002 44.29 6.29002C44.61 6.08002 44.94 5.98002 45.29 5.98002C45.57 5.98002 45.83 6.04002 46.05 6.15002C46.28 6.26002 46.46 6.41002 46.59 6.61002ZM52.41 6.20002V6.52002C52.83 6.55002 53.14 6.62002 53.33 6.74002C53.52 6.86002 53.62 7.05002 53.62 7.30002C53.62 7.48002 53.56 7.73002 53.45 8.04002L51.66 12.73L49.71 7.89002C49.57 7.55002 49.5 7.29002 49.5 7.09002C49.5 6.92002 49.55 6.79002 49.65 6.71002C49.75 6.63002 49.87 6.58002 50.02 6.56002C50.17 6.54002 50.37 6.53002 50.64 6.53002V6.20002C49.7 6.27002 49 6.30002 48.54 6.30002C47.99 6.30002 47.46 6.27002 46.95 6.20002V6.54002C47.13 6.54002 47.32 6.60002 47.5 6.71002C47.68 6.83002 47.86 7.07002 48.05 7.44002L50.99 14.5L50.41 15.98C50.09 16.82 49.63 17.24 49.03 17.24C48.99 17.24 48.96 17.23 48.93 17.22C49.22 17.06 49.36 16.81 49.36 16.49C49.36 16.25 49.28 16.06 49.13 15.93C48.97 15.8 48.78 15.73 48.54 15.73C48.27 15.73 48.06 15.81 47.91 15.96C47.76 16.12 47.68 16.32 47.68 16.58C47.68 16.89 47.78 17.12 47.99 17.3C48.2 17.47 48.46 17.56 48.78 17.56C49.32 17.56 49.74 17.42 50.05 17.14C50.31 16.91 50.54 16.53 50.74 16L51.29 14.59L53.95 7.66002C54.1 7.26002 54.26 6.98002 54.42 6.81002C54.59 6.64002 54.78 6.54002 55 6.52002V6.20002C54.66 6.23002 54.25 6.25002 53.77 6.25002C53.43 6.24002 52.98 6.23002 52.41 6.20002ZM63.4 7.82002C63.66 8.43002 63.79 9.15002 63.79 9.99002C63.79 10.82 63.66 11.59 63.39 12.32C63.12 13.05 62.72 13.63 62.16 14.08C61.6 14.53 60.91 14.76 60.08 14.76C59.67 14.76 59.3 14.68 58.96 14.52C58.63 14.36 58.37 14.15 58.18 13.88V15.95C58.18 16.39 58.31 16.69 58.57 16.86C58.83 17.03 59.22 17.12 59.74 17.12V17.46C59.6 17.45 59.3 17.44 58.82 17.42C58.34 17.4 57.87 17.39 57.41 17.39C57.07 17.39 56.71 17.4 56.35 17.42C55.99 17.44 55.76 17.45 55.66 17.46V17.12C56.06 17.12 56.33 17.05 56.49 16.9C56.65 16.75 56.73 16.49 56.73 16.11V7.97002C56.73 7.47002 56.64 7.11002 56.46 6.88002C56.28 6.65002 55.96 6.54002 55.5 6.54002V6.20002C55.84 6.23002 56.17 6.25002 56.5 6.25002C57.18 6.25002 57.75 6.18002 58.18 6.03002V7.74002C58.42 7.18002 58.77 6.75002 59.22 6.45002C59.67 6.14002 60.19 5.99002 60.77 5.99002C61.34 5.99002 61.86 6.15002 62.31 6.46002C62.78 6.75002 63.14 7.21002 63.4 7.82002ZM62.22 10.21C62.22 7.71002 61.59 6.46002 60.34 6.46002C59.85 6.46002 59.41 6.64002 59.02 6.99002C58.63 7.34002 58.35 7.85002 58.19 8.51002V13.35C58.35 13.67 58.57 13.93 58.86 14.11C59.15 14.3 59.5 14.39 59.9 14.39C61.45 14.39 62.22 13 62.22 10.21ZM69.53 13.77C69.29 14.04 69.01 14.17 68.67 14.17C68.33 14.17 68.07 14.06 67.9 13.85C67.73 13.64 67.64 13.28 67.64 12.8V6.54002H70.03V6.21002H67.64V3.51002C67.28 3.65002 66.79 3.72002 66.19 3.74002V6.21002H64.63V6.53002H66.19V11.95C66.19 12.54 66.24 13 66.33 13.34C66.42 13.69 66.59 13.98 66.82 14.21C67 14.39 67.21 14.53 67.45 14.62C67.69 14.71 67.99 14.75 68.35 14.75C69.49 14.75 70.19 14 70.45 12.51L70.13 12.43C69.97 13.06 69.77 13.51 69.53 13.77ZM78.24 7.89002C78.56 8.55002 78.72 9.37002 78.72 10.38C78.72 11.38 78.56 12.21 78.24 12.86C77.92 13.51 77.49 13.99 76.94 14.3C76.39 14.61 75.76 14.76 75.05 14.76C74.34 14.76 73.71 14.61 73.16 14.3C72.61 13.99 72.18 13.51 71.86 12.86C71.54 12.21 71.38 11.38 71.38 10.38C71.38 9.38002 71.54 8.55002 71.86 7.89002C72.18 7.24002 72.61 6.75002 73.16 6.44002C73.71 6.13002 74.34 5.97002 75.05 5.97002C75.76 5.97002 76.39 6.13002 76.94 6.44002C77.48 6.75002 77.92 7.24002 78.24 7.89002ZM77.14 10.38C77.14 8.99002 76.95 7.96002 76.57 7.30002C76.19 6.64002 75.68 6.31002 75.03 6.31002C74.38 6.31002 73.87 6.64002 73.49 7.30002C73.11 7.96002 72.92 8.99002 72.92 10.38C72.92 11.77 73.11 12.79 73.49 13.45C73.87 14.11 74.38 14.44 75.03 14.44C75.68 14.44 76.19 14.11 76.57 13.45C76.95 12.78 77.14 11.76 77.14 10.38ZM3.8 12.18C3.65 12.35 3.47 12.43 3.26 12.43C3.05 12.43 2.89 12.36 2.78 12.23C2.67 12.1 2.62 11.88 2.62 11.58V7.69002H4.11V7.49002H2.62V5.81002C2.39 5.90002 2.09 5.94002 1.72 5.95002V7.49002H0.75V7.69002H1.72V11.06C1.72 11.42 1.75 11.71 1.81 11.93C1.87 12.15 1.97 12.33 2.11 12.47C2.23 12.58 2.35 12.67 2.5 12.72C2.65 12.77 2.83 12.8 3.06 12.8C3.77 12.8 4.2 12.34 4.37 11.41L4.17 11.36C4.07 11.74 3.94 12.02 3.8 12.18ZM9.34 12.16C9.29 12.06 9.26 11.91 9.26 11.72V9.04002C9.26 8.70002 9.23 8.43002 9.18 8.23002C9.13 8.03002 9.04 7.86002 8.91 7.72002C8.67 7.47002 8.31 7.34002 7.84 7.34002C7.47 7.34002 7.13 7.43002 6.83 7.62002C6.53 7.81002 6.3 8.11002 6.13 8.54002V4.78002C5.87 4.88002 5.52 4.92002 5.08 4.92002C4.88 4.92002 4.67 4.91002 4.46 4.89002V5.10002C4.75 5.10002 4.94 5.17002 5.06 5.31002C5.17 5.45002 5.23 5.67002 5.23 5.98002V11.71C5.23 11.9 5.2 12.04 5.15 12.15C5.1 12.25 5.02 12.33 4.91 12.37C4.8 12.41 4.65 12.43 4.46 12.43V12.64C5.07 12.61 5.48 12.6 5.67 12.6C5.86 12.6 6.23 12.61 6.79 12.64V12.43C6.62 12.43 6.49 12.41 6.4 12.37C6.31 12.34 6.24 12.26 6.2 12.16C6.16 12.06 6.13 11.91 6.13 11.72V9.48002C6.13 9.13002 6.19 8.82002 6.31 8.54002C6.43 8.26002 6.6 8.05002 6.81 7.89002C7.03 7.74002 7.27 7.66002 7.54 7.66002C7.77 7.66002 7.94 7.71002 8.06 7.81002C8.18 7.91002 8.26 8.04002 8.3 8.21002C8.34 8.37002 8.36 8.58002 8.36 8.82002V11.72C8.36 11.91 8.34 12.05 8.29 12.16C8.24 12.26 8.18 12.34 8.08 12.38C7.98 12.42 7.85 12.44 7.69 12.44V12.65C8.25 12.62 8.63 12.61 8.82 12.61C9 12.61 9.4 12.62 10.03 12.65V12.44C9.84 12.44 9.69 12.42 9.58 12.38C9.47 12.34 9.39 12.26 9.34 12.16ZM14.62 11.37L14.82 11.45C14.74 11.68 14.62 11.91 14.44 12.11C14.27 12.32 14.06 12.48 13.8 12.61C13.54 12.74 13.26 12.8 12.94 12.8C12.46 12.8 12.05 12.69 11.7 12.47C11.35 12.25 11.09 11.95 10.9 11.55C10.72 11.16 10.63 10.7 10.63 10.19C10.63 9.61002 10.72 9.10002 10.91 8.67002C11.1 8.24002 11.36 7.91002 11.7 7.68002C12.04 7.45002 12.44 7.33002 12.9 7.33002C13.5 7.33002 13.97 7.51002 14.29 7.88002C14.62 8.25002 14.78 8.80002 14.78 9.54002H11.64C11.62 9.71002 11.61 9.93002 11.61 10.18C11.61 10.62 11.68 11.01 11.83 11.34C11.98 11.67 12.17 11.92 12.4 12.1C12.64 12.28 12.88 12.37 13.15 12.37C13.82 12.37 14.31 12.04 14.62 11.37ZM11.63 9.36002H13.82C13.83 9.03002 13.8 8.72002 13.74 8.44002C13.67 8.16002 13.56 7.94002 13.41 7.78002C13.26 7.62002 13.08 7.54002 12.87 7.54002C12.66 7.54002 12.47 7.61002 12.3 7.74002C12.13 7.87002 11.98 8.08002 11.86 8.35002C11.74 8.61002 11.66 8.95002 11.63 9.36002ZM87.35 13.73C87.27 13.56 87.23 13.33 87.23 13.03V8.71002C87.23 8.16002 87.19 7.73002 87.1 7.40002C87.01 7.07002 86.87 6.80002 86.67 6.58002C86.28 6.18002 85.71 5.97002 84.95 5.97002C84.34 5.97002 83.8 6.12002 83.32 6.43002C82.84 6.74002 82.46 7.23002 82.19 7.92002V6.02002C81.75 6.17002 81.19 6.24002 80.51 6.24002C80.18 6.24002 79.84 6.22002 79.51 6.19002V6.53002C79.97 6.53002 80.29 6.64002 80.47 6.87002C80.65 7.10002 80.74 7.46002 80.74 7.96002V13.02C80.74 13.32 80.7 13.55 80.62 13.72C80.54 13.89 80.41 14.01 80.23 14.07C80.05 14.14 79.81 14.17 79.51 14.17V14.51C80.5 14.47 81.15 14.45 81.45 14.45C81.76 14.45 82.36 14.47 83.27 14.51V14.17C83 14.17 82.79 14.14 82.64 14.07C82.49 14 82.37 13.88 82.3 13.72C82.23 13.55 82.19 13.32 82.19 13.02V9.44002C82.19 8.89002 82.29 8.39002 82.47 7.94002C82.66 7.49002 82.93 7.14002 83.27 6.88002C83.62 6.62002 84.01 6.49002 84.45 6.49002C84.82 6.49002 85.1 6.57002 85.29 6.73002C85.48 6.89002 85.61 7.11002 85.67 7.37002C85.73 7.63002 85.76 7.96002 85.76 8.35002V13.03C85.76 13.33 85.72 13.56 85.65 13.73C85.58 13.9 85.47 14.02 85.32 14.08C85.17 14.15 84.96 14.18 84.69 14.18V14.52C85.6 14.48 86.2 14.46 86.5 14.46C86.81 14.46 87.45 14.48 88.44 14.52V14.18C88.13 14.18 87.89 14.15 87.72 14.08C87.56 14.02 87.43 13.9 87.35 13.73ZM96.33 7.89002C96.65 8.55002 96.81 9.37002 96.81 10.38C96.81 11.38 96.65 12.21 96.33 12.86C96.01 13.51 95.58 13.99 95.03 14.3C94.48 14.61 93.85 14.76 93.14 14.76C92.43 14.76 91.8 14.61 91.25 14.3C90.7 13.99 90.27 13.51 89.95 12.86C89.63 12.21 89.47 11.38 89.47 10.38C89.47 9.38002 89.63 8.55002 89.95 7.89002C90.27 7.24002 90.7 6.75002 91.25 6.44002C91.8 6.13002 92.43 5.97002 93.14 5.97002C93.85 5.97002 94.48 6.13002 95.03 6.44002C95.58 6.75002 96.01 7.24002 96.33 7.89002ZM95.24 10.38C95.24 8.99002 95.05 7.96002 94.67 7.30002C94.29 6.64002 93.78 6.31002 93.13 6.31002C92.48 6.31002 91.97 6.64002 91.59 7.30002C91.21 7.96002 91.02 8.99002 91.02 10.38C91.02 11.77 91.21 12.79 91.59 13.45C91.97 14.11 92.48 14.44 93.13 14.44C93.78 14.44 94.29 14.11 94.67 13.45C95.05 12.78 95.24 11.76 95.24 10.38ZM110.58 13.73C110.5 13.56 110.46 13.33 110.46 13.03V8.71002C110.46 8.18002 110.42 7.75002 110.34 7.41002C110.26 7.08002 110.12 6.80002 109.93 6.58002C109.54 6.18002 108.98 5.97002 108.25 5.97002C107.67 5.97002 107.14 6.12002 106.67 6.42002C106.2 6.72002 105.82 7.21002 105.56 7.89002C105.5 7.32002 105.33 6.88002 105.06 6.59002C104.67 6.19002 104.11 5.98002 103.38 5.98002C102.82 5.98002 102.3 6.14002 101.83 6.46002C101.36 6.78002 100.99 7.27002 100.72 7.93002V6.03002C100.28 6.18002 99.72 6.25002 99.04 6.25002C98.71 6.25002 98.37 6.23002 98.04 6.20002V6.54002C98.5 6.54002 98.82 6.65002 99 6.88002C99.18 7.11002 99.27 7.47002 99.27 7.97002V13.03C99.27 13.33 99.23 13.56 99.15 13.73C99.07 13.9 98.94 14.02 98.76 14.08C98.58 14.15 98.34 14.18 98.04 14.18V14.52C99.03 14.48 99.68 14.46 99.98 14.46C100.29 14.46 100.89 14.48 101.8 14.52V14.18C101.53 14.18 101.32 14.15 101.17 14.08C101.02 14.01 100.91 13.89 100.83 13.73C100.76 13.56 100.72 13.33 100.72 13.03V9.44002C100.72 8.90002 100.82 8.40002 101.01 7.95002C101.2 7.50002 101.46 7.14002 101.79 6.88002C102.12 6.62002 102.5 6.49002 102.91 6.49002C103.27 6.49002 103.54 6.57002 103.72 6.73002C103.9 6.89002 104.01 7.10002 104.06 7.35002C104.11 7.61002 104.13 7.94002 104.13 8.35002V13.03C104.13 13.33 104.1 13.56 104.03 13.73C103.96 13.9 103.85 14.02 103.7 14.08C103.55 14.15 103.34 14.18 103.07 14.18V14.52C103.97 14.48 104.58 14.46 104.89 14.46C105.19 14.46 105.84 14.48 106.82 14.52V14.18C106.52 14.18 106.28 14.15 106.1 14.08C105.93 14.01 105.8 13.89 105.72 13.73C105.64 13.56 105.6 13.33 105.6 13.03V9.42002C105.6 8.88002 105.69 8.38002 105.88 7.94002C106.07 7.50002 106.33 7.14002 106.66 6.88002C106.99 6.62002 107.36 6.49002 107.77 6.49002C108.14 6.49002 108.41 6.57002 108.59 6.73002C108.77 6.89002 108.88 7.10002 108.93 7.35002C108.98 7.61002 109 7.94002 109 8.35002V13.03C109 13.33 108.96 13.56 108.89 13.73C108.82 13.9 108.71 14.02 108.56 14.08C108.41 14.15 108.2 14.18 107.93 14.18V14.52C108.84 14.48 109.44 14.46 109.74 14.46C110.04 14.46 110.69 14.48 111.68 14.52V14.18C111.37 14.18 111.13 14.15 110.96 14.08C110.79 14.02 110.66 13.9 110.58 13.73ZM115.21 13.73C115.13 13.56 115.09 13.33 115.09 13.03V6.02002C114.65 6.17002 114.09 6.24002 113.41 6.24002C113.08 6.24002 112.74 6.22002 112.41 6.19002V6.53002C112.87 6.53002 113.19 6.64002 113.37 6.87002C113.55 7.10002 113.64 7.46002 113.64 7.96002V13.02C113.64 13.32 113.6 13.55 113.52 13.72C113.44 13.89 113.31 14.01 113.13 14.07C112.95 14.14 112.71 14.17 112.41 14.17V14.51C113.4 14.47 114.05 14.45 114.37 14.45C114.69 14.45 115.34 14.47 116.33 14.51V14.17C116.02 14.17 115.78 14.14 115.61 14.07C115.42 14.02 115.29 13.9 115.21 13.73ZM113.74 4.08002C113.9 4.17002 114.07 4.22002 114.26 4.22002C114.44 4.22002 114.62 4.18002 114.77 4.08002C114.93 3.99002 115.06 3.86002 115.15 3.70002C115.24 3.54002 115.29 3.37002 115.29 3.18002C115.29 3.00002 115.24 2.82002 115.15 2.67002C115.06 2.51002 114.93 2.39002 114.77 2.29002C114.61 2.20002 114.44 2.15002 114.26 2.15002C114.08 2.15002 113.9 2.20002 113.74 2.29002C113.58 2.39002 113.45 2.51002 113.36 2.67002C113.27 2.83002 113.22 3.00002 113.22 3.18002C113.22 3.36002 113.27 3.54002 113.36 3.70002C113.45 3.87002 113.58 3.99002 113.74 4.08002ZM122.12 10.52C121.82 10.27 121.42 9.98002 120.92 9.66002C120.77 9.56002 120.51 9.40002 120.15 9.17002C119.79 8.94002 119.48 8.71002 119.23 8.46002C118.98 8.21002 118.85 7.90002 118.85 7.52002C118.85 7.13002 118.97 6.83002 119.22 6.61002C119.47 6.39002 119.79 6.28002 120.18 6.28002C120.85 6.28002 121.35 6.51002 121.7 6.98002C122.04 7.44002 122.27 8.03002 122.39 8.74002H122.75C122.75 7.43002 122.77 6.52002 122.81 5.99002H122.44C122.39 6.46002 122.27 6.70002 122.08 6.70002C122.01 6.70002 121.91 6.66002 121.8 6.57002C121.61 6.42002 121.36 6.28002 121.06 6.16002C120.76 6.04002 120.42 5.98002 120.04 5.98002C119.6 5.98002 119.2 6.06002 118.83 6.21002C118.47 6.36002 118.18 6.60002 117.97 6.91002C117.75 7.22002 117.65 7.61002 117.65 8.07002C117.65 8.49002 117.75 8.86002 117.94 9.17002C118.13 9.48002 118.37 9.75002 118.65 9.96002C118.93 10.18 119.34 10.45 119.87 10.79C120.31 11.06 120.65 11.29 120.89 11.48C121.13 11.67 121.33 11.88 121.48 12.11C121.63 12.35 121.7 12.61 121.7 12.9C121.7 13.26 121.63 13.56 121.49 13.79C121.35 14.02 121.17 14.18 120.95 14.29C120.73 14.39 120.5 14.44 120.27 14.44C119.75 14.44 119.34 14.32 119.04 14.08C118.73 13.84 118.51 13.5 118.36 13.07C118.21 12.64 118.1 12.09 118.02 11.42H117.65C117.65 12.96 117.63 14.03 117.59 14.65H117.96C118.02 14.24 118.13 14.04 118.29 14.04C118.35 14.04 118.4 14.06 118.44 14.1C118.67 14.28 118.89 14.43 119.1 14.53C119.47 14.68 119.9 14.76 120.38 14.76C120.88 14.76 121.34 14.67 121.76 14.5C122.18 14.32 122.52 14.07 122.77 13.73C123.02 13.39 123.15 12.98 123.15 12.5C123.15 12.08 123.06 11.71 122.87 11.39C122.67 11.06 122.42 10.77 122.12 10.52ZM129.47 12.45C129.31 13.07 129.11 13.51 128.87 13.78C128.63 14.05 128.35 14.18 128.01 14.18C127.67 14.18 127.41 14.07 127.24 13.86C127.07 13.65 126.98 13.29 126.98 12.81V6.54002H129.37V6.21002H126.98V3.51002C126.62 3.65002 126.13 3.72002 125.53 3.74002V6.21002H123.97V6.53002H125.53V11.95C125.53 12.54 125.58 13 125.67 13.34C125.76 13.69 125.93 13.98 126.16 14.21C126.34 14.39 126.56 14.53 126.79 14.62C127.03 14.71 127.33 14.75 127.69 14.75C128.83 14.75 129.53 14 129.79 12.51L129.47 12.45ZM38.73 14.65C37.12 17.16 34.35 18.86 31.18 18.99C25.72 19.2 21.21 14.69 21.43 9.23002C21.56 5.84002 23.5 2.91002 26.31 1.37002C26.43 1.30002 26.54 1.46002 26.44 1.55002C24.26 3.54002 23.07 6.61002 23.72 9.92002C23.99 11.31 24.6 12.58 25.45 13.65C25.71 13.17 26.22 12.57 26.23 11.78C26.25 9.57002 26.25 7.37002 26.24 5.16002C26.24 4.79002 26.34 4.53002 26.63 4.29002C28.26 2.95002 29.87 1.59002 31.5 0.260018C31.62 0.160018 31.9 0.140018 32.04 0.220018C33.14 0.840018 37.42 2.29002 37.89 2.34002C37.97 2.35002 38.11 2.47002 37.95 2.61002C37.95 2.61002 36.68 3.88002 35.99 4.58002C35.87 4.70002 35.72 4.67002 35.6 4.63002C34.9 4.39002 33.83 3.95002 32.88 3.57002V9.24002H33.59V9.95002H32.85V16.98C35.06 16.87 37.07 15.96 38.56 14.52C38.66 14.41 38.8 14.53 38.73 14.65ZM30.26 9.93002H28.96C28.71 10.98 28.17 11.85 27.32 12.64C27.04 12.9 26.33 13.58 25.98 13.92C25.9 14 25.89 14.13 25.96 14.22C25.99 14.25 26.02 14.28 26.05 14.31C26.11 14.37 26.17 14.43 26.22 14.48C26.32 14.58 26.43 14.68 26.54 14.77C26.6 14.82 26.66 14.87 26.72 14.92C26.79 14.98 26.86 15.04 26.93 15.09C27.53 15.55 28.22 15.95 28.91 16.25C29.31 16.42 29.73 16.56 30.16 16.67C30.21 16.66 30.26 16.61 30.26 16.55V9.93002ZM30.27 2.70002C30.27 2.59002 30.16 2.54002 30.06 2.60002C30.06 2.60002 29.87 2.72002 29.77 2.77002C29.27 3.07002 29.08 3.54002 29.1 4.14002L29.12 8.34002C29.13 8.65002 29.11 8.93002 29.07 9.22002H30.25L30.27 2.70002ZM32.12 9.93002H30.98C30.98 12.11 30.98 14.28 30.97 16.27C30.97 16.67 31.06 16.85 31.45 16.92C31.68 16.94 31.9 16.96 32.12 16.97V9.93002ZM32.12 3.26002C31.9 3.17002 31.69 3.10002 31.51 3.03002C31.47 3.02002 31.37 2.98002 31.33 2.97002C31.05 2.88002 30.97 3.01002 30.97 3.16002C30.97 3.26002 30.97 3.35002 30.97 3.44002C30.97 5.25002 30.97 7.22002 30.97 9.21002H32.11V3.26002H32.12Z" fill="black"/>
</g>
<defs>
<clipPath id="clip0_888_1022">
<rect width="129.04" height="18.83" fill="white" transform="translate(0.75 0.169922)"/>
</clipPath>
</defs>
</svg>
