<svg width="109" height="26" viewBox="0 0 109 26" fill="none" xmlns="http://www.w3.org/2000/svg">
<path d="M19.0335 13.3108L12.689 19.6553H25.3781L19.0335 13.3108Z" fill="black"/>
<path d="M6.34455 13.3109L0 6.96631V19.6554L6.34455 13.3109Z" fill="black"/>
<path d="M19.0335 13.3109L25.3781 6.96631H12.689L19.0335 13.3109Z" fill="black"/>
<path d="M12.6883 6.96639L19.0329 0.621826H6.34375L12.6883 6.96639Z" fill="black"/>
<path d="M19.0335 26.0001L25.3781 19.6555H12.689L19.0335 26.0001Z" fill="black"/>
<path d="M6.34455 26.0001L12.6891 19.6555H0L6.34455 26.0001Z" fill="black"/>
<path d="M19.0335 0.621826L12.689 6.96639H25.3781L19.0335 0.621826Z" fill="black"/>
<path d="M0 6.96639H12.6891L6.34455 0.621826L0 6.96639Z" fill="black"/>
<path d="M12.6883 19.6555L6.34375 26.0001H19.0329L12.6883 19.6555Z" fill="black"/>
<path d="M6.34455 13.3108L0 19.6553H12.6891L6.34455 13.3108Z" fill="black"/>
<path d="M12.6891 6.96631H0L6.34455 13.3109L12.6891 6.96631Z" fill="black"/>
<path fill-rule="evenodd" clip-rule="evenodd" d="M32.7459 15.644C33.0815 15.644 33.3333 15.5433 33.5012 15.3586C33.669 15.174 33.7529 14.9055 33.7529 14.5362H36.0692L36.086 14.5866C36.1363 15.409 35.7839 16.2147 35.1628 16.7518C34.4914 17.3224 33.6354 17.6246 32.7459 17.591C31.5038 17.591 30.5639 17.2049 29.8925 16.4496C29.2043 15.6104 28.8351 14.553 28.8854 13.4788V13.3109C28.8854 12.1024 29.2211 11.1122 29.8925 10.3401C30.5471 9.56798 31.5038 9.19872 32.7291 9.19872C33.7529 9.19872 34.5754 9.48406 35.1964 10.0547C35.8342 10.659 36.1531 11.5318 36.1028 12.4046L36.086 12.4549H33.7697C33.7865 12.1192 33.6858 11.7835 33.5179 11.515C33.3501 11.28 33.0983 11.1625 32.7459 11.1625C32.2591 11.1625 31.9234 11.3639 31.7388 11.75C31.5206 12.2535 31.4199 12.7906 31.4534 13.3277V13.4956C31.4534 14.1669 31.5542 14.704 31.7388 15.0901C31.9066 15.4426 32.2591 15.644 32.7459 15.644ZM41.7256 11.5653H40.8024C40.5171 11.5653 40.2821 11.6157 40.0975 11.6996C39.9129 11.8003 39.7786 11.9346 39.6947 12.1192V17.4399H37.1602V9.33299H39.5436L39.6275 10.5247C39.7618 10.1387 39.9968 9.80296 40.3157 9.53441C40.5842 9.29943 40.9367 9.18193 41.2892 9.18193C41.5242 9.18193 41.7592 9.2155 41.9941 9.26586L41.7256 11.5653ZM46.5428 13.8648V13.932H46.5931L47.9359 9.33299H50.6382L47.3988 18.6316C47.147 19.2359 46.8281 19.7226 46.4253 20.1087C46.0224 20.4947 45.4014 20.6961 44.5286 20.6961C44.3104 20.6961 44.1258 20.6793 43.9915 20.6458C43.8572 20.629 43.639 20.5786 43.3369 20.4947L43.639 18.6988L43.7901 18.7323L43.9244 18.7491C44.3272 18.7491 44.6125 18.682 44.7972 18.5645C44.9818 18.447 45.1161 18.2624 45.2168 18.0274L45.4182 17.5071L42.5984 9.31621H45.3007L46.5428 13.8648ZM56.2946 13.3949C56.2946 12.7235 56.1939 12.1528 55.9924 11.75C55.791 11.3304 55.4721 11.1289 55.0357 11.1289C54.7504 11.1289 54.4986 11.1793 54.314 11.28C54.1126 11.3807 53.9615 11.5318 53.844 11.7332V15.1237C53.9615 15.2915 54.1294 15.4258 54.314 15.5097C54.549 15.5936 54.8007 15.644 55.0525 15.6272C55.5057 15.6272 55.8078 15.4426 56.0092 15.0733C56.2274 14.5866 56.3281 14.0662 56.2946 13.5291V13.3949ZM58.829 13.5459C58.829 14.7712 58.5437 15.7447 58.0066 16.4832C57.4695 17.2217 56.5967 17.6246 55.6903 17.591C54.9686 17.6078 54.2972 17.2889 53.8608 16.7182V20.5451H51.3263V9.33299H53.693L53.7937 10.2226C54.1965 9.56798 54.9182 9.16515 55.6903 9.18193C56.6974 9.18193 57.4695 9.56798 58.0234 10.3401C58.6108 11.2464 58.8962 12.3206 58.8458 13.3949V13.5459H58.829ZM62.9412 7.31885V9.33299H64.3176V11.0786H62.9412V14.8048C62.9412 15.0901 63.0084 15.2915 63.1091 15.4258C63.2266 15.5601 63.4112 15.6272 63.5791 15.6272C63.8308 15.6272 64.0826 15.6104 64.3176 15.5601L64.4854 17.4399C63.9819 17.5574 63.4616 17.6246 62.9245 17.6246C62.0852 17.6246 61.4642 17.3896 61.0278 16.9532C60.5914 16.5168 60.3732 15.8118 60.3732 14.8551V11.1122H59.2319V9.36656H60.3732V7.35242H62.9412V7.31885ZM67.4899 13.462C67.4899 14.1334 67.5906 14.6705 67.8088 15.0565C68.027 15.4426 68.3794 15.6272 68.8998 15.6272C69.4033 15.6272 69.7558 15.4426 69.9572 15.0397C70.1754 14.6537 70.2761 14.1166 70.2761 13.4452V13.2774C70.2929 12.7235 70.1922 12.1864 69.9572 11.6996C69.739 11.2968 69.3865 11.1122 68.8662 11.1122C68.3627 11.1122 68.0102 11.3136 67.8088 11.7164C67.5906 12.1192 67.4899 12.6395 67.4899 13.2941V13.462ZM64.9554 13.3109C64.905 12.2199 65.2743 11.1625 65.996 10.3401C66.6842 9.56798 67.6577 9.18193 68.883 9.18193C70.125 9.18193 71.0817 9.56798 71.7699 10.3401C72.4749 11.1625 72.8609 12.2199 72.8106 13.3109V13.4788C72.8106 14.704 72.4581 15.6943 71.7699 16.4496C71.0817 17.2217 70.125 17.591 68.883 17.591C67.6409 17.591 66.6674 17.2049 65.9792 16.4496C65.2743 15.6272 64.905 14.553 64.9554 13.4788V13.3109ZM76.2682 9.33299L76.3689 10.4743C76.6374 10.0715 76.9563 9.75261 77.3592 9.53441C77.762 9.29943 78.1984 9.18193 78.6516 9.19872C79.4572 9.19872 80.0783 9.45049 80.5147 9.97081C80.9678 10.4911 81.186 11.3136 81.186 12.4381V17.4567H78.6516V12.4214C78.6516 11.9514 78.5509 11.6325 78.3662 11.4311C78.1816 11.2464 77.8963 11.1457 77.5102 11.1457C77.0906 11.1289 76.6878 11.3136 76.4192 11.6325V17.4567H73.9016V9.34978H76.2682V9.33299ZM86.1039 11.1289C85.7347 11.1289 85.4661 11.2464 85.2815 11.515C85.0968 11.7668 84.9961 12.1192 84.9458 12.5556L84.9626 12.5892H87.1445V12.4046C87.1445 11.985 87.0606 11.6828 86.8928 11.4646C86.7249 11.2296 86.4732 11.1289 86.1039 11.1289ZM86.2885 17.591C85.0801 17.591 84.1401 17.2217 83.4184 16.4664C82.6967 15.7111 82.3106 14.6873 82.3442 13.6466V13.3613C82.3442 12.1192 82.6631 11.1122 83.3177 10.3401C83.9723 9.56798 84.8954 9.16515 86.1039 9.18193C87.2117 9.18193 88.0677 9.51762 88.6887 10.1722C89.3433 10.9107 89.679 11.8675 89.6287 12.841V14.1669H84.9793L84.9626 14.2173C85.0297 14.6369 85.1808 14.9726 85.4829 15.2412C85.7682 15.5097 86.1375 15.644 86.6242 15.644C87.3963 15.6608 88.1684 15.4929 88.8734 15.1404L89.4776 16.6846C89.058 16.97 88.588 17.1882 88.1013 17.3392C87.5306 17.5071 86.9264 17.591 86.2885 17.591ZM97.6852 14.0327H97.7356L98.6084 9.33299H100.941L99.028 17.4399H96.8796L95.5536 13.1431H95.5033L94.1773 17.4399H92.0289L90.1154 9.33299H92.4485L93.338 14.0662H93.3884L94.7144 9.33299H96.3089L97.6852 14.0327ZM106.078 15.1572C106.078 14.9558 105.96 14.788 105.742 14.6201C105.356 14.4019 104.936 14.2676 104.5 14.2005C103.728 14.083 102.989 13.7977 102.351 13.3277C101.865 12.9417 101.613 12.3542 101.63 11.7332C101.63 11.0282 101.965 10.3568 102.536 9.92045C103.14 9.4337 103.963 9.18193 104.97 9.18193C106.061 9.18193 106.917 9.41692 107.555 9.90367C108.159 10.3233 108.511 11.0282 108.478 11.7668L108.461 11.8171H106.01C106.01 11.4982 105.926 11.2632 105.759 11.0954C105.591 10.9275 105.339 10.8436 104.987 10.8436C104.718 10.8436 104.5 10.9107 104.315 11.0618C104.147 11.1961 104.047 11.3975 104.047 11.6157C104.063 11.8339 104.164 12.0353 104.349 12.1528C104.735 12.371 105.171 12.5053 105.608 12.5556C106.396 12.6731 107.152 12.9752 107.806 13.4284C108.293 13.8313 108.562 14.4355 108.511 15.0733C108.511 15.795 108.192 16.3993 107.538 16.8693C106.782 17.3728 105.876 17.6246 104.97 17.5742C103.862 17.5742 102.989 17.2889 102.351 16.735C101.714 16.1811 101.395 15.5433 101.428 14.8551L101.445 14.8048H103.744C103.761 15.1908 103.862 15.4594 104.097 15.6272C104.315 15.795 104.634 15.879 105.037 15.879C105.373 15.879 105.641 15.8118 105.809 15.6776C105.994 15.5936 106.078 15.3922 106.078 15.1572Z" fill="black"/>
</svg>
