<svg width="114" height="31" viewBox="0 0 114 31" fill="none" xmlns="http://www.w3.org/2000/svg">
<path d="M18.5678 22.1629L13.3344 24.4404V24.2223C12.2926 24.4889 11.2265 24.6342 10.1362 24.6827C5.21776 24.6342 1.31693 22.066 1.26847 19.0131V17.8744C2.86757 20.2246 6.18691 21.7995 10.1362 21.7268C11.4446 21.7752 12.7287 21.6056 13.9886 21.2664L14.4489 20.1277C13.0437 20.5638 11.5899 20.8061 10.1362 20.8061C5.21776 20.8303 1.31693 18.2621 1.26847 15.1365V14.2158C2.86757 16.3964 6.16269 17.9471 10.1362 17.8744C11.8565 17.9713 13.5767 17.6563 15.1273 16.9537L15.3454 15.8149C13.7221 16.6145 11.9291 17.0264 10.112 16.9537C5.19353 17.0264 1.2927 14.4581 1.24424 11.2842V10.3635C2.84334 12.5925 6.16269 14.1432 10.112 14.2158C12.2441 14.1432 14.352 13.6101 16.2661 12.641L16.4842 11.2842C14.9093 12.4471 12.5833 13.2225 10.1362 13.3194C5.19353 13.1982 1.2927 10.63 1.24424 7.40755C1.2927 4.35473 5.19353 1.76224 10.112 1.73801C13.0437 1.78647 15.7573 2.82831 17.3806 4.47587L17.5502 4.71816H18.689L18.5194 4.45164C16.896 2.27105 13.6736 0.817322 10.0878 0.817322C4.6605 0.817322 0.299316 3.82169 0.299316 7.40755V19.2312C0.493147 22.7444 4.73319 25.6034 10.0878 25.6034C13.6736 25.5792 16.8476 24.1739 18.5678 22.1629Z" fill="white"/>
<path d="M16.4358 30.1826L18.2772 22.381L12.9953 24.6827L16.2177 11.1388H10.0151L11.6142 4.47589H31.3607L29.7616 11.1388H23.341L21.9599 14.8216L29.0832 11.8414L16.4358 30.1826ZM19.6582 20.7576L18.7375 25.3369L26.3211 13.8524L20.1185 16.6145L22.8806 10.1939H29.0832L30.222 5.37236H12.3169L11.1781 10.1939H17.3807L14.4005 23.0352L19.6582 20.7576Z" fill="white"/>
<path d="M43.6206 8.934C43.6206 9.2732 43.5237 9.58818 43.4025 9.87892C43.2572 10.1697 43.0633 10.4362 42.821 10.6542C42.2638 11.0904 41.5854 11.3327 40.8827 11.2842C40.4951 11.3084 40.1074 11.2357 39.744 11.0904C39.3805 10.945 39.0656 10.7027 38.7991 10.412C38.2903 9.83046 38.048 9.00669 38.048 7.96485V7.55296C38.0237 6.94724 38.1449 6.36574 38.3872 5.80848C38.6052 5.32391 38.9444 4.93624 39.3805 4.6455C39.9136 4.35475 40.5193 4.20938 41.125 4.25784C41.7307 4.3063 42.3122 4.52435 42.7968 4.88779C43.3056 5.34813 43.5964 6.00231 43.6448 6.68072H42.2395C42.2395 6.31729 42.1184 5.97809 41.8761 5.71157C41.6096 5.49351 41.2462 5.39659 40.907 5.42082C40.7131 5.39659 40.4951 5.44505 40.3012 5.54197C40.1074 5.63888 39.962 5.76002 39.8409 5.92963C39.5986 6.26883 39.4775 6.80186 39.4775 7.5045V8.0133C39.4775 8.7644 39.5986 9.29743 39.8167 9.63663C39.9378 9.80624 40.0832 9.95161 40.277 10.0243C40.4708 10.1212 40.6647 10.1454 40.8827 10.1454C41.2462 10.1697 41.5854 10.0728 41.8519 9.85469C42.0942 9.6124 42.2153 9.2732 42.2153 8.934H43.6206Z" fill="white"/>
<path d="M50.1865 7.94059C50.2107 8.54631 50.0896 9.15203 49.8231 9.70929C49.605 10.1939 49.2416 10.6058 48.8055 10.8965C48.3451 11.163 47.8121 11.3084 47.279 11.3084C46.746 11.3084 46.213 11.163 45.7526 10.8965C45.2923 10.6058 44.9288 10.2181 44.7108 9.73352C44.4685 9.17626 44.3231 8.59477 44.3473 7.98905V7.64984C44.3231 7.04412 44.4685 6.4384 44.7108 5.85691C44.9288 5.37234 45.2923 4.96045 45.7526 4.6697C46.213 4.40318 46.746 4.25781 47.279 4.25781C47.8121 4.25781 48.3451 4.40318 48.8055 4.6697C49.2658 4.96045 49.605 5.37234 49.8473 5.85691C50.0896 6.41417 50.2349 7.01989 50.2107 7.62561V7.94059H50.1865ZM48.757 7.62561C48.757 6.89875 48.6358 6.36572 48.3693 5.97806C48.2482 5.80845 48.0786 5.66308 47.8848 5.56617C47.6909 5.46925 47.4729 5.4208 47.279 5.4208C47.061 5.4208 46.8429 5.46925 46.6733 5.56617C46.4795 5.66308 46.3099 5.80845 46.1887 5.97806C45.9222 6.34149 45.8011 6.89875 45.8011 7.60139V7.94059C45.7768 8.49785 45.898 9.07934 46.1887 9.56392C46.3099 9.73352 46.4795 9.87889 46.6733 9.97581C46.8671 10.0727 47.0852 10.1212 47.3033 10.1212C47.5213 10.1212 47.7394 10.0727 47.9332 9.97581C48.127 9.87889 48.2966 9.73352 48.4178 9.56392C48.6601 9.20049 48.8055 8.64322 48.8055 7.94059V7.62561H48.757Z" fill="white"/>
<path d="M52.7061 11.1873H51.3008V4.33051H52.7061V11.1873Z" fill="white"/>
<path d="M59.5875 11.1873H58.1822L55.4443 6.6807V11.1873H54.0391V4.33051H55.4443L58.2064 8.83706V4.33051H59.6117V11.1873H59.5875Z" fill="white"/>
<path d="M65.8379 5.49349H63.73V11.2115H62.349V5.49349H60.2896V4.35474H65.8622V5.49349H65.8379Z" fill="white"/>
<path d="M70.7808 8.23134H68.0672V10.0727H71.2412V11.2115H66.6377V4.35474H71.2169V5.49349H68.043V7.11682H70.7566V8.23134H70.7808Z" fill="white"/>
<path d="M73.4946 10.0485H76.499V11.1873H72.0894V4.33051H73.4946V10.0485Z" fill="white"/>
<path d="M81.4175 8.23134H78.7039V10.0727H81.8779V11.2115H77.2744V4.35474H81.8537V5.49349H78.6797V7.11682H81.3933V8.23134H81.4175Z" fill="white"/>
<path d="M88.1528 10.3392C87.8621 10.6784 87.4986 10.9207 87.0867 11.0419C86.6022 11.2115 86.0691 11.3084 85.5361 11.2842C84.9788 11.3084 84.4458 11.163 83.9855 10.8965C83.5251 10.63 83.1617 10.2423 82.9436 9.75774C82.6771 9.22471 82.556 8.61899 82.5802 8.01327V7.55292C82.556 6.9472 82.6771 6.34148 82.9194 5.78422C83.1375 5.29964 83.4767 4.91198 83.9128 4.64546C84.3731 4.37894 84.9062 4.23357 85.4392 4.2578C86.263 4.2578 86.8929 4.45163 87.3533 4.83929C87.8378 5.27541 88.1286 5.88113 88.177 6.53531H86.796C86.7718 6.1961 86.6264 5.90536 86.3841 5.66307C86.1418 5.46924 85.8269 5.37233 85.4876 5.39655C85.2696 5.39655 85.0515 5.42078 84.8577 5.5177C84.6639 5.61461 84.4943 5.75999 84.3731 5.92959C84.1308 6.29302 83.9855 6.82605 83.9855 7.52869V7.96481C83.9855 8.69167 84.1308 9.22471 84.3974 9.58814C84.5427 9.78197 84.7123 9.92734 84.9304 10.0243C85.1484 10.1212 85.3665 10.1696 85.6088 10.1454C86.1418 10.1454 86.5053 10.0243 86.7475 9.8062V8.61899H85.4634V7.57715H88.1528V10.3392Z" fill="white"/>
<path d="M91.8118 8.69169H90.6973V11.2115H89.292V4.35474H91.836C92.6356 4.35474 93.2655 4.52434 93.7016 4.88777C93.9197 5.0816 94.0893 5.29966 94.2104 5.56618C94.3316 5.83269 94.38 6.12344 94.3558 6.41418C94.38 6.82607 94.2589 7.23796 94.0408 7.57717C93.8228 7.91637 93.4836 8.15866 93.1201 8.32826L94.5981 11.1388V11.2115H93.0717L91.8118 8.69169ZM90.6973 7.52871H91.836C92.1268 7.55294 92.4417 7.45602 92.6598 7.26219C92.7567 7.16528 92.8294 7.04413 92.8779 6.92299C92.9263 6.80185 92.9505 6.65647 92.9505 6.5111C92.9505 6.36573 92.9263 6.24458 92.9021 6.09921C92.8536 5.97807 92.7809 5.85692 92.684 5.73578C92.5629 5.63886 92.4417 5.56618 92.2964 5.51772C92.151 5.46926 92.0056 5.44503 91.836 5.46926H90.6973V7.52871Z" fill="white"/>
<path d="M99.2981 9.78199H96.8268L96.3664 11.1873H94.8643L97.4083 4.33051H98.7166L101.285 11.1873H99.7827L99.2981 9.78199ZM97.2144 8.64323H98.9347L98.0625 6.07498L97.2144 8.64323Z" fill="white"/>
<path d="M103.344 8.78861V11.2115H101.939V4.35474H104.604C105.064 4.35474 105.525 4.45165 105.961 4.64548C106.324 4.81508 106.639 5.10583 106.857 5.44503C107.075 5.80846 107.172 6.22036 107.172 6.63225C107.197 6.92299 107.124 7.23796 107.003 7.50448C106.882 7.771 106.712 8.01329 106.47 8.20712C106.009 8.59478 105.379 8.78861 104.556 8.78861H103.344ZM103.344 7.62562H104.604C104.919 7.64985 105.21 7.55294 105.452 7.35911C105.549 7.26219 105.622 7.14105 105.694 7.0199C105.743 6.89876 105.767 6.75339 105.767 6.60802C105.767 6.46264 105.743 6.31727 105.694 6.1719C105.646 6.02652 105.573 5.90538 105.476 5.78424C105.379 5.68732 105.234 5.59041 105.089 5.54195C104.943 5.49349 104.798 5.46926 104.653 5.46926H103.368V7.62562H103.344Z" fill="white"/>
<path d="M113.714 11.1873H112.309V8.25557H109.547V11.1873H108.142V4.33051H109.547V7.11682H112.309V4.33051H113.714V11.1873Z" fill="white"/>
<path d="M42.4576 18.5285H40.7131V23.2774H39.5259V18.5285H37.8057V17.5836H42.4576V18.5285Z" fill="white"/>
<path d="M44.1534 19.4977C44.2988 19.3281 44.4684 19.1827 44.6622 19.0858C44.856 18.9889 45.0741 18.9405 45.2922 18.9405C46.2129 18.9405 46.6732 19.4735 46.6974 20.5396V23.2532H45.5587V20.5638C45.5829 20.37 45.5102 20.1761 45.4133 20.0308C45.3406 19.9581 45.2679 19.9096 45.171 19.8854C45.0741 19.8612 44.9772 19.8369 44.8803 19.8612C44.7349 19.8612 44.5895 19.8854 44.4684 19.9581C44.3472 20.0308 44.2261 20.1277 44.1534 20.2488V23.2532H43.0146V17.2202H44.1534V19.4977Z" fill="white"/>
<path d="M49.4842 23.3743C49.1934 23.3743 48.9269 23.3501 48.6604 23.2532C48.3939 23.1563 48.1516 23.0109 47.9578 22.817C47.7639 22.6232 47.5943 22.3809 47.4974 22.1144C47.4005 21.8479 47.3521 21.5814 47.3521 21.2906V21.1695C47.3521 20.7818 47.4247 20.3942 47.5943 20.0307C47.7397 19.7158 47.982 19.4492 48.297 19.2554C48.6119 19.0616 48.9754 18.9647 49.3388 18.9889C49.6053 18.9647 49.8476 19.0131 50.0899 19.11C50.3322 19.207 50.5503 19.3523 50.7199 19.5462C51.0591 19.9096 51.2287 20.4426 51.2287 21.0968V21.5572H48.5393C48.5635 21.8237 48.6846 22.0417 48.8785 22.2356C49.0723 22.4052 49.3146 22.5021 49.5811 22.4778C49.7749 22.4778 49.9688 22.4536 50.1626 22.3567C50.3322 22.284 50.5018 22.1386 50.6229 21.9933L51.1802 22.6232C51.0106 22.8655 50.7683 23.0593 50.5018 23.1805C50.1626 23.3016 49.8234 23.3743 49.4842 23.3743ZM49.363 19.8854C49.2661 19.8854 49.1692 19.9096 49.0723 19.9338C48.9754 19.9823 48.9027 20.0307 48.83 20.1034C48.6846 20.2973 48.5877 20.5153 48.5635 20.7576H50.1384V20.6607C50.1384 20.4426 50.0657 20.2488 49.9445 20.0792C49.8718 20.0065 49.7749 19.9581 49.678 19.9096C49.5569 19.8854 49.46 19.8854 49.363 19.8854Z" fill="white"/>
<path d="M54.1841 23.2775V19.8612H53.5542V19.0374H54.1841V18.674C54.1599 18.4802 54.2084 18.2621 54.2811 18.0683C54.3537 17.8744 54.4507 17.7048 54.596 17.5595C54.911 17.2929 55.3229 17.1476 55.7348 17.1718C55.9286 17.1718 56.1225 17.196 56.3163 17.2445V18.1167C56.1951 18.0925 56.0982 18.0683 55.9771 18.0925C55.541 18.0925 55.3471 18.2863 55.3471 18.6982V19.0374H56.1951V19.8612H55.3229V23.2775H54.1841Z" fill="white"/>
<path d="M59.2966 22.8656C59.1512 23.0352 58.9816 23.1805 58.7878 23.2532C58.5939 23.3501 58.3759 23.3744 58.1578 23.3744C57.964 23.3986 57.7701 23.3501 57.6005 23.3017C57.4309 23.229 57.2613 23.1321 57.116 22.9867C56.8495 22.6717 56.7283 22.2598 56.7525 21.848V19.0616H57.8913V21.7995C57.8913 22.2356 58.0851 22.4537 58.497 22.4537C58.6424 22.4779 58.812 22.4295 58.9574 22.381C59.1027 22.3083 59.2239 22.2114 59.2966 22.066V19.0616H60.4353V23.3017H59.3693L59.2966 22.8656Z" fill="white"/>
<path d="M62.6158 17.9955V19.0374H63.3426V19.8612H62.6158V21.9691C62.6158 22.0902 62.64 22.2114 62.7127 22.3083C62.7611 22.3567 62.8096 22.381 62.8823 22.4052C62.9307 22.4294 63.0034 22.4294 63.0761 22.4294C63.1972 22.4294 63.2942 22.4294 63.4153 22.4052V23.2532C63.1972 23.3259 62.955 23.3501 62.7369 23.3501C61.9373 23.3501 61.5255 22.9382 61.5255 22.1387V19.8612H60.8955V19.0374H61.5255V17.9955H62.6158Z" fill="white"/>
<path d="M66.5168 22.8656C66.3714 23.0352 66.2018 23.1805 66.008 23.2532C65.8141 23.3501 65.5961 23.3744 65.378 23.3744C65.1842 23.3986 64.9904 23.3501 64.8208 23.3017C64.6512 23.229 64.4816 23.1321 64.3362 22.9867C64.0697 22.6717 63.9485 22.2598 63.9728 21.848V19.0616H65.1115V21.7995C65.1115 22.2356 65.3053 22.4537 65.7172 22.4537C65.8626 22.4779 66.0322 22.4295 66.1776 22.381C66.3229 22.3083 66.4441 22.2114 66.5168 22.066V19.0616H67.6555V23.3017H66.5895L66.5168 22.8656Z" fill="white"/>
<path d="M70.8537 20.1035C70.7084 20.0792 70.5872 20.0792 70.4418 20.0792C70.0057 20.0792 69.7392 20.2246 69.5938 20.5154V23.3017H68.4551V19.0616H69.5211L69.5454 19.5704C69.6423 19.4008 69.7634 19.2555 69.933 19.1343C70.1026 19.0374 70.2965 18.9647 70.4903 18.9889C70.6114 18.9889 70.7326 19.0132 70.8537 19.0374V20.1035Z" fill="white"/>
<path d="M73.2762 23.3743C72.9854 23.3743 72.7189 23.3501 72.4524 23.2532C72.1859 23.1563 71.9436 23.0109 71.7498 22.817C71.5559 22.6232 71.3863 22.3809 71.2894 22.1144C71.1925 21.8479 71.144 21.5814 71.144 21.2906V21.1695C71.144 20.7818 71.2167 20.3942 71.3863 20.0307C71.5317 19.7158 71.774 19.4492 72.089 19.2554C72.4039 19.0616 72.7674 18.9647 73.1308 18.9889C73.3973 18.9647 73.6396 19.0131 73.8819 19.11C74.1242 19.207 74.3423 19.3523 74.5119 19.5462C74.8511 19.9096 75.0207 20.4426 75.0207 21.0968V21.5572H72.307C72.3313 21.8237 72.4524 22.0417 72.6462 22.2356C72.8401 22.4052 73.0823 22.5021 73.3489 22.4778C73.5427 22.4778 73.7365 22.4536 73.9304 22.3567C74.1 22.284 74.2696 22.1386 74.3907 21.9933L74.948 22.6232C74.7784 22.8655 74.5361 23.0593 74.2696 23.1805C73.9304 23.3016 73.6154 23.3743 73.2762 23.3743ZM73.1308 19.8854C73.0339 19.8854 72.937 19.9096 72.8401 19.9338C72.7431 19.9823 72.6705 20.0307 72.5978 20.1034C72.4524 20.2973 72.3555 20.5153 72.3313 20.7576H73.9061V20.6607C73.9061 20.4426 73.8334 20.2488 73.7123 20.0792C73.6396 20.0065 73.5427 19.9581 73.4458 19.9096C73.3489 19.8854 73.252 19.8854 73.1308 19.8854Z" fill="white"/>
<path d="M77.4922 21.1211C77.4922 20.7334 77.5649 20.3458 77.7345 20.0066C77.8798 19.6916 78.1221 19.4251 78.4371 19.2312C78.7521 19.0374 79.1155 18.9647 79.5032 18.9647C79.7697 18.9647 80.012 18.989 80.2543 19.0859C80.4966 19.1828 80.7146 19.3039 80.9084 19.4978C81.2961 19.8854 81.4899 20.3942 81.5142 20.9273V21.218C81.5384 21.7995 81.3446 22.3568 80.9811 22.7929C80.5935 23.1805 80.0604 23.3744 79.5274 23.3744C78.9701 23.3744 78.4613 23.1563 78.0737 22.7929C77.686 22.3568 77.4922 21.7753 77.5164 21.1938V21.1211H77.4922ZM78.6067 21.218C78.5825 21.533 78.6552 21.8722 78.8248 22.1387C78.8975 22.2356 78.9944 22.3083 79.1155 22.381C79.2367 22.4294 79.3578 22.4537 79.479 22.4779C79.6001 22.4779 79.7212 22.4537 79.8424 22.4052C79.9635 22.3568 80.0604 22.2598 80.1331 22.1629C80.3027 21.8479 80.3996 21.5087 80.3754 21.1453C80.3996 20.8303 80.3027 20.4911 80.1331 20.2246C80.0604 20.1277 79.9635 20.0308 79.8424 19.9823C79.7212 19.9339 79.6001 19.9096 79.479 19.9096C79.3578 19.9096 79.2367 19.9339 79.1155 19.9823C78.9944 20.0308 78.8975 20.1277 78.8248 20.2246C78.6794 20.5154 78.5825 20.8546 78.6067 21.218Z" fill="white"/>
<path d="M82.5074 23.2775V19.8612H81.8774V19.0374H82.5074V18.674C82.4832 18.4802 82.5316 18.2621 82.6043 18.0683C82.677 17.8744 82.7739 17.7048 82.9193 17.5595C83.2343 17.2929 83.6461 17.1476 84.058 17.1718C84.2519 17.1718 84.4457 17.196 84.6395 17.2445V18.1167C84.5184 18.0925 84.4215 18.0683 84.3003 18.0925C83.8642 18.0925 83.6704 18.2863 83.6704 18.6982V19.0374H84.5184V19.8612H83.6704V23.2775H82.5074Z" fill="white"/>
<path d="M88.1526 19.0374L88.1768 19.5219C88.3222 19.3523 88.516 19.207 88.7099 19.11C88.9279 19.0131 89.146 18.9647 89.3883 18.9889C89.6306 18.9647 89.8486 19.0131 90.0425 19.1343C90.2363 19.2554 90.4059 19.425 90.5028 19.6431C90.6482 19.425 90.842 19.2554 91.0601 19.1585C91.2781 19.0374 91.5204 18.9889 91.7869 19.0131C91.9808 18.9889 92.1746 19.0374 92.3442 19.0858C92.5138 19.1585 92.6834 19.2554 92.8045 19.4008C93.0468 19.7642 93.168 20.1761 93.1437 20.6122V23.3259H92.005V20.6122C92.0292 20.4184 91.9808 20.2488 91.8596 20.0792C91.7869 20.0065 91.7142 19.9581 91.6173 19.9338C91.5204 19.9096 91.4477 19.8854 91.3508 19.9096C91.2054 19.9096 91.0358 19.9338 90.9147 20.0307C90.7936 20.1277 90.6966 20.2488 90.6482 20.3942V23.3016H89.5094V20.588C89.5337 20.3942 89.4852 20.2003 89.3641 20.055C89.2914 19.9823 89.2187 19.9581 89.146 19.9096C89.0491 19.8854 88.9764 19.8611 88.8795 19.8854C88.7341 19.8854 88.5887 19.9096 88.4676 19.9823C88.3464 20.055 88.2495 20.1519 88.1768 20.2973V23.3016H87.0381V19.0616H88.1526V19.0374Z" fill="white"/>
<path d="M93.8467 21.1211C93.8467 20.7334 93.9194 20.3458 94.089 20.0066C94.2343 19.6916 94.4766 19.4251 94.7916 19.2312C95.1066 19.0374 95.47 18.9647 95.8577 18.9647C96.1242 18.9647 96.3665 18.989 96.6088 19.0859C96.851 19.1828 97.0691 19.3039 97.2629 19.4978C97.6506 19.8854 97.8444 20.3942 97.8687 20.9273V21.218C97.8929 21.7995 97.6991 22.3568 97.3356 22.7929C96.948 23.1805 96.4149 23.3744 95.8819 23.3744C95.3489 23.3744 94.8158 23.1563 94.4282 22.7929C94.0405 22.3568 93.8467 21.7753 93.8709 21.1938V21.1211H93.8467ZM94.9854 21.218C94.9612 21.533 95.0339 21.8722 95.2035 22.1387C95.2762 22.2356 95.3731 22.3083 95.4942 22.381C95.6154 22.4294 95.7365 22.4537 95.8577 22.4779C95.9788 22.5021 96.1 22.4537 96.2211 22.4052C96.3422 22.3568 96.4392 22.2598 96.5118 22.1629C96.6814 21.8479 96.7784 21.5087 96.7541 21.1453C96.7784 20.8303 96.6814 20.4911 96.5118 20.2246C96.4392 20.1277 96.3422 20.0308 96.2211 19.9823C96.1 19.9339 95.9788 19.9096 95.8577 19.9096C95.7365 19.9096 95.6154 19.9339 95.4942 19.9823C95.3731 20.0308 95.2762 20.1277 95.2035 20.2246C95.0339 20.5154 94.9612 20.8546 94.9854 21.218Z" fill="white"/>
<path d="M99.6131 19.0374L99.6374 19.522C99.7827 19.3281 99.9766 19.1828 100.17 19.0858C100.388 18.9889 100.607 18.9405 100.849 18.9405C101.043 18.9162 101.212 18.9647 101.406 19.0132C101.576 19.0858 101.745 19.1828 101.866 19.3281C102.109 19.6673 102.23 20.0792 102.206 20.5153V23.2532H101.067V20.5396C101.091 20.3457 101.018 20.1519 100.921 20.0065C100.849 19.9581 100.776 19.9096 100.679 19.8612C100.582 19.8369 100.485 19.8127 100.413 19.8369C100.267 19.8369 100.122 19.8612 100.001 19.9338C99.8796 20.0065 99.7585 20.1035 99.71 20.2488V23.2532H98.5713V19.0132H99.6131V19.0374Z" fill="white"/>
<path d="M105.04 23.3743C104.75 23.3743 104.483 23.3501 104.217 23.2532C103.95 23.1563 103.708 23.0109 103.514 22.817C103.32 22.6232 103.15 22.3809 103.054 22.1144C102.957 21.8479 102.908 21.5814 102.908 21.2906V21.1695C102.908 20.7818 102.981 20.3942 103.15 20.0307C103.296 19.7158 103.538 19.4492 103.853 19.2554C104.168 19.0616 104.532 18.9647 104.895 18.9889C105.161 18.9647 105.404 19.0131 105.646 19.11C105.888 19.207 106.106 19.3523 106.276 19.5462C106.615 19.9096 106.785 20.4426 106.785 21.0968V21.5572H104.071C104.095 21.8237 104.217 22.0417 104.41 22.2356C104.604 22.4052 104.847 22.5021 105.113 22.4778C105.307 22.4778 105.501 22.4536 105.695 22.3567C105.864 22.284 106.034 22.1386 106.155 21.9933L106.712 22.6232C106.543 22.8655 106.3 23.0593 106.034 23.1805C105.695 23.3016 105.355 23.3743 105.04 23.3743ZM104.895 19.8854C104.798 19.8854 104.701 19.9096 104.604 19.9338C104.507 19.9823 104.435 20.0307 104.362 20.1034C104.217 20.2973 104.12 20.5153 104.095 20.7576H105.67V20.6607C105.67 20.4426 105.598 20.2488 105.476 20.0792C105.404 20.0065 105.307 19.9581 105.21 19.9096C105.113 19.8854 104.992 19.8854 104.895 19.8854Z" fill="white"/>
<path d="M108.941 21.6784L109.717 19.0374H110.928L109.232 23.9316L109.135 24.1497C109.038 24.392 108.869 24.61 108.651 24.7554C108.433 24.9008 108.166 24.9735 107.9 24.9735C107.73 24.9735 107.56 24.9492 107.391 24.9008V24.0528H107.56C107.73 24.0528 107.9 24.0285 108.045 23.9559C108.166 23.8832 108.239 23.762 108.287 23.6409L108.433 23.3017L106.955 19.0374H108.166L108.941 21.6784Z" fill="white"/>
</svg>
