<svg width="81" height="25" viewBox="0 0 81 25" fill="none" xmlns="http://www.w3.org/2000/svg">
<path fill-rule="evenodd" clip-rule="evenodd" d="M57.2908 22.3696V20.1238L63.8316 11.6737H57.312V9.53589H67.0161V11.8047L60.3637 20.23H67.2446V22.3696H57.289H57.2908Z" fill="white"/>
<path d="M47.105 22.368H44.4359V9.53603H47.0412V11.3266H47.1315L49.1152 9.31641H51.0812C54.2834 9.31641 55.7517 11.7712 55.7517 14.7875V22.3697H53.0029V14.6546C53.0029 13.0801 52.1226 11.4524 50.2806 11.4524H47.1315L47.105 22.368Z" fill="white"/>
<path d="M39.9301 20.4197H36.0336C34.8327 20.4197 34.1384 19.4863 34.1384 18.4714C34.1384 17.1094 35.3924 16.3354 36.7544 16.176L39.9301 15.8289V20.4197ZM35.9007 22.5557H37.8596L39.9318 20.5632H40.0753V22.368H42.6807V14.6015C42.6789 11.185 40.5447 9.31641 37.075 9.31641C34.2996 9.31641 32.1371 10.519 31.8696 13.3475H34.5653C34.5653 12.1201 35.4987 11.3461 37.1281 11.3461C38.8621 11.3461 39.9035 12.2264 39.9301 13.909L36.3807 14.2827C34.0587 14.5218 31.3099 15.4817 31.3099 18.312C31.3099 20.7934 33.4176 22.5557 35.9007 22.5557Z" fill="white"/>
<path d="M76.5236 20.4197H72.6271C71.4262 20.4197 70.7319 19.4863 70.7319 18.4714C70.7319 17.1094 71.9859 16.3354 73.3479 16.176L76.5236 15.8289V20.4197ZM72.4942 22.5557H74.4531L76.5253 20.5632H76.6688V22.368H79.2742V14.6015C79.2724 11.185 77.1382 9.31641 73.6685 9.31641C70.8931 9.31641 68.7306 10.5172 68.4649 13.3457H71.1606C71.1606 12.1183 72.094 11.3444 73.7234 11.3444C75.4573 11.3444 76.4988 12.2246 76.5253 13.9072L72.976 14.2809C70.654 14.5218 67.9052 15.4817 67.9052 18.3103C67.9052 20.7916 70.0129 22.5539 72.496 22.5539L72.4942 22.5557Z" fill="white"/>
<path d="M7.12006 8.44066L12.6177 1.88745L21.7922 7.18492L26.0677 23.143H15.6074L7.12006 8.44066Z" fill="white"/>
<path d="M4.67052 13.0259L1.50018 16.8055L3.1987 23.1408H9.04347L12.3325 17.4502L4.67052 13.0259Z" fill="white"/>
</svg>
