<svg width="79" height="19" viewBox="0 0 79 19" fill="none" xmlns="http://www.w3.org/2000/svg">
<g clip-path="url(#clip0_1366_1378)">
<path d="M18.0017 1.46045L11.3013 11.5229L11.1527 11.7288V17.5399H8.03711V11.7288L7.91559 11.5229L1.19147 1.46045H4.57716L9.61012 8.97275L14.6161 1.46045H18.0017Z" fill="white"/>
<path d="M32.9859 1.46045C34.802 1.46045 36.2737 2.84006 36.2737 4.53805V14.4623C36.2737 16.1635 34.802 17.5399 32.9859 17.5399H22.7512C20.9352 17.5399 19.4634 16.1603 19.4634 14.4623V4.53805C19.4634 2.83685 20.9352 1.46045 22.7512 1.46045H32.9859ZM33.1817 14.1182V4.88537C33.1817 4.49624 32.8374 4.19717 32.4458 4.19717H23.2913C22.8997 4.19717 22.5791 4.49624 22.5791 4.88537V14.1182C22.5791 14.5073 22.8964 14.8064 23.2913 14.8064H32.4458C32.8374 14.8064 33.1817 14.5073 33.1817 14.1182Z" fill="white"/>
<path d="M53.7126 13.1052V1.46045H56.7374V17.5399H53.7126L43.3404 5.89515V17.5399H40.2925V1.46045H43.3404L53.7126 13.1052Z" fill="white"/>
<path d="M66.9097 1.46045H70.7071L78.6631 17.5399H75.4512L73.4877 13.6133H64.1046L62.1656 17.5399H58.9292L66.9097 1.46045ZM65.4581 10.8798H72.1377L68.7997 4.14893L65.4616 10.8798H65.4581Z" fill="white"/>
</g>
<defs>
<clipPath id="clip0_1366_1378">
<rect width="78" height="18" fill="white" transform="translate(0.926819 0.5)"/>
</clipPath>
</defs>
</svg>
