<svg width="117" height="21" viewBox="0 0 117 21" fill="none" xmlns="http://www.w3.org/2000/svg">
<g clip-path="url(#clip0_628_143)">
<path d="M18.2403 12.4152C17.9021 12.6219 17.5075 12.6594 17.2068 12.4903C16.831 12.2648 16.6055 11.7575 16.6055 11.0622V8.93879C16.6055 7.92406 16.2109 7.1912 15.5344 7.00329C14.3881 6.66505 13.5237 8.07439 13.2043 8.60054L11.1748 11.8514V7.8489C11.1561 6.92813 10.8554 6.38318 10.2917 6.21406C9.91583 6.10132 9.35209 6.15769 8.80715 6.9845L4.27847 14.2379C3.67715 13.0916 3.3577 11.8138 3.3577 10.5173C3.3577 6.1389 6.87165 2.58736 11.1748 2.58736C15.478 2.58736 18.992 6.1389 18.992 10.5173V10.536V10.5548C19.0296 11.4004 18.7665 12.0769 18.2403 12.4152ZM20.7208 10.5173V10.4985V10.4797C20.702 5.16175 16.4176 0.820984 11.1748 0.820984C5.9133 0.820984 1.62891 5.16175 1.62891 10.5173C1.62891 15.854 5.9133 20.2135 11.1748 20.2135C13.5989 20.2135 15.8914 19.2927 17.6578 17.6203C18.0148 17.2821 18.0336 16.7371 17.6954 16.3801C17.3759 16.0231 16.831 16.0043 16.474 16.3237C16.474 16.3237 16.474 16.3237 16.4552 16.3425C15.027 17.6955 13.1103 18.4659 11.1373 18.4659C8.82594 18.4659 6.75891 17.4512 5.33078 15.8352L9.40847 9.29582V12.3212C9.40847 13.7681 9.9722 14.2379 10.442 14.3694C10.9118 14.501 11.6258 14.407 12.3963 13.1856L14.6324 9.5589C14.7076 9.44615 14.764 9.3334 14.8391 9.25824V11.0998C14.8391 12.4527 15.3841 13.5426 16.3236 14.0688C17.1692 14.5574 18.2403 14.501 19.1235 13.956C20.2134 13.242 20.7959 12.0018 20.7208 10.5173ZM34.025 7.21C34.2505 7.34153 34.4572 7.66098 34.4572 7.94285C34.4572 8.39384 34.0813 8.76967 33.6491 8.76967C33.5364 8.76967 33.4424 8.73208 33.3485 8.71329C32.8411 8.33747 32.2022 8.09318 31.5257 8.09318C29.9285 8.09318 28.8386 9.38978 28.8386 11.0058C28.8386 12.6219 29.9473 13.8997 31.5257 13.8997C32.315 13.8997 33.029 13.5802 33.5552 13.0729C33.6867 12.9789 33.8558 12.9225 34.025 12.9225C34.4572 12.9225 34.7954 13.2608 34.7954 13.693C34.7954 13.9748 34.6263 14.2191 34.4196 14.3507C33.6491 15.0083 32.6156 15.4405 31.5445 15.4405C29.1017 15.4405 27.1098 13.4299 27.1098 10.9494C27.1098 8.46901 29.1017 6.45835 31.5445 6.45835C32.4465 6.43956 33.3109 6.72142 34.025 7.21ZM38.4973 9.08912C40.1697 9.08912 41.5602 10.4985 41.5602 12.246C41.5602 13.9748 40.1509 15.4593 38.4973 15.4593C36.7497 15.4593 35.3028 13.9936 35.3028 12.246C35.3028 10.4985 36.7497 9.08912 38.4973 9.08912ZM38.4785 13.8997C39.2113 13.8997 39.8314 13.2044 39.8314 12.2648C39.8314 11.3253 39.2113 10.724 38.4785 10.724C37.6892 10.724 37.0316 11.3065 37.0316 12.2648C37.0316 13.1856 37.6892 13.8997 38.4785 13.8997ZM42.6125 14.4822V10.0475C42.6125 9.5589 42.9884 9.16428 43.4769 9.16428C43.9467 9.16428 44.3413 9.5589 44.3413 10.0475V14.4822C44.3413 14.9708 43.9467 15.3654 43.4769 15.3654C43.0072 15.3654 42.6125 14.952 42.6125 14.4822ZM42.481 7.49186C42.481 6.90934 42.932 6.45835 43.4769 6.45835C44.0407 6.45835 44.4917 6.92813 44.4917 7.49186C44.4917 8.0556 44.0407 8.50659 43.4769 8.50659C42.9132 8.4878 42.481 8.03681 42.481 7.49186ZM47.6486 12.0769V14.4822C47.6486 14.9708 47.254 15.3654 46.7842 15.3654C46.3144 15.3654 45.9198 14.9708 45.9198 14.4822V9.84076C45.9198 9.46494 46.2205 9.16428 46.5963 9.16428C46.9721 9.16428 47.254 9.48373 47.254 9.84076C47.9492 9.18307 48.5694 9.08912 49.1519 9.08912C50.8807 9.08912 51.6511 10.3857 51.6511 11.8702V14.4822C51.6511 14.9708 51.2565 15.3654 50.7867 15.3654C50.3169 15.3654 49.9223 14.9708 49.9223 14.4822V12.0769C49.9223 11.3253 49.8284 10.6864 48.7385 10.6864C47.968 10.6864 47.6486 11.3253 47.6486 12.0769ZM57.2509 12.9977C57.0442 12.9977 56.9126 12.9037 56.7999 12.7722L54.7892 10.5924V14.4822C54.7892 14.9708 54.3946 15.3654 53.9248 15.3654C53.4551 15.3654 53.0605 14.9708 53.0605 14.4822V6.7778C53.1168 6.64626 53.2484 6.5523 53.3799 6.5523C53.5302 6.5523 53.6618 6.68384 53.7557 6.7778L56.969 10.3857C57.063 10.4985 57.1757 10.5548 57.2509 10.5548C57.3073 10.5548 57.4388 10.4985 57.5328 10.3857L60.7461 6.7778C60.84 6.68384 60.9528 6.5523 61.1219 6.5523C61.2722 6.5523 61.4038 6.64626 61.4413 6.7778V14.4822C61.4413 14.9708 61.0655 15.3654 60.5769 15.3654C60.1072 15.3654 59.7125 14.9708 59.7125 14.4822V10.5924L57.7019 12.7722C57.5516 12.9037 57.42 12.9977 57.2509 12.9977ZM65.5566 13.8997C66.327 13.8997 66.9847 13.2044 66.9847 12.2648C66.9847 11.3253 66.3083 10.7052 65.5566 10.7052C64.805 10.7052 64.1848 11.3441 64.1848 12.2648C64.1848 13.1668 64.7862 13.8997 65.5566 13.8997ZM67.3981 14.6889L67.3606 14.4822C67.0223 15.1399 65.9512 15.4405 65.2747 15.4405C63.6587 15.4405 62.4561 13.9748 62.4561 12.2273C62.4561 10.4985 63.6775 9.07032 65.3687 9.07032C65.6506 9.07032 66.6277 9.14549 67.3794 10.0287L67.4169 9.82197C67.4169 9.44615 67.6988 9.14549 68.0746 9.14549C68.4505 9.14549 68.7511 9.46494 68.7511 9.82197V14.6701C68.7511 15.0459 68.4505 15.3466 68.0746 15.3466C67.68 15.3654 67.3981 15.0459 67.3981 14.6889ZM73.5053 10.6864H73.3174C72.2275 10.7427 72.0208 11.3629 72.0208 12.0769V14.4822C72.0208 14.9708 71.6262 15.3654 71.1564 15.3654C70.6866 15.3654 70.292 14.9708 70.292 14.4822V9.84076C70.292 9.46494 70.5927 9.16428 70.9685 9.16428C71.3443 9.16428 71.6262 9.48373 71.6262 9.84076C72.2651 9.23945 72.7912 9.10791 73.3174 9.08912H73.4865C73.8999 9.08912 74.2757 9.44615 74.2757 9.89714C74.2945 10.3105 73.9187 10.6864 73.5053 10.6864ZM80.1762 14.0688C80.2513 14.2003 80.3077 14.3319 80.3077 14.4822C80.3077 14.9332 79.8943 15.3466 79.4433 15.3466C79.1427 15.3466 78.8796 15.1211 78.6729 14.858L76.681 12.5467V14.4634C76.681 14.952 76.2864 15.3466 75.8166 15.3466C75.3468 15.3466 74.9522 14.952 74.9522 14.4634V7.4167C74.9522 6.92813 75.328 6.53351 75.8166 6.53351C76.3052 6.53351 76.681 6.92813 76.681 7.4167V11.8138L78.6729 9.61527C78.8796 9.38978 79.1239 9.14549 79.4245 9.14549C79.8567 9.14549 80.2513 9.54011 80.2513 9.9911C80.2513 10.1226 80.2138 10.273 80.1386 10.3857L78.5601 12.1145L80.1762 14.0688ZM83.5586 10.7052C83.0888 10.7052 82.3184 10.9494 82.3184 11.6823H84.8176C84.7988 10.9494 84.0096 10.7052 83.5586 10.7052ZM85.8135 12.791H82.3184C82.3184 13.8245 83.3143 13.9936 83.7465 13.9936C84.066 13.9936 84.5169 13.9372 84.874 13.7681C84.9867 13.693 85.1558 13.6366 85.325 13.6366C85.7008 13.6366 86.0202 13.956 86.0202 14.3507C86.0202 14.6137 85.8511 14.8392 85.6444 14.9708C85.1183 15.3654 84.423 15.4593 83.7653 15.4593C82.0177 15.4593 80.5708 14.5198 80.5708 12.3212C80.5708 10.5924 81.454 9.08912 83.521 9.08912C85.1934 9.08912 86.4524 10.179 86.49 12.1145C86.49 12.4715 86.1894 12.791 85.8135 12.791ZM90.6241 15.4405H90.1543C88.8389 15.4405 88.0685 14.858 88.0685 12.8098V10.6864H87.6175C87.2041 10.6864 86.8471 10.3105 86.8471 9.89714C86.8471 9.44615 87.2229 9.08912 87.6175 9.08912H88.0685V7.45428C88.0685 6.96571 88.4443 6.5711 88.9329 6.5711C89.4027 6.5711 89.7973 6.96571 89.7973 7.45428V9.08912H90.5113C90.9247 9.08912 91.2818 9.44615 91.2818 9.89714C91.2818 10.3105 90.906 10.6864 90.5113 10.6864H89.7973V12.4715C89.7973 13.6554 89.8536 13.8997 90.3798 13.8997H90.6241C91.0375 13.8997 91.3945 14.2379 91.3945 14.6701C91.3945 15.0835 91.0375 15.4405 90.6241 15.4405ZM98.9862 7.21C99.2117 7.34153 99.4184 7.66098 99.4184 7.94285C99.4184 8.39384 99.0425 8.76967 98.6103 8.76967C98.4976 8.76967 98.4036 8.73208 98.3097 8.71329C97.8023 8.33747 97.1634 8.09318 96.4869 8.09318C94.8897 8.09318 93.7998 9.38978 93.7998 11.0058C93.7998 12.6219 94.9085 13.8997 96.4869 13.8997C97.2762 13.8997 97.9902 13.5802 98.5164 13.0729C98.6479 12.9789 98.817 12.9225 98.9862 12.9225C99.4184 12.9225 99.7566 13.2608 99.7566 13.693C99.7566 13.9748 99.5875 14.2191 99.3808 14.3507C98.6104 15.0083 97.5768 15.4405 96.5057 15.4405C94.0629 15.4405 92.071 13.4299 92.071 10.9494C92.071 8.46901 94.0629 6.45835 96.5057 6.45835C97.4077 6.43956 98.2909 6.72142 98.9862 7.21ZM103.365 13.8997C104.135 13.8997 104.793 13.2044 104.793 12.2648C104.793 11.3253 104.116 10.7052 103.365 10.7052C102.594 10.7052 101.993 11.3441 101.993 12.2648C101.993 13.1668 102.613 13.8997 103.365 13.8997ZM105.206 14.6889L105.168 14.4822C104.83 15.1399 103.759 15.4405 103.083 15.4405C101.467 15.4405 100.264 13.9748 100.264 12.2273C100.264 10.4985 101.485 9.07032 103.177 9.07032C103.458 9.07032 104.436 9.14549 105.187 10.0287L105.225 9.82197C105.225 9.44615 105.507 9.14549 105.883 9.14549C106.258 9.14549 106.559 9.46494 106.559 9.82197V14.6701C106.559 15.0459 106.258 15.3466 105.883 15.3466C105.488 15.3654 105.206 15.0459 105.206 14.6889ZM111.276 13.8997C112.046 13.8997 112.647 13.1668 112.647 12.2648C112.647 11.3253 112.027 10.7052 111.276 10.7052C110.505 10.7052 109.847 11.3253 109.847 12.2648C109.847 13.2044 110.505 13.8997 111.276 13.8997ZM109.847 14.9332V17.1318C109.847 17.6203 109.453 18.0149 108.983 18.0149C108.513 18.0149 108.119 17.6203 108.119 17.1318V9.84076C108.119 9.46494 108.419 9.16428 108.795 9.16428C109.171 9.16428 109.453 9.48373 109.453 9.91593C110.092 9.25824 110.881 9.08912 111.482 9.08912C113.155 9.08912 114.395 10.4985 114.395 12.246C114.395 13.9748 113.211 15.4593 111.576 15.4593C111.069 15.4405 110.317 15.2902 109.847 14.9332Z" fill="white"/>
</g>
<defs>
<clipPath id="clip0_628_143">
<rect width="115.616" height="20.7074" fill="white" transform="translate(0.421875 0.146301)"/>
</clipPath>
</defs>
</svg>
