<svg width="119" height="27" viewBox="0 0 119 27" fill="none" xmlns="http://www.w3.org/2000/svg">
<path d="M14.9712 18.5046L12.4507 19.7429V10.4453L14.9712 9.20698V18.5046ZM18.3931 16.8239L15.8725 18.0623V8.76471L18.3931 7.52635V16.8239ZM19.2943 16.3816V7.08407L21.8149 5.8457V15.1433L19.2943 16.3816Z" fill="white"/>
<path d="M11.5687 17.2367V19.738L2.20947 15.1433V12.642L11.5687 17.2367ZM11.5687 13.8361V16.3374L2.20947 11.7427V9.24138L11.5687 13.8361ZM11.5687 10.4404V12.9417L2.20947 8.34701V5.8457L11.5687 10.4404Z" fill="white"/>
<path d="M27.7681 2.89862V17.2574H35.115C38.5611 17.2574 40.7628 15.7019 40.7628 13.2369C40.7628 11.4182 39.638 9.9823 37.8671 9.62333C39.3508 9.19257 40.3081 7.97207 40.3081 6.53619C40.3081 4.33451 38.1542 2.92258 34.8039 2.92258H27.7681V2.89862ZM32.0039 6.10542H34.5885C35.4261 6.10542 35.9526 6.56011 35.9526 7.30198C35.9526 8.06778 35.4261 8.54642 34.5885 8.54642H32.0039V6.10542ZM32.0039 11.4421H34.5885C35.6654 11.4421 36.3594 11.9207 36.3594 12.7104C36.3594 13.548 35.6893 14.0745 34.5885 14.0745H32.0039V11.4421Z" fill="white"/>
<path d="M47.583 2.89862H43.3232V17.2574H47.583V2.89862Z" fill="white"/>
<path d="M61.2008 6.29688V2.89862H50.1685V6.29688H53.5428V17.2574H57.8265V6.29688H61.2008Z" fill="white"/>
<path d="M70.4256 2.77905C65.9744 2.77905 62.6958 5.86619 62.6958 10.0542C62.6958 14.29 65.9026 17.4489 70.282 17.4489C72.4598 17.4489 74.805 16.372 76.3606 14.6729L73.8956 12.0405C72.9145 13.0456 71.5743 13.6917 70.4735 13.6917C68.535 13.6917 67.0513 12.0883 67.0513 9.98239C67.0513 7.87644 68.535 6.29697 70.4735 6.29697C71.67 6.29697 72.9862 7.06277 73.8956 8.21147L76.3606 5.31579C74.9007 3.76026 72.5794 2.77905 70.4256 2.77905Z" fill="white"/>
<path d="M85.2386 2.77905C80.7395 2.77905 77.4131 5.84226 77.4131 10.0781C77.4131 14.3139 80.7395 17.4489 85.2386 17.4489C89.7377 17.4489 93.0641 14.29 93.0641 10.0781C93.0641 5.86619 89.7377 2.77905 85.2386 2.77905ZM85.3104 6.34482C87.201 6.34482 88.7087 7.9243 88.7087 10.102C88.7087 12.2798 87.201 13.8832 85.3104 13.8832C83.4198 13.8832 81.7925 12.2559 81.7925 10.102C81.7925 7.94823 83.3959 6.34482 85.3104 6.34482Z" fill="white"/>
<path d="M99.7412 2.89862H95.4814V17.2574H99.7412V2.89862Z" fill="white"/>
<path d="M115.929 17.2574V2.89862H112.028V10.9156L105.95 2.89862H102.312V17.2574H106.213V9.26436L112.291 17.2574H115.929Z" fill="white"/>
<path d="M31.8287 23.3543V19.7791H30.5725L29.7857 21.6426L28.9989 19.7791H27.7427V23.3543H28.778V21.3941L29.3854 23.0092H30.1584L30.7658 21.3941V23.3543H31.8287Z" fill="white"/>
<path d="M34.9764 22.8573L35.1558 23.3681H36.412L34.9626 19.7928H33.7478L32.2432 23.3681H33.4579L33.6374 22.8573H34.9764ZM34.6865 22.0014H33.9411L34.3138 20.9523L34.6865 22.0014Z" fill="white"/>
<path d="M39.0341 21.4769V22.3052C38.8546 22.3742 38.689 22.4294 38.5647 22.4294C38.0954 22.4294 37.7641 22.0705 37.7641 21.5736C37.7641 21.0904 38.0954 20.7315 38.5647 20.7315C38.8546 20.7315 39.2135 20.8834 39.4482 21.1042L40.1108 20.2898C39.7243 19.9585 39.1169 19.7376 38.5647 19.7376C37.3914 19.7376 36.5493 20.5107 36.5493 21.5598C36.5493 22.6227 37.3638 23.3957 38.4819 23.3957C38.9926 23.3957 39.6553 23.2025 40.0418 22.9402V21.4631H39.0341V21.4769Z" fill="white"/>
<path d="M43.1199 22.8573L43.2994 23.3681H44.5556L43.1061 19.7928H41.8914L40.3867 23.3681H41.6015L41.7809 22.8573H43.1199ZM42.83 22.0014H42.0846L42.4573 20.9523L42.83 22.0014Z" fill="white"/>
<path d="M48.0629 20.5245V19.7791H44.8742V20.6901H46.4755L44.8052 22.6227V23.3681H48.0906V22.4571H46.3927L48.0629 20.5245Z" fill="white"/>
<path d="M49.8429 19.7791H48.6558V23.3543H49.8429V19.7791Z" fill="white"/>
<path d="M54.0259 23.3543V19.7791H52.963V21.615L51.5549 19.7791H50.561V23.3543H51.6378V21.5322L53.0458 23.3543H54.0259Z" fill="white"/>
<path d="M57.7668 20.6763V19.7791H54.7437V23.3543H57.822V22.4571H55.9308V22.0153H57.6011V21.118H55.9308V20.6763H57.7668Z" fill="white"/>
</svg>
