<svg width="90" height="19" viewBox="0 0 90 19" fill="none" xmlns="http://www.w3.org/2000/svg">
<g clip-path="url(#clip0_1366_1384)">
<path d="M1.52356 14.4097V1.15869H7.12633C8.03937 1.15869 8.82197 1.31284 9.47417 1.62114C10.1263 1.92944 10.6244 2.37411 10.9682 2.95513C11.3121 3.5243 11.484 4.21798 11.484 5.03617C11.484 5.61719 11.324 6.1745 11.0038 6.7081C10.6836 7.22984 10.156 7.66858 9.42077 8.02432V6.67252C10.1204 6.94525 10.6599 7.27134 11.0393 7.65079C11.4188 8.03024 11.6797 8.44522 11.822 8.89582C11.9642 9.33457 12.0354 9.79702 12.0354 10.2832C12.0354 11.5876 11.6026 12.6014 10.737 13.3247C9.87137 14.048 8.66784 14.4097 7.12633 14.4097H1.52356ZM4.28048 12.0085H7.44648C8.0038 12.0085 8.44847 11.8484 8.78049 11.5282C9.11252 11.2081 9.27849 10.7931 9.27849 10.2832C9.27849 9.76147 9.11252 9.34049 8.78049 9.02032C8.44847 8.70022 8.0038 8.54009 7.44648 8.54009H4.28048V12.0085ZM4.28048 6.13893H7.32198C7.74886 6.13893 8.0868 6.02035 8.33582 5.7832C8.59667 5.53419 8.72709 5.2081 8.72709 4.80493C8.72709 4.40178 8.59667 4.08162 8.33582 3.84446C8.0868 3.59545 7.74886 3.47095 7.32198 3.47095H4.28048V6.13893Z" fill="white"/>
<path d="M16.6143 14.6232C15.9146 14.6232 15.3099 14.5105 14.8 14.2852C14.2901 14.0599 13.8988 13.7398 13.6261 13.3248C13.3533 12.8979 13.217 12.394 13.217 11.8129C13.217 11.2675 13.3415 10.7872 13.5905 10.3722C13.8395 9.9453 14.219 9.58957 14.7288 9.30502C15.2506 9.0204 15.8968 8.81887 16.6676 8.7003L19.638 8.22007V10.1765L17.1478 10.6212C16.7684 10.6924 16.4778 10.8169 16.2763 10.9948C16.0747 11.1607 15.9739 11.4038 15.9739 11.724C15.9739 12.0204 16.0866 12.2516 16.3119 12.4177C16.5372 12.5836 16.8158 12.6667 17.1478 12.6667C17.5866 12.6667 17.9719 12.5718 18.3039 12.3821C18.636 12.1924 18.8909 11.9374 19.0688 11.6173C19.2585 11.2852 19.3533 10.9236 19.3533 10.5323V8.00662C19.3533 7.63901 19.2051 7.33071 18.9087 7.0817C18.6241 6.83269 18.2328 6.70818 17.7348 6.70818C17.2605 6.70818 16.8395 6.83862 16.4719 7.09948C16.1162 7.36036 15.8553 7.70423 15.6894 8.13112L13.5549 7.11727C13.7447 6.57182 14.047 6.10344 14.4621 5.71213C14.877 5.32083 15.3751 5.01846 15.9561 4.80502C16.5372 4.59158 17.1715 4.48486 17.8593 4.48486C18.6774 4.48486 19.4008 4.63309 20.0292 4.92952C20.6577 5.22597 21.1439 5.64099 21.4878 6.17458C21.8435 6.69632 22.0213 7.30699 22.0213 8.00662V14.4097H19.5312V12.8446L20.136 12.7378C19.8514 13.1647 19.5372 13.5204 19.1933 13.805C18.8494 14.0777 18.4641 14.2793 18.0372 14.4097C17.6103 14.552 17.136 14.6232 16.6143 14.6232Z" fill="white"/>
<path d="M28.7448 14.6232C27.7724 14.6232 26.8949 14.4038 26.1124 13.9651C25.3416 13.5145 24.725 12.9038 24.2626 12.133C23.812 11.3623 23.5867 10.4967 23.5867 9.53625C23.5867 8.5758 23.812 7.71609 24.2626 6.95719C24.7132 6.18644 25.3297 5.5817 26.1124 5.14297C26.8949 4.70423 27.7724 4.48486 28.7448 4.48486C29.4681 4.48486 30.1381 4.60937 30.7546 4.85838C31.3712 5.10739 31.8989 5.45719 32.3377 5.90779C32.7763 6.34652 33.0906 6.86826 33.2803 7.47301L30.9681 8.46907C30.802 7.98289 30.5175 7.59751 30.1143 7.31293C29.723 7.02834 29.2665 6.88605 28.7448 6.88605C28.2823 6.88605 27.8673 6.9987 27.4997 7.22399C27.144 7.44929 26.8594 7.76352 26.6459 8.16667C26.4444 8.56987 26.3436 9.03232 26.3436 9.55402C26.3436 10.0758 26.4444 10.5382 26.6459 10.9414C26.8594 11.3446 27.144 11.6587 27.4997 11.884C27.8673 12.1093 28.2823 12.222 28.7448 12.222C29.2783 12.222 29.7408 12.0797 30.1321 11.7952C30.5234 11.5105 30.802 11.1252 30.9681 10.639L33.2803 11.6528C33.1024 12.222 32.7942 12.7319 32.3554 13.1825C31.9167 13.633 31.389 13.9888 30.7724 14.2497C30.1558 14.4987 29.4799 14.6232 28.7448 14.6232Z" fill="white"/>
<path d="M34.8514 14.4097V0.945312H37.5194V9.57178L36.5234 9.2516L40.8099 4.69828H44.1004L40.5787 8.61132L44.0826 14.4097H41.0589L38.1241 9.48283L39.6716 9.09155L36.7012 12.3287L37.5194 10.7813V14.4097H34.8514Z" fill="white"/>
<path d="M45.2733 17.9671V4.6983H47.7633V6.54811L47.5321 6.0145C47.8523 5.52834 48.2851 5.15482 48.8305 4.89395C49.3878 4.62122 50.0223 4.48486 50.7337 4.48486C51.6586 4.48486 52.4946 4.71016 53.2416 5.16075C53.9886 5.61134 54.5815 6.22201 55.0203 6.99277C55.459 7.75166 55.6784 8.60542 55.6784 9.55402C55.6784 10.4908 55.459 11.3446 55.0203 12.1153C54.5934 12.886 54.0064 13.4967 53.2594 13.9473C52.5123 14.3979 51.6645 14.6232 50.7159 14.6232C50.0519 14.6232 49.4353 14.5046 48.8661 14.2675C48.3088 14.0185 47.8582 13.6568 47.5143 13.1825L47.9412 12.6311V17.9671H45.2733ZM50.3958 12.222C50.8938 12.222 51.3325 12.1093 51.7119 11.884C52.0914 11.6587 52.3878 11.3446 52.6013 10.9414C52.8147 10.5382 52.9215 10.0758 52.9215 9.55402C52.9215 9.03232 52.8147 8.5758 52.6013 8.18445C52.3878 7.7813 52.0914 7.46707 51.7119 7.24178C51.3325 7.00462 50.8938 6.88605 50.3958 6.88605C49.9215 6.88605 49.4946 6.9987 49.1151 7.22399C48.7476 7.44929 48.457 7.76352 48.2436 8.16667C48.042 8.56987 47.9412 9.03232 47.9412 9.55402C47.9412 10.0758 48.042 10.5382 48.2436 10.9414C48.457 11.3446 48.7476 11.6587 49.1151 11.884C49.4946 12.1093 49.9215 12.222 50.3958 12.222Z" fill="white"/>
<path d="M60.2469 14.6232C59.5473 14.6232 58.9425 14.5105 58.4327 14.2852C57.9228 14.0599 57.5315 13.7398 57.2587 13.3248C56.986 12.8979 56.8497 12.394 56.8497 11.8129C56.8497 11.2675 56.9742 10.7872 57.2232 10.3722C57.4722 9.9453 57.8516 9.58957 58.3615 9.30502C58.8832 9.0204 59.5295 8.81887 60.3003 8.7003L63.2706 8.22007V10.1765L60.7805 10.6212C60.4011 10.6924 60.1105 10.8169 59.9089 10.9948C59.7074 11.1607 59.6066 11.4038 59.6066 11.724C59.6066 12.0204 59.7192 12.2516 59.9445 12.4177C60.1698 12.5836 60.4485 12.6667 60.7805 12.6667C61.2192 12.6667 61.6046 12.5718 61.9366 12.3821C62.2686 12.1924 62.5236 11.9374 62.7014 11.6173C62.8911 11.2852 62.986 10.9236 62.986 10.5323V8.00662C62.986 7.63901 62.8378 7.33071 62.5413 7.0817C62.2568 6.83269 61.8654 6.70818 61.3674 6.70818C60.8931 6.70818 60.4722 6.83862 60.1046 7.09948C59.7489 7.36036 59.488 7.70423 59.322 8.13112L57.1876 7.11727C57.3773 6.57182 57.6797 6.10344 58.0947 5.71213C58.5097 5.32083 59.0077 5.01846 59.5887 4.80502C60.1698 4.59158 60.8042 4.48486 61.4919 4.48486C62.3101 4.48486 63.0334 4.63309 63.6619 4.92952C64.2903 5.22597 64.7765 5.64099 65.1204 6.17458C65.4762 6.69632 65.654 7.30699 65.654 8.00662V14.4097H63.1639V12.8446L63.7686 12.7378C63.484 13.1647 63.1698 13.5204 62.826 13.805C62.4821 14.0777 62.0967 14.2793 61.6698 14.4097C61.2429 14.552 60.7686 14.6232 60.2469 14.6232Z" fill="white"/>
<path d="M72.3774 14.6232C71.4051 14.6232 70.5276 14.4038 69.745 13.9651C68.9743 13.5145 68.3576 12.9038 67.8952 12.133C67.4446 11.3623 67.2194 10.4967 67.2194 9.53625C67.2194 8.5758 67.4446 7.71609 67.8952 6.95719C68.3458 6.18644 68.9624 5.5817 69.745 5.14297C70.5276 4.70423 71.4051 4.48486 72.3774 4.48486C73.1007 4.48486 73.7707 4.60937 74.3873 4.85838C75.0039 5.10739 75.5316 5.45719 75.9702 5.90779C76.409 6.34652 76.7232 6.86826 76.913 7.47301L74.6007 8.46907C74.4347 7.98289 74.1502 7.59751 73.747 7.31293C73.3557 7.02834 72.8992 6.88605 72.3774 6.88605C71.915 6.88605 71.5 6.9987 71.1323 7.22399C70.7766 7.44929 70.4921 7.76352 70.2786 8.16667C70.077 8.56987 69.9762 9.03232 69.9762 9.55402C69.9762 10.0758 70.077 10.5382 70.2786 10.9414C70.4921 11.3446 70.7766 11.6587 71.1323 11.884C71.5 12.1093 71.915 12.222 72.3774 12.222C72.911 12.222 73.3735 12.0797 73.7648 11.7952C74.1561 11.5105 74.4347 11.1252 74.6007 10.639L76.913 11.6528C76.7352 12.222 76.427 12.7319 75.9882 13.1825C75.5494 13.633 75.0217 13.9888 74.4051 14.2497C73.7885 14.4987 73.1126 14.6232 72.3774 14.6232Z" fill="white"/>
<path d="M78.4843 14.4097V0.945312H81.152V9.57178L80.156 9.2516L84.4423 4.69828H87.7333L84.2112 8.61132L87.7153 14.4097H84.6912L81.7565 9.48283L83.3045 9.09155L80.3337 12.3287L81.152 10.7813V14.4097H78.4843Z" fill="white"/>
</g>
<defs>
<clipPath id="clip0_1366_1384">
<rect width="88.5" height="18" fill="white" transform="translate(0.634216 0.5)"/>
</clipPath>
</defs>
</svg>
