<svg width="101" height="25" viewBox="0 0 101 25" fill="none" xmlns="http://www.w3.org/2000/svg">
<g clip-path="url(#clip0_1366_1393)">
<path d="M23.4026 9.339C25.1638 9.355 26.5538 10.7783 26.5289 12.5389C26.5039 14.3001 25.0684 15.6895 23.3142 15.6505C21.5799 15.6121 20.2199 14.2195 20.2244 12.4871C20.2289 10.7271 21.6458 9.323 23.4026 9.339Z" fill="#C74AE3"/>
<path d="M27.499 19.2319C24.7477 21.4475 19.8314 20.6546 17.2849 17.6729C14.4837 14.393 14.8108 9.47221 18.0235 6.55838C21.1971 3.68039 26.107 3.83911 29.1002 6.91677C32.0057 9.90419 32.1344 14.8608 29.4151 17.6582C28.7802 16.9932 28.1447 16.327 27.4785 15.6294C28.5095 14.1882 28.8289 12.539 28.2126 10.7682C27.2923 8.12441 24.3772 6.72926 21.7187 7.63035C19.0916 8.52056 17.6536 11.3486 18.474 14.0109C19.3034 16.7027 22.1168 18.2316 24.8169 17.4022C25.3544 17.2371 25.6527 17.3337 26.0002 17.7337C26.4597 18.2636 26.9915 18.7308 27.499 19.2319ZM1.84155 9.35125C1.84155 8.71255 1.96379 8.11225 2.20762 7.55227C2.45145 6.99229 2.7836 6.50206 3.20407 6.08224C3.62453 5.66241 4.11412 5.33026 4.6741 5.08643C5.23408 4.8426 5.83374 4.72036 6.47308 4.72036H13.5603V7.81146H6.47308C6.25741 7.81146 6.05645 7.85114 5.86958 7.92986C5.6827 8.00922 5.51951 8.11865 5.37935 8.25817C5.2392 8.39832 5.12976 8.56152 5.05105 8.74839C4.97169 8.93527 4.93265 9.13622 4.93265 9.35189C4.93265 9.56756 4.97169 9.77044 5.05105 9.96051C5.12976 10.1506 5.23984 10.3157 5.37935 10.4559C5.51951 10.596 5.6827 10.7054 5.86958 10.7842C6.05645 10.8635 6.25741 10.9026 6.47308 10.9026H9.56418C10.2035 10.9026 10.8045 11.0229 11.3683 11.2635C11.9322 11.5041 12.4237 11.8344 12.8441 12.2542C13.2646 12.674 13.5942 13.1662 13.8348 13.73C14.0754 14.2938 14.1958 14.8954 14.1958 15.5341C14.1958 16.1734 14.0754 16.7731 13.8348 17.3331C13.5942 17.8931 13.2639 18.3833 12.8441 18.8031C12.4243 19.2229 11.9322 19.5551 11.3683 19.7996C10.8045 20.044 10.2029 20.1656 9.56418 20.1656H2.70296V17.0745H9.56418C9.77985 17.0745 9.98017 17.0348 10.1677 16.9561C10.3546 16.8774 10.5178 16.7673 10.6579 16.6278C10.7981 16.4883 10.9075 16.3245 10.9863 16.1376C11.065 15.9507 11.1047 15.7498 11.1047 15.5341C11.1047 15.3184 11.065 15.1175 10.9863 14.9306C10.9069 14.7437 10.7974 14.5805 10.6579 14.4404C10.5178 14.3002 10.3546 14.1908 10.1677 14.1121C9.98081 14.0333 9.77985 13.9937 9.56418 13.9937H6.47308C5.83374 13.9937 5.23408 13.8714 4.6741 13.6276C4.11412 13.3838 3.62389 13.0516 3.20407 12.6311C2.78424 12.2113 2.45145 11.7192 2.20762 11.156C1.96379 10.5922 1.84155 9.99059 1.84155 9.35125ZM44.1941 20.1656H33.3798V4.71972H36.4709V17.0745H44.1935L44.1941 20.1656ZM44.582 9.35125C44.582 8.71255 44.7042 8.11225 44.948 7.55227C45.1919 6.99229 45.524 6.50206 45.9445 6.08224C46.3649 5.66241 46.8545 5.33026 47.4145 5.08579C47.9745 4.84196 48.5742 4.71972 49.2135 4.71972H56.3006V7.81082H49.2135C48.9978 7.81082 48.7969 7.8505 48.61 7.92922C48.423 8.00858 48.2598 8.11801 48.1198 8.25753C47.9795 8.39768 47.8702 8.56088 47.7915 8.74775C47.7121 8.93463 47.6731 9.13558 47.6731 9.35125C47.6731 9.56693 47.7121 9.7698 47.7915 9.95987C47.8702 10.15 47.9803 10.3151 48.1198 10.4552C48.2598 10.5954 48.423 10.7048 48.61 10.7835C48.7969 10.8629 48.9978 10.9019 49.2135 10.9019H52.3046C52.9439 10.9019 53.5449 11.0222 54.1087 11.2629C54.6725 11.5035 55.164 11.8337 55.5845 12.2536C56.005 12.6734 56.3345 13.1655 56.5752 13.7294C56.8158 14.2932 56.9361 14.8948 56.9361 15.5335C56.9361 16.1728 56.8158 16.7725 56.5752 17.3324C56.3345 17.8924 56.0043 18.3826 55.5845 18.8025C55.1647 19.2223 54.6725 19.5544 54.1087 19.7989C53.5449 20.0434 52.9433 20.165 52.3046 20.165H45.4434V17.0739H52.3046C52.5203 17.0739 52.7212 17.0342 52.9081 16.9555C53.095 16.8768 53.2582 16.7667 53.3983 16.6272C53.5385 16.487 53.6479 16.3238 53.7266 16.137C53.8053 15.9501 53.845 15.7491 53.845 15.5335C53.845 15.3178 53.8053 15.1168 53.7266 14.93C53.6473 14.7431 53.5378 14.5799 53.3983 14.4397C53.2582 14.2996 53.095 14.1901 52.9081 14.1114C52.7212 14.0327 52.5203 13.993 52.3046 13.993H49.2135C48.5742 13.993 47.9745 13.8708 47.4145 13.627C46.8545 13.3831 46.3643 13.051 45.9445 12.6305C45.5247 12.2107 45.1919 11.7185 44.948 11.1547C44.7036 10.5922 44.582 9.99059 44.582 9.35125ZM71.2941 18.5823C70.576 19.1999 69.7716 19.6741 68.8813 20.0043C67.9911 20.3346 67.0683 20.4997 66.1133 20.4997C65.3812 20.4997 64.6754 20.4043 63.997 20.2143C63.3186 20.0242 62.6831 19.7548 62.0905 19.4066C61.4979 19.0585 60.9578 18.6399 60.4695 18.1516C59.9811 17.6633 59.5625 17.1232 59.2145 16.5305C58.8662 15.9379 58.5969 15.3024 58.4068 14.624C58.2167 13.9457 58.1214 13.2398 58.1214 12.5076C58.1214 11.7755 58.2167 11.0677 58.4068 10.3855C58.5969 9.70324 58.8662 9.06582 59.2145 8.47384C59.5625 7.88122 59.9805 7.34108 60.4695 6.85277C60.9578 6.36447 61.4979 5.94656 62.0905 5.59777C62.6831 5.24962 63.3186 4.98019 63.997 4.79012C64.6754 4.60004 65.3812 4.50469 66.1133 4.50469C67.0683 4.50469 67.9911 4.66788 68.8813 4.99491C69.7716 5.32194 70.576 5.79745 71.2941 6.42207L69.657 9.1151C69.2045 8.6268 68.6694 8.25177 68.0518 7.98938C67.4342 7.72762 66.7879 7.59643 66.1133 7.59643C65.4311 7.59643 64.7919 7.7257 64.1961 7.98426C63.5996 8.24281 63.0793 8.59288 62.6345 9.03446C62.1891 9.47605 61.8377 9.99699 61.5792 10.596C61.3206 11.1957 61.1913 11.8331 61.1913 12.5076C61.1913 13.1828 61.3206 13.8164 61.5792 14.409C61.8377 15.0016 62.1891 15.52 62.6345 15.9654C63.0799 16.4109 63.6002 16.7622 64.1961 17.0208C64.7919 17.2793 65.4311 17.4086 66.1133 17.4086C66.7879 17.4086 67.4342 17.2774 68.0518 17.0156C68.6694 16.7539 69.2045 16.3782 69.657 15.8899L71.2941 18.5823ZM85.2642 20.1656H82.173V17.0745H75.9902V20.1656H72.9094V10.9026C72.9094 10.0482 73.0706 9.24566 73.3938 8.49496C73.7169 7.7449 74.1567 7.08957 74.7135 6.52894C75.2696 5.96896 75.9237 5.52738 76.6737 5.20419C77.4238 4.881 78.2262 4.71972 79.0813 4.71972C79.9357 4.71972 80.7382 4.881 81.4889 5.20419C82.239 5.52738 82.8942 5.96896 83.4548 6.52894C84.0148 7.08892 84.4565 7.74426 84.7797 8.49496C85.1029 9.24566 85.2642 10.0482 85.2642 10.9026V20.1656ZM82.173 13.9937V10.9026C82.173 10.4789 82.0924 10.0783 81.9305 9.70132C81.7691 9.32437 81.5483 8.99606 81.2681 8.71575C80.9878 8.43544 80.6595 8.21465 80.2826 8.05337C79.9056 7.8921 79.505 7.81082 79.0813 7.81082C78.6577 7.81082 78.257 7.89146 77.8801 8.05337C77.5031 8.21465 77.1748 8.43544 76.8945 8.71575C76.6142 8.99606 76.3934 9.32437 76.2321 9.70132C76.0709 10.0783 75.9896 10.4789 75.9896 10.9026V13.9937H82.173ZM100.301 20.1656H96.9943L91.0381 9.99763V20.1656H87.947V4.71972H91.2537L97.21 14.8986V4.71972H100.301V20.1656Z" fill="#F2FEFB"/>
</g>
<defs>
<clipPath id="clip0_1366_1393">
<rect width="100" height="24" fill="white" transform="translate(0.841553 0.5)"/>
</clipPath>
</defs>
</svg>
