<svg width="144" height="23" viewBox="0 0 144 23" fill="none" xmlns="http://www.w3.org/2000/svg">
<path d="M14.0581 0.186035C23.0993 0.186132 26.9981 5.08944 27.3569 8.86865C27.7157 12.1934 26.3528 15.0165 23.9849 16.4995C21.9757 17.7433 19.4878 18.628 16.7134 18.9868L17.4302 22.814L10.5181 18.7954C4.25117 17.743 0.160645 14.1307 0.160645 9.75342C0.160807 7.09853 1.8109 4.49114 4.29834 2.72119C6.8338 0.951153 10.3984 0.186035 14.0581 0.186035ZM9.27295 3.43896C7.90968 3.43902 6.78535 3.84553 5.92432 4.75439C5.0393 5.56765 4.6333 6.64439 4.6333 7.93604C4.63333 8.86884 4.94356 9.70626 5.58936 10.3521C6.23515 10.9978 7.00081 11.3559 7.95752 11.356C8.29239 11.356 8.72328 11.2841 9.24951 11.1167C9.70378 10.9254 10.1818 10.7581 10.5405 10.519C10.6598 10.4475 10.7796 10.4001 10.8276 10.3999C11.019 10.3999 11.0669 10.5196 11.0669 10.687C11.0668 10.7825 11.0434 10.8547 10.9956 10.9741C10.9718 10.9981 10.9716 11.0455 10.9478 11.0933L10.7798 11.6196C10.4688 12.4328 9.82292 13.198 8.93799 13.9155C7.98138 14.633 7.04888 15.1113 6.09229 15.2788C5.94877 15.3027 5.82859 15.3272 5.73291 15.3511C5.66143 15.3749 5.58999 15.3988 5.56592 15.3989C5.56592 15.3989 5.51814 15.4465 5.51807 15.5659C5.51807 15.8051 5.58989 15.853 5.75732 15.853H5.99658L6.8335 15.7339C8.84273 15.4229 10.4935 14.5377 11.8569 13.1265C13.2202 11.7153 13.8657 10.1123 13.8657 8.34229C13.8657 6.88331 13.4587 5.75897 12.5737 4.80225C11.6888 3.91742 10.6362 3.43896 9.27295 3.43896ZM19.3433 3.41553C18.0038 3.41556 16.8557 3.822 16.0425 4.53955C15.1577 5.37662 14.7506 6.42882 14.7505 7.72021C14.7505 8.72483 15.0378 9.61052 15.7075 10.2563C16.3533 10.9021 17.1189 11.2603 18.0757 11.2603C18.4345 11.2603 18.8414 11.2133 19.3677 11.022C19.8938 10.8307 20.3239 10.6625 20.6587 10.4233C20.7781 10.3756 20.8978 10.3044 20.9458 10.3042C21.1132 10.3042 21.1851 10.4239 21.1851 10.5913C21.185 10.6868 21.1615 10.759 21.1138 10.8784C21.09 10.9261 21.0897 10.9499 21.0659 10.9976L20.8979 11.5239C20.6109 12.361 19.9411 13.1262 19.0562 13.8198C18.0996 14.5373 17.167 14.9917 16.2104 15.1831C16.0669 15.207 15.9468 15.2315 15.8511 15.2554C15.7559 15.2792 15.7081 15.303 15.6841 15.3032C15.6841 15.3032 15.6363 15.3508 15.6362 15.4702C15.6362 15.7094 15.6841 15.7573 15.8755 15.7573H16.1147L16.9517 15.6382C18.9607 15.3511 20.6108 14.4658 21.9741 13.0308C23.3375 11.6195 23.9839 10.0166 23.9839 8.24658C23.936 6.85938 23.529 5.73552 22.644 4.77881C21.759 3.89379 20.6828 3.41553 19.3433 3.41553Z" fill="white"/>
<path d="M8.67572 4.01312C8.02989 4.01312 7.5515 4.25232 7.19271 4.73071C6.83392 5.20909 6.59473 5.85492 6.59473 6.62034C6.59473 7.67279 6.83392 8.58173 7.36015 9.2754C7.88638 9.99298 8.5322 10.28 9.36938 10.28C10.0152 10.28 10.6132 10.0408 11.0198 9.56243C11.4982 9.08404 11.6656 8.48605 11.6656 7.79239C11.6656 6.78777 11.3786 5.831 10.7806 5.06558C10.2066 4.37191 9.5129 4.01312 8.67572 4.01312Z" fill="white"/>
<path d="M17.2627 4.73071C17.6215 4.25232 18.1477 4.01312 18.7457 4.01312C19.5829 4.01312 20.2766 4.30015 20.8746 5.06558C21.4725 5.831 21.7596 6.78777 21.7596 7.79239C21.7596 8.50997 21.5921 9.08404 21.1138 9.56243C20.6354 10.0408 20.1091 10.28 19.4633 10.28C18.6261 10.28 17.9803 9.99298 17.4541 9.2754C16.9278 8.55782 16.6887 7.67279 16.6887 6.62034C16.6647 5.85492 16.9039 5.20909 17.2627 4.73071Z" fill="white"/>
<path d="M91.0303 2.72184C92.3217 2.31531 93.6847 2.07597 95.0479 2.19547C97.7029 2.19547 99.9042 2.84131 101.555 4.08512C103.205 5.32882 104.042 6.97906 104.042 9.05973C104.042 11.308 103.229 13.1979 101.507 14.7287C100.239 15.9007 98.5644 16.6423 96.5312 16.9054H92.7764C90.8389 16.6662 89.2355 15.9965 87.9678 15.0158C86.3176 13.6764 85.4805 11.8826 85.4805 9.70621C85.4805 8.74947 85.7194 7.81628 86.126 6.85953C86.5565 5.90275 87.131 5.13719 87.8486 4.49137C88.6619 3.72601 89.7387 3.12844 91.0303 2.72184ZM94.2832 2.93668C92.5132 2.93668 91.197 3.46331 90.1924 4.46793C89.2119 5.49645 88.7334 6.97932 88.7334 8.79703C88.7334 10.9737 89.3314 12.7681 90.5752 14.1076C91.7472 15.4709 93.3502 16.1159 95.3115 16.2355C97.0815 16.2355 98.5169 15.638 99.5693 14.5138C100.622 13.3896 101.172 11.8585 101.172 9.96891C101.172 8.89273 100.932 7.84051 100.454 6.78824C99.9757 5.73579 99.3294 4.89795 98.4922 4.29996C97.3203 3.4152 95.8855 2.93675 94.2832 2.93668Z" fill="white"/>
<path d="M43.9805 2.6497C43.9805 2.7693 44.0283 2.8889 44.1479 2.93674C44.2675 2.98458 44.5545 3.05633 44.9851 3.10417C45.7027 3.22377 46.2289 3.39121 46.5159 3.6304C46.803 3.8696 46.9226 4.34798 46.9226 4.99381V13.3417V14.2985C46.9226 14.8965 46.803 15.3509 46.6355 15.5901C46.4681 15.8293 46.0375 16.0685 45.3917 16.2359L45.0329 16.4751L45.0808 16.523C45.1286 16.6426 45.2482 16.7622 45.4396 16.7622H52.1848C52.7111 16.7622 53.022 16.6426 53.022 16.4751C53.022 16.2359 52.7828 16.1881 52.3762 16.1881C51.7304 16.1881 51.2041 16.0685 50.7736 15.7815C50.367 15.4944 50.1278 15.0639 50.0082 14.5377L49.8886 13.4852V4.6111C49.8886 4.01312 50.0082 3.60648 50.1278 3.43904C50.2952 3.27161 50.7258 3.08026 51.2998 3.03242C51.4673 3.03242 51.5869 2.98458 51.6586 2.91282C51.7064 2.86498 51.7064 2.79322 51.7064 2.67363C51.7064 2.50619 51.539 2.50619 51.2281 2.50619C50.7497 2.50619 44.3632 2.50619 44.2436 2.45835C44.0283 2.36267 43.9805 2.41051 43.9805 2.6497ZM52.5436 2.84106C52.5436 2.55402 52.7111 2.43443 53.0699 2.43443C53.1177 2.43443 55.103 2.43443 57.6385 2.41051C62.0396 2.38659 68.0195 2.36267 68.2587 2.36267C68.7371 2.36267 69.0241 2.5301 69.0241 2.84106L69.072 3.60648C69.072 3.65432 69.0959 3.75 69.1198 3.89352C69.1437 4.03703 69.1676 4.20447 69.1916 4.44366C69.1916 4.51542 69.2155 4.56326 69.2155 4.6111C69.2633 4.89813 69.3111 5.11341 69.3111 5.32868C69.3111 5.56788 69.1916 5.68748 68.9524 5.68748C68.7849 5.68748 68.5936 5.52004 68.5457 5.28084C68.3783 4.63502 68.0195 4.15663 67.4933 3.8696C66.9671 3.58256 66.2495 3.46296 65.2448 3.46296C63.8814 3.46296 63.116 3.5108 62.7572 3.70216C62.4702 3.86959 62.2788 4.30015 62.2788 4.94597V12.8155C62.2788 13.9875 62.518 14.8247 62.9247 15.3031C63.3313 15.7815 64.0967 16.0685 65.1731 16.1403C65.4601 16.1403 65.6515 16.2599 65.6515 16.4991C65.6515 16.6665 65.484 16.7382 65.2448 16.7382H64.8861L57.5428 16.7861C57.184 16.8339 57.0166 16.8339 56.897 16.8339C56.6099 16.8339 56.4903 16.7143 56.4903 16.5469C56.4903 16.3795 56.5382 16.3077 56.6099 16.2599C56.6339 16.2599 56.6578 16.2599 56.7056 16.2359C56.8013 16.212 56.9209 16.1881 57.0883 16.1881C57.7341 16.1403 58.2604 15.9489 58.6192 15.5901C58.978 15.2313 59.1454 14.7051 59.1454 14.1071V13.6287V4.34799C59.1454 3.82176 58.7388 3.51081 58.0212 3.51081C56.299 3.51081 55.1269 3.6304 54.4811 3.79783C54.0745 3.96527 53.7157 4.15663 53.5961 4.32406C53.4765 4.4915 53.2373 4.96989 52.9981 5.73531L52.8785 6.02235C52.8307 6.30938 52.6393 6.42897 52.4719 6.42897C52.1848 6.42897 52.0652 6.38114 52.0652 6.14194C52.0652 5.99843 52.1131 5.78315 52.137 5.52004C52.137 5.44828 52.1609 5.37652 52.1848 5.30476L52.2327 4.41974L52.4001 3.46296L52.5436 2.84106ZM69.6939 6.45289C70.2918 5.40044 71.0573 4.4915 72.0619 3.79783C73.6645 2.67362 75.602 2.1474 77.8025 2.1474C79.4052 2.1474 80.8164 2.43443 82.0124 2.98458L82.8496 3.39121C83.017 3.43905 83.2083 3.51081 83.3279 3.51081C83.4954 3.51081 83.6867 3.46296 83.7346 3.34337L84.0216 2.98458C84.0455 2.98458 84.0694 2.98457 84.0934 2.96065C84.1412 2.93673 84.189 2.91282 84.2608 2.91282C84.5478 2.91282 84.6674 3.15201 84.6674 3.6304L84.9066 6.59641C84.9545 6.83561 84.9545 7.00304 84.9545 7.1944C84.9545 7.48143 84.8349 7.60103 84.5957 7.60103C84.4282 7.60103 84.3565 7.55319 84.3086 7.36184C84.2608 7.0748 84.0216 6.64425 83.5911 6.11802C83.1844 5.59179 82.7539 5.11341 82.419 4.82637C80.8882 3.53473 79.2377 2.86498 77.3959 2.86498C75.7933 2.86498 74.4299 3.39121 73.4253 4.46758C72.4207 5.52004 71.8945 6.95521 71.8945 8.6774C71.8945 10.9258 72.7316 12.6959 74.3821 14.0593C75.6259 15.0161 76.9893 15.5423 78.4723 15.5423C79.3573 15.5423 80.2423 15.3748 81.247 15.0161C82.2516 14.6573 83.017 14.2985 83.5432 13.7722L84.3804 13.0547C84.5 12.9351 84.6196 12.8872 84.7392 12.8872C84.9066 12.8872 84.9784 12.9351 84.9784 13.1264C84.9784 13.4134 84.6196 13.844 83.9738 14.4898C82.2037 16.0924 79.9553 16.9057 77.3481 16.9057C74.8605 16.9057 72.8034 16.2599 71.2008 14.9443C69.5982 13.6526 68.8328 11.9304 68.8328 9.84946C68.8088 8.70132 69.1198 7.50535 69.6939 6.45289ZM133.104 2.6497C133.104 2.48227 132.937 2.41051 132.626 2.41051H126.885C126.646 2.41051 126.479 2.41051 126.479 2.57795C126.479 2.69755 126.598 2.81714 126.885 2.81714C128.057 2.86498 128.894 3.22377 129.301 3.77392C129.708 4.37191 129.899 5.42436 129.899 7.0748C129.899 8.39037 129.851 9.70594 129.803 11.1172C129.803 11.2368 129.803 11.3325 129.779 11.4521C129.779 11.8587 129.66 12.0979 129.492 12.0979C129.325 12.0979 128.894 11.8587 128.32 11.3325C128.32 11.3325 118.8 2.6497 118.633 2.53011C118.466 2.41051 118.274 2.41051 117.987 2.41051C117.868 2.36267 113.61 2.41051 113.61 2.41051C113.419 2.41051 113.275 2.45835 113.203 2.55403V2.86498C113.275 2.91282 113.371 2.93674 113.562 2.93674C115.523 3.05634 116.528 4.18055 116.528 6.30937V10.8062L116.48 13.2939C116.48 14.1789 116.361 14.7769 116.074 15.2552C115.787 15.7336 115.308 16.0207 114.71 16.1403C114.471 16.1881 114.351 16.3077 114.351 16.4273C114.351 16.5947 114.471 16.6665 114.71 16.6665H120.618C120.858 16.6665 121.025 16.5469 121.025 16.3795C121.025 16.212 120.905 16.1403 120.666 16.0924C119.255 15.9728 118.418 15.5662 118.131 14.8008C117.844 14.0832 117.724 12.6241 117.724 10.4953V6.47681V6.18978C117.724 5.90274 117.844 5.71139 118.011 5.71139C118.059 5.71139 118.25 5.75923 118.418 5.99843L130.186 16.5947C130.234 16.6187 130.258 16.6426 130.282 16.6665C130.33 16.7143 130.377 16.7383 130.449 16.7622H130.88C130.952 16.7143 131.023 16.6187 131.023 16.523L131.071 5.83099V5.30476C131.071 3.89352 131.597 3.05634 132.722 2.93674C132.745 2.93674 132.793 2.91282 132.817 2.91282C133.009 2.84106 133.104 2.81714 133.104 2.6497ZM132.626 6.14194C132.626 4.96989 133.104 4.01311 134.037 3.24769C134.779 2.6497 135.616 2.31483 136.573 2.12347H138.821C139.156 2.17131 139.491 2.26699 139.826 2.36267L140.711 2.6497C141.069 2.7693 141.356 2.81714 141.548 2.81714C141.667 2.81714 141.787 2.81714 141.907 2.7693L142.385 2.60186C142.505 2.55402 142.552 2.55403 142.624 2.55403C142.863 2.55403 142.911 2.67363 142.911 2.91282C142.911 2.91282 143.27 6.28546 143.27 6.3333C143.27 6.69209 143.15 6.81168 142.911 6.81168C142.744 6.81168 142.624 6.64425 142.552 6.40506C142.313 5.40044 141.667 4.56326 140.663 3.8696C139.658 3.15201 138.582 2.81714 137.482 2.81714C136.716 2.81714 136.07 3.05633 135.472 3.46296C134.874 3.86959 134.587 4.34799 134.587 4.94597C134.587 5.4722 134.826 5.90274 135.353 6.30937C135.712 6.59641 136.716 7.02696 138.438 7.55319C140.519 8.27077 141.859 8.91659 142.529 9.56242C143.294 10.3278 143.701 11.2607 143.701 12.3849V12.4328C143.701 13.6766 143.103 14.729 142.05 15.614C140.926 16.4991 139.682 16.9774 138.199 16.9774C137.601 16.9774 136.668 16.8578 135.353 16.4991C134.994 16.4273 134.731 16.3555 134.492 16.3077C134.324 16.2599 134.181 16.2359 134.061 16.212C133.654 16.1642 133.415 16.0924 133.343 16.0446C133.248 15.9967 132.554 13.4852 132.339 12.5763V11.9544C132.411 11.8108 132.53 11.7391 132.698 11.7391C132.817 11.7391 132.865 11.7869 132.937 11.9783C133.343 13.1503 134.061 14.155 135.137 14.9921C136.214 15.8293 137.266 16.2359 138.39 16.2359C139.275 16.2359 140.041 15.9489 140.759 15.3988C141.404 14.8725 141.763 14.2746 141.763 13.557C141.763 13.0307 141.596 12.5523 141.237 12.1936C140.878 11.8348 140.28 11.476 139.395 11.1889L137.434 10.4714C135.544 9.82554 134.3 9.17971 133.654 8.58172C132.985 7.91198 132.626 7.14656 132.626 6.14194ZM112.51 16.4991C112.51 16.2599 112.27 16.212 111.864 16.212C111.218 16.212 110.692 16.0924 110.261 15.8054C109.855 15.5184 109.615 15.0878 109.496 14.5616L109.376 13.4852V4.6111C109.376 4.01312 109.448 3.60648 109.615 3.43904C109.783 3.27161 110.213 3.08026 110.787 3.03242C110.955 3.03242 111.074 2.98458 111.146 2.91282C111.194 2.86498 111.194 2.79322 111.194 2.67363C111.194 2.50619 110.955 2.50619 110.668 2.50619C110.189 2.50619 103.875 2.50619 103.683 2.45835C103.636 2.41051 103.516 2.45835 103.516 2.69755C103.516 2.81714 103.564 2.93674 103.683 2.98458C103.803 3.03241 104.09 3.10418 104.521 3.15201C105.238 3.27161 105.764 3.43904 106.051 3.67824C106.338 3.91743 106.458 4.39582 106.458 5.04165V13.3895V14.3463C106.458 14.9443 106.338 15.3988 106.171 15.638C106.004 15.8771 105.573 16.1163 104.927 16.2838L104.568 16.523V16.5708C104.592 16.6426 104.664 16.7143 104.712 16.7382H112.199C112.414 16.6904 112.51 16.5947 112.51 16.4991Z" fill="white"/>
<path d="M28.6958 2.45782C28.6958 2.45782 36.4454 2.41053 37.2114 2.57794C39.0292 2.57794 40.512 2.69784 41.6362 3.34357C42.7604 3.98938 43.2866 4.8263 43.2866 5.87872C43.2866 7.12237 42.5696 7.93547 41.2065 8.41388C40.8962 8.53323 40.7287 8.65296 40.728 8.70099C40.6802 8.82059 40.8478 8.89241 41.2065 8.94025C42.2587 9.0599 43.096 9.46643 43.7417 10.0643C44.2201 10.4948 44.5069 11.0215 44.6265 11.6434V13.0311C44.459 14.0594 43.8849 14.8966 42.9761 15.5662C41.8519 16.3316 40.3207 16.7381 38.3833 16.7381H29.2466C29.1748 16.6903 29.1265 16.5945 29.1265 16.4988C29.1265 16.3315 29.2467 16.2596 29.4858 16.2117C29.6538 16.2117 30.4182 16.2116 30.7769 15.8055C30.8965 15.6141 31.064 15.2072 31.064 14.5613C31.064 13.5328 31.0644 11.9299 31.0405 10.2557C31.0405 8.43804 31.0161 6.57262 31.0161 5.28107C31.0161 4.92228 30.9447 4.39572 30.6577 4.03693C30.2511 3.36718 29.1742 3.07989 28.8872 3.07989L28.2896 3.03204C28.1221 3.03203 28.0024 2.91236 28.0024 2.74493C28.0026 2.57771 28.1229 2.45782 28.4097 2.45782H28.6958ZM36.1353 9.44318C35.5373 9.44318 34.6522 9.44336 34.2456 9.92169C33.9589 10.2808 33.9585 11.2132 33.9585 11.9305C33.9346 12.5044 33.9585 13.1741 34.0063 13.9871C34.0063 14.2023 34.0303 14.418 34.0542 14.657C34.102 15.6616 35.1785 15.949 37.02 15.9012C38.8615 15.9012 40.1534 15.5423 40.7993 14.825C41.3255 14.2271 41.6372 13.5332 41.6372 12.6961C41.6372 11.0457 40.7515 10.0412 38.9097 9.68243C37.8336 9.51504 37.4267 9.44318 36.1353 9.44318ZM35.0933 3.2713C34.7316 3.27468 34.4672 3.30159 34.27 3.46271C33.983 3.70185 33.9107 4.29989 33.9106 4.87384V7.45782H33.9351C33.9351 7.8643 34.0543 8.17519 34.2935 8.34259C34.5805 8.51003 35.0114 8.58185 35.5854 8.58185H38.1929C39.6755 8.46214 40.3686 7.74443 40.3687 6.45294C40.3687 5.40062 39.9625 4.56358 39.1255 3.91779C38.2884 3.31985 37.2358 3.27131 35.8726 3.2713H35.0933Z" fill="white"/>
</svg>
