<svg width="109" height="27" viewBox="0 0 109 27" fill="none" xmlns="http://www.w3.org/2000/svg">
<path d="M19.3616 13.4999L13.0171 19.8445H25.7062L19.3616 13.4999Z" fill="white"/>
<path d="M6.67268 13.4999L0.328125 7.15533V19.8444L6.67268 13.4999Z" fill="white"/>
<path d="M19.3616 13.4999L25.7062 7.15533H13.0171L19.3616 13.4999Z" fill="white"/>
<path d="M13.0164 7.15541L19.361 0.810852H6.67188L13.0164 7.15541Z" fill="white"/>
<path d="M19.3616 26.1891L25.7062 19.8445H13.0171L19.3616 26.1891Z" fill="white"/>
<path d="M6.67268 26.1891L13.0172 19.8445H0.328125L6.67268 26.1891Z" fill="white"/>
<path d="M19.3616 0.810852L13.0171 7.15541H25.7062L19.3616 0.810852Z" fill="white"/>
<path d="M0.328125 7.15541H13.0172L6.67268 0.810852L0.328125 7.15541Z" fill="white"/>
<path d="M13.0164 19.8445L6.67188 26.1891H19.361L13.0164 19.8445Z" fill="white"/>
<path d="M6.67268 13.4999L0.328125 19.8445H13.0172L6.67268 13.4999Z" fill="white"/>
<path d="M13.0172 7.15533H0.328125L6.67268 13.4999L13.0172 7.15533Z" fill="white"/>
<path fill-rule="evenodd" clip-rule="evenodd" d="M33.074 15.833C33.4097 15.833 33.6614 15.7323 33.8293 15.5477C33.9971 15.363 34.0811 15.0945 34.0811 14.7252H36.3973L36.4141 14.7756C36.4645 15.598 36.112 16.4037 35.491 16.9408C34.8196 17.5115 33.9636 17.8136 33.074 17.78C31.8319 17.78 30.892 17.394 30.2206 16.6387C29.5324 15.7994 29.1632 14.742 29.2135 13.6678V13.5C29.2135 12.2915 29.5492 11.3012 30.2206 10.5291C30.8752 9.757 31.8319 9.38774 33.0572 9.38774C34.0811 9.38774 34.9035 9.67308 35.5245 10.2438C36.1623 10.848 36.4812 11.7208 36.4309 12.5936L36.4141 12.6439H34.0978C34.1146 12.3083 34.0139 11.9726 33.8461 11.704C33.6782 11.469 33.4265 11.3515 33.074 11.3515C32.5872 11.3515 32.2515 11.553 32.0669 11.939C31.8487 12.4425 31.748 12.9796 31.7816 13.5167V13.6846C31.7816 14.356 31.8823 14.8931 32.0669 15.2791C32.2348 15.6316 32.5872 15.833 33.074 15.833ZM42.0537 11.7544H41.1306C40.8452 11.7544 40.6102 11.8047 40.4256 11.8886C40.241 11.9893 40.1067 12.1236 40.0228 12.3083V17.629H37.4883V9.52202H39.8717L39.9556 10.7137C40.0899 10.3277 40.3249 9.99199 40.6438 9.72343C40.9124 9.48845 41.2648 9.37096 41.6173 9.37096C41.8523 9.37096 42.0873 9.40453 42.3223 9.45488L42.0537 11.7544ZM46.8709 14.0538V14.121H46.9212L48.264 9.52202H50.9663L47.7269 18.8207C47.4751 19.4249 47.1562 19.9117 46.7534 20.2977C46.3506 20.6837 45.7295 20.8852 44.8567 20.8852C44.6385 20.8852 44.4539 20.8684 44.3196 20.8348C44.1853 20.818 43.9671 20.7677 43.665 20.6837L43.9671 18.8878L44.1182 18.9214L44.2525 18.9381C44.6553 18.9381 44.9406 18.871 45.1253 18.7535C45.3099 18.636 45.4442 18.4514 45.5449 18.2164L45.7463 17.6961L42.9265 9.50524H45.6288L46.8709 14.0538ZM56.6227 13.5839C56.6227 12.9125 56.522 12.3418 56.3206 11.939C56.1192 11.5194 55.8002 11.318 55.3638 11.318C55.0785 11.318 54.8267 11.3683 54.6421 11.469C54.4407 11.5697 54.2896 11.7208 54.1722 11.9222V15.3127C54.2896 15.4805 54.4575 15.6148 54.6421 15.6987C54.8771 15.7827 55.1289 15.833 55.3806 15.8162C55.8338 15.8162 56.1359 15.6316 56.3374 15.2623C56.5556 14.7756 56.6563 14.2553 56.6227 13.7182V13.5839ZM59.1572 13.7349C59.1572 14.9602 58.8718 15.9337 58.3347 16.6722C57.7976 17.4108 56.9248 17.8136 56.0184 17.78C55.2967 17.7968 54.6253 17.4779 54.1889 16.9072V20.7341H51.6545V9.52202H54.0211L54.1218 10.4116C54.5246 9.75701 55.2464 9.35417 56.0184 9.37096C57.0255 9.37096 57.7976 9.757 58.3515 10.5291C58.939 11.4355 59.2243 12.5097 59.1739 13.5839V13.7349H59.1572ZM63.2694 7.50787V9.52202H64.6457V11.2676H63.2694V14.9938C63.2694 15.2791 63.3365 15.4805 63.4372 15.6148C63.5547 15.7491 63.7393 15.8162 63.9072 15.8162C64.159 15.8162 64.4107 15.7994 64.6457 15.7491L64.8135 17.629C64.31 17.7464 63.7897 17.8136 63.2526 17.8136C62.4134 17.8136 61.7923 17.5786 61.3559 17.1422C60.9195 16.7058 60.7013 16.0009 60.7013 15.0441V11.3012H59.56V9.55559H60.7013V7.54144H63.2694V7.50787ZM67.818 13.651C67.818 14.3224 67.9187 14.8595 68.1369 15.2455C68.3551 15.6316 68.7076 15.8162 69.2279 15.8162C69.7314 15.8162 70.0839 15.6316 70.2853 15.2288C70.5035 14.8427 70.6042 14.3056 70.6042 13.6342V13.4664C70.621 12.9125 70.5203 12.3754 70.2853 11.8886C70.0671 11.4858 69.7146 11.3012 69.1943 11.3012C68.6908 11.3012 68.3383 11.5026 68.1369 11.9054C67.9187 12.3083 67.818 12.8286 67.818 13.4832V13.651ZM65.2835 13.5C65.2332 12.409 65.6024 11.3515 66.3242 10.5291C67.0123 9.757 67.9858 9.37096 69.2111 9.37096C70.4532 9.37096 71.4099 9.757 72.098 10.5291C72.803 11.3515 73.189 12.409 73.1387 13.5V13.6678C73.1387 14.8931 72.7862 15.8834 72.098 16.6387C71.4099 17.4108 70.4532 17.78 69.2111 17.78C67.969 17.78 66.9955 17.394 66.3074 16.6387C65.6024 15.8162 65.2332 14.742 65.2835 13.6678V13.5ZM76.5963 9.52202L76.697 10.6634C76.9656 10.2605 77.2845 9.94163 77.6873 9.72343C78.0901 9.48845 78.5265 9.37096 78.9797 9.38774C79.7854 9.38774 80.4064 9.63951 80.8428 10.1598C81.296 10.6802 81.5142 11.5026 81.5142 12.6272V17.6457H78.9797V12.6104C78.9797 12.1404 78.879 11.8215 78.6944 11.6201C78.5097 11.4355 78.2244 11.3348 77.8384 11.3348C77.4187 11.318 77.0159 11.5026 76.7474 11.8215V17.6457H74.2297V9.5388H76.5963V9.52202ZM86.432 11.318C86.0628 11.318 85.7942 11.4355 85.6096 11.704C85.425 11.9558 85.3243 12.3083 85.2739 12.7447L85.2907 12.7782H87.4727V12.5936C87.4727 12.174 87.3887 11.8719 87.2209 11.6537C87.0531 11.4187 86.8013 11.318 86.432 11.318ZM86.6167 17.78C85.4082 17.78 84.4682 17.4108 83.7465 16.6554C83.0248 15.9001 82.6387 14.8763 82.6723 13.8356V13.5503C82.6723 12.3083 82.9912 11.3012 83.6458 10.5291C84.3004 9.757 85.2236 9.35417 86.432 9.37096C87.5398 9.37096 88.3958 9.70665 89.0168 10.3612C89.6714 11.0998 90.0071 12.0565 89.9568 13.03V14.356H85.3075L85.2907 14.4063C85.3578 14.8259 85.5089 15.1616 85.811 15.4302C86.0963 15.6987 86.4656 15.833 86.9524 15.833C87.7244 15.8498 88.4965 15.6819 89.2015 15.3295L89.8057 16.8737C89.3861 17.159 88.9161 17.3772 88.4294 17.5282C87.8587 17.6961 87.2545 17.78 86.6167 17.78ZM98.0134 14.2217H98.0637L98.9365 9.52202H101.27L99.3561 17.629H97.2077L95.8817 13.3321H95.8314L94.5054 17.629H92.357L90.4435 9.52202H92.7766L93.6662 14.2553H93.7165L95.0425 9.52202H96.637L98.0134 14.2217ZM106.406 15.3463C106.406 15.1448 106.288 14.977 106.07 14.8091C105.684 14.591 105.264 14.4567 104.828 14.3895C104.056 14.272 103.317 13.9867 102.679 13.5167C102.193 13.1307 101.941 12.5432 101.958 11.9222C101.958 11.2173 102.293 10.5459 102.864 10.1095C103.468 9.62273 104.291 9.37096 105.298 9.37096C106.389 9.37096 107.245 9.60595 107.883 10.0927C108.487 10.5123 108.839 11.2173 108.806 11.9558L108.789 12.0061H106.339C106.339 11.6872 106.255 11.4522 106.087 11.2844C105.919 11.1165 105.667 11.0326 105.315 11.0326C105.046 11.0326 104.828 11.0998 104.643 11.2508C104.475 11.3851 104.375 11.5865 104.375 11.8047C104.391 12.0229 104.492 12.2243 104.677 12.3418C105.063 12.56 105.499 12.6943 105.936 12.7447C106.725 12.8621 107.48 13.1643 108.134 13.6175C108.621 14.0203 108.89 14.6245 108.839 15.2623C108.839 15.9841 108.52 16.5883 107.866 17.0583C107.111 17.5618 106.204 17.8136 105.298 17.7632C104.19 17.7632 103.317 17.4779 102.679 16.924C102.042 16.3701 101.723 15.7323 101.756 15.0441L101.773 14.9938H104.073C104.089 15.3798 104.19 15.6484 104.425 15.8162C104.643 15.9841 104.962 16.068 105.365 16.068C105.701 16.068 105.969 16.0009 106.137 15.8666C106.322 15.7827 106.406 15.5812 106.406 15.3463Z" fill="white"/>
</svg>
