<svg width="80" height="21" viewBox="0 0 80 21" fill="none" xmlns="http://www.w3.org/2000/svg">
<g clip-path="url(#clip0_107_2919)">
<path d="M29.0856 15.5612C28.3981 15.5612 27.7754 15.4516 27.2174 15.2323C26.6694 15.0032 26.1961 14.6644 25.7975 14.216C25.4089 13.7677 25.11 13.2147 24.9008 12.557C24.6915 11.8895 24.5869 11.1173 24.5869 10.2404C24.5869 9.36362 24.6915 8.58643 24.9008 7.90889C25.11 7.22138 25.4089 6.64846 25.7975 6.19012C26.1961 5.72181 26.6694 5.3681 27.2174 5.12896C27.7754 4.88983 28.3981 4.77026 29.0856 4.77026C30.0222 4.77026 30.7994 4.96954 31.4172 5.3681C32.0349 5.76665 32.5281 6.36947 32.8968 7.17654L31.2079 8.07329C31.0585 7.60499 30.8143 7.23134 30.4756 6.95236C30.1368 6.6634 29.6735 6.51893 29.0856 6.51893C28.3483 6.51893 27.7604 6.76802 27.322 7.26622C26.8936 7.76441 26.6793 8.46188 26.6793 9.35863V11.0027C26.6793 11.9094 26.8936 12.6069 27.322 13.0951C27.7604 13.5734 28.3483 13.8125 29.0856 13.8125C29.6735 13.8125 30.1517 13.6531 30.5204 13.3342C30.899 13.0154 31.173 12.6218 31.3424 12.1535L32.9416 13.0951C32.563 13.8723 32.0598 14.4801 31.4321 14.9185C30.8044 15.3469 30.0222 15.5612 29.0856 15.5612Z" fill="black"/>
<path d="M37.3063 15.5613C36.7484 15.5613 36.2452 15.4666 35.7968 15.2773C35.3584 15.088 34.9798 14.814 34.6609 14.4553C34.3521 14.0966 34.1129 13.6682 33.9435 13.17C33.7741 12.6618 33.6895 12.0939 33.6895 11.4661C33.6895 10.8384 33.7741 10.2755 33.9435 9.77727C34.1129 9.27907 34.3521 8.85561 34.6609 8.50687C34.9798 8.14817 35.3584 7.87416 35.7968 7.68485C36.2452 7.49554 36.7484 7.40088 37.3063 7.40088C37.8643 7.40088 38.3675 7.49554 38.8159 7.68485C39.2642 7.87416 39.6429 8.14817 39.9518 8.50687C40.2706 8.85561 40.5147 9.27907 40.6841 9.77727C40.8535 10.2755 40.9382 10.8384 40.9382 11.4661C40.9382 12.0939 40.8535 12.6618 40.6841 13.17C40.5147 13.6682 40.2706 14.0966 39.9518 14.4553C39.6429 14.814 39.2642 15.088 38.8159 15.2773C38.3675 15.4666 37.8643 15.5613 37.3063 15.5613ZM37.3063 14.0219C37.8145 14.0219 38.2131 13.8674 38.502 13.5586C38.791 13.2497 38.9354 12.7963 38.9354 12.1985V10.7487C38.9354 10.1609 38.791 9.7125 38.502 9.40362C38.2131 9.09474 37.8145 8.9403 37.3063 8.9403C36.8081 8.9403 36.4146 9.09474 36.1256 9.40362C35.8367 9.7125 35.6922 10.1609 35.6922 10.7487V12.1985C35.6922 12.7963 35.8367 13.2497 36.1256 13.5586C36.4146 13.8674 36.8081 14.0219 37.3063 14.0219Z" fill="black"/>
<path d="M43.284 6.44465C42.8855 6.44465 42.5965 6.35497 42.4172 6.17562C42.2478 5.99627 42.1631 5.7671 42.1631 5.48812V5.1892C42.1631 4.91021 42.2478 4.68104 42.4172 4.50169C42.5965 4.32234 42.8855 4.23267 43.284 4.23267C43.6726 4.23267 43.9566 4.32234 44.1359 4.50169C44.3153 4.68104 44.405 4.91021 44.405 5.1892V5.48812C44.405 5.7671 44.3153 5.99627 44.1359 6.17562C43.9566 6.35497 43.6726 6.44465 43.284 6.44465ZM42.3275 7.58053H44.2406V15.3823H42.3275V7.58053Z" fill="black"/>
<path d="M46.1533 15.382V7.58023H48.0664V8.88052H48.1411C48.3005 8.46203 48.5496 8.1133 48.8884 7.83431C49.2371 7.54535 49.7154 7.40088 50.3232 7.40088C51.1303 7.40088 51.748 7.66492 52.1765 8.19301C52.6049 8.72109 52.8192 9.47337 52.8192 10.4498V15.382H50.9061V10.6441C50.9061 10.0861 50.8065 9.66766 50.6072 9.38867C50.4079 9.10969 50.0791 8.97019 49.6208 8.97019C49.4215 8.97019 49.2272 9.00008 49.0379 9.05987C48.8585 9.10969 48.6941 9.1894 48.5447 9.299C48.4052 9.39864 48.2906 9.52817 48.2009 9.68759C48.1112 9.83705 48.0664 10.0164 48.0664 10.2256V15.382H46.1533Z" fill="black"/>
<path d="M57.198 15.5613C56.4507 15.5613 55.823 15.4368 55.3149 15.1877C54.8067 14.9286 54.3583 14.5749 53.9697 14.1265L55.1355 12.9906C55.4245 13.3194 55.7383 13.5785 56.0771 13.7678C56.4258 13.9571 56.8244 14.0518 57.2728 14.0518C57.7311 14.0518 58.0599 13.9721 58.2592 13.8126C58.4684 13.6532 58.573 13.434 58.573 13.155C58.573 12.9259 58.4983 12.7465 58.3489 12.617C58.2094 12.4775 57.9652 12.3828 57.6165 12.333L56.8393 12.2284C55.9924 12.1188 55.3447 11.8796 54.8964 11.511C54.458 11.1324 54.2387 10.5843 54.2387 9.86694C54.2387 9.48831 54.3085 9.14954 54.448 8.85062C54.5875 8.54174 54.7868 8.28268 55.0458 8.07344C55.3049 7.85424 55.6138 7.68983 55.9725 7.58023C56.3411 7.46066 56.7497 7.40088 57.198 7.40088C57.5767 7.40088 57.9104 7.43077 58.1994 7.49055C58.4983 7.54037 58.7673 7.62008 59.0065 7.72969C59.2456 7.82933 59.4648 7.95886 59.6641 8.11828C59.8634 8.26774 60.0577 8.43712 60.247 8.62644L59.126 9.74737C58.8969 9.50824 58.6229 9.30896 58.304 9.14954C57.9852 8.99012 57.6364 8.91041 57.2578 8.91041C56.8393 8.91041 56.5354 8.98514 56.3461 9.1346C56.1668 9.28405 56.0771 9.47835 56.0771 9.71748C56.0771 9.97654 56.1518 10.1758 56.3013 10.3153C56.4607 10.4448 56.7247 10.5395 57.0934 10.5993L57.8855 10.7039C59.5694 10.943 60.4114 11.7103 60.4114 13.0056C60.4114 13.3842 60.3317 13.7329 60.1722 14.0518C60.0228 14.3607 59.8086 14.6297 59.5296 14.8588C59.2506 15.0781 58.9118 15.2524 58.5133 15.382C58.1247 15.5015 57.6863 15.5613 57.198 15.5613Z" fill="black"/>
<path d="M66.4647 14.082H66.39C66.3202 14.2813 66.2256 14.4706 66.106 14.6499C65.9964 14.8193 65.8519 14.9738 65.6726 15.1133C65.5032 15.2528 65.2939 15.3624 65.0448 15.4421C64.8057 15.5218 64.5267 15.5616 64.2079 15.5616C63.4008 15.5616 62.783 15.2976 62.3546 14.7695C61.9261 14.2414 61.7119 13.4892 61.7119 12.5127V7.58057H63.625V12.3184C63.625 12.8564 63.7296 13.2699 63.9388 13.5589C64.1481 13.8379 64.4819 13.9774 64.9402 13.9774C65.1295 13.9774 65.3139 13.9525 65.4932 13.9027C65.6825 13.8528 65.8469 13.7781 65.9864 13.6785C66.1259 13.5689 66.2405 13.4393 66.3302 13.2899C66.4199 13.1305 66.4647 12.9461 66.4647 12.7369V7.58057H68.3778V15.3823H66.4647V14.082Z" fill="black"/>
<path d="M72.2041 15.3827C71.5465 15.3827 71.0632 15.2183 70.7543 14.8895C70.4455 14.5606 70.291 14.0973 70.291 13.4995V4.32275H72.2041V13.8582H73.2353V15.3827H72.2041Z" fill="black"/>
<path d="M76.7476 15.3828C76.09 15.3828 75.5868 15.2134 75.2381 14.8747C74.8993 14.5259 74.7299 14.0327 74.7299 13.395V9.10558H73.5791V7.5811H74.1769C74.4659 7.5811 74.6602 7.51634 74.7598 7.38681C74.8694 7.24731 74.9242 7.04305 74.9242 6.77403V5.44385H76.643V7.5811H78.2422V9.10558H76.643V13.8584H78.1226V15.3828H76.7476Z" fill="black"/>
<path d="M7.46563 -0.221436H21.0809V13.3939C21.0809 15.1382 20.388 16.8111 19.1546 18.0445C17.9212 19.2779 16.2483 19.9708 14.504 19.9708H0.888672V6.35552C0.888672 4.61121 1.5816 2.93833 2.81502 1.70491C4.04844 0.471492 5.72131 -0.221436 7.46563 -0.221436Z" fill="url(#paint0_linear_107_2919)"/>
<path d="M16.8427 7.72428L15.4928 8.34285L14.5451 8.7772L14.5028 8.79622L13.1998 9.38479C13.1998 9.37972 13.1976 9.37465 13.1959 9.36958C13.119 9.04895 12.9707 8.74982 12.762 8.49454L12.6416 8.23131L13.9417 7.63555L14.9034 7.19486L16.2651 6.5708C16.3406 6.68854 16.411 6.80896 16.4764 6.93206L16.8322 7.70823L16.8427 7.72428Z" fill="white"/>
<path d="M17.0626 11.2914C16.9625 11.7171 16.8173 12.131 16.6295 12.526L12.4072 11.8052L12.4469 11.5723C12.7549 11.3222 12.9887 10.9925 13.123 10.6191L17.0626 11.2914Z" fill="white"/>
<path d="M9.45078 11.9623L7.74506 13.1703L6.52566 14.034C6.23452 13.7159 5.9775 13.3683 5.75879 12.9967L6.97185 12.1373L7.82407 11.5335L8.70545 10.9094L9.45078 11.9623Z" fill="white"/>
<path d="M9.61379 6.65644L9.08648 7.83359L8.31412 7.48754L7.33598 7.04939L5.95898 6.43208C6.20996 6.05986 6.50099 5.71627 6.82684 5.40747L8.32933 6.08055L9.47816 6.59602L9.61379 6.65644Z" fill="white"/>
<path d="M15.5997 11.0415C15.3935 11.8423 14.9788 12.5742 14.3978 13.1627C13.8168 13.7512 13.0903 14.1753 12.2921 14.3917C11.494 14.6082 10.6528 14.6094 9.85407 14.3951C9.05535 14.1808 8.32766 13.7587 7.74506 13.1719C7.44109 12.8648 7.1809 12.5173 6.97185 12.1392L5.75879 12.9986C6.38135 14.0596 7.30749 14.9097 8.41777 15.4393C9.52804 15.969 10.7715 16.1538 11.9879 15.9701C13.2042 15.7864 14.3376 15.2424 15.2419 14.4085C16.1461 13.5745 16.7798 12.4887 17.0612 11.2912L15.5997 11.0415Z" fill="white"/>
<path d="M8.32874 6.08125C8.92061 5.65468 9.60396 5.37229 10.3243 5.25659C11.0446 5.1409 11.782 5.19509 12.4777 5.41487C13.1734 5.63464 13.8081 6.01391 14.3313 6.52243C14.8544 7.03096 15.2515 7.65467 15.4909 8.34385L16.8409 7.72528C16.8383 7.71894 16.8362 7.7126 16.8337 7.70669L16.4779 6.93052C16.4111 6.8077 16.3407 6.68729 16.2666 6.56926C15.7173 5.70691 14.9621 4.99478 14.069 4.49704C13.1759 3.99931 12.173 3.73161 11.1506 3.71807C10.1283 3.70453 9.11864 3.94558 8.21267 4.41949C7.3067 4.8934 6.53288 5.58528 5.96094 6.43279L7.33793 7.05009C7.61829 6.67976 7.95222 6.35323 8.32874 6.08125Z" fill="white"/>
<path d="M6.47488 8.98079C6.52652 8.71534 6.60087 8.45481 6.69713 8.20209L5.34506 7.59619C4.81289 8.93684 4.76656 10.4214 5.21408 11.7927L6.49686 10.8842C6.35891 10.258 6.35144 9.61006 6.47488 8.98079Z" fill="white"/>
<path d="M15.424 8.16284L14.4932 8.63057L14.4526 8.65128L13.1758 9.29224" fill="white"/>
<path d="M8.64406 10.9426L7.81972 11.5265C7.61105 11.118 7.482 10.6735 7.43945 10.2167L7.89916 9.89136L8.64406 10.9426Z" fill="white"/>
<path d="M9.26448 7.93826L8.73717 9.1154L7.64453 8.62443C7.79313 8.21451 8.01473 7.83488 8.29859 7.50391L9.26448 7.93826Z" fill="white"/>
<path d="M14.5747 10.8663C14.3757 11.5707 13.969 12.1989 13.4077 12.6689C12.8465 13.1389 12.1566 13.4289 11.4281 13.5011C10.6997 13.5734 9.96631 13.4245 9.32368 13.0739C8.68104 12.7232 8.15892 12.1872 7.82538 11.5355C7.82342 11.5328 7.82185 11.5298 7.82073 11.5267C7.49405 10.8842 7.36516 10.1594 7.45037 9.4437C7.53558 8.72804 7.83106 8.05371 8.29945 7.50595L8.31508 7.4882C8.73979 6.99876 9.28727 6.63138 9.90117 6.42388C10.5151 6.21638 11.1732 6.17627 11.8077 6.30767C12.4423 6.43908 13.0303 6.73725 13.5113 7.17148C13.9923 7.60571 14.3489 8.16031 14.5443 8.77816L14.5021 8.79675L13.199 9.3849C13.199 9.37983 13.1969 9.37476 13.1952 9.36969C13.0737 8.85863 12.7724 8.40836 12.3463 8.10118C11.9202 7.79399 11.3977 7.6504 10.8745 7.69666C10.3512 7.74291 9.8621 7.97593 9.49649 8.3531C9.13088 8.73028 8.91321 9.22643 8.88327 9.75087C8.85333 10.2753 9.01311 10.793 9.33342 11.2093C9.65372 11.6257 10.1132 11.9129 10.6277 12.0184C11.1423 12.1239 11.6777 12.0407 12.136 11.784C12.5943 11.5273 12.9449 11.1143 13.1238 10.6203L14.5747 10.8663Z" fill="white"/>
</g>
<defs>
<linearGradient id="paint0_linear_107_2919" x1="1.21148" y1="0.28221" x2="30.7677" y2="29.2912" gradientUnits="userSpaceOnUse">
<stop stop-color="#3B916F"/>
<stop offset="1" stop-color="#096AA5"/>
</linearGradient>
<clipPath id="clip0_107_2919">
<rect width="78.2797" height="20.1923" fill="white" transform="translate(0.888672)"/>
</clipPath>
</defs>
</svg>
