<svg width="30" height="30" viewBox="0 0 30 30" fill="none" xmlns="http://www.w3.org/2000/svg">
<path d="M15 30C23.2843 30 30 23.2843 30 15C30 6.71573 23.2843 0 15 0C6.71573 0 0 6.71573 0 15C0 23.2843 6.71573 30 15 30Z" fill="#2775CA"/>
<path d="M12.1882 25.4294C12.1882 25.7824 11.9118 25.9824 11.5706 25.8765C7.03531 24.4294 3.74707 20.1765 3.74707 15.1588C3.74707 10.1412 7.03531 5.88824 11.5706 4.44118C11.9118 4.3353 12.1882 4.5353 12.1882 4.88824V5.75882C12.1882 5.99412 12.0059 6.27059 11.7824 6.34706C8.19413 7.66471 5.62354 11.1118 5.62354 15.1529C5.62354 19.1941 8.19413 22.6412 11.7824 23.9588C12.0059 24.0412 12.1882 24.3118 12.1882 24.5471V25.4294Z" fill="white"/>
<path d="M15.9353 22.1882C15.9353 22.447 15.7235 22.6588 15.4647 22.6588H14.5294C14.2706 22.6588 14.0588 22.447 14.0588 22.1882V20.7059C12.0118 20.4294 11.0118 19.2823 10.7412 17.7235C10.6941 17.4588 10.9059 17.2176 11.1765 17.2176H12.247C12.4706 17.2176 12.6588 17.3765 12.7059 17.6C12.9059 18.5294 13.4412 19.2412 15.0823 19.2412C16.2941 19.2412 17.1529 18.5647 17.1529 17.5529C17.1529 16.5412 16.647 16.1588 14.8706 15.8647C12.247 15.5118 11.0059 14.7176 11.0059 12.6588C11.0059 11.0706 12.2059 9.83528 14.0647 9.57058V8.11764C14.0647 7.85881 14.2765 7.64705 14.5353 7.64705H15.4706C15.7294 7.64705 15.9412 7.85881 15.9412 8.11764V9.61175C17.4529 9.88234 18.4118 10.7412 18.7235 12.1647C18.7823 12.4353 18.5706 12.6882 18.2941 12.6882H17.3059C17.0941 12.6882 16.9176 12.547 16.8529 12.3412C16.5882 11.4353 15.9412 11.047 14.8176 11.047C13.5765 11.047 12.9353 11.647 12.9353 12.4882C12.9353 13.3765 13.3 13.8235 15.2059 14.1C17.7823 14.4529 19.1118 15.1882 19.1118 17.3823C19.1118 19.047 17.8765 20.3941 15.9412 20.7059V22.1882H15.9353Z" fill="white"/>
<path d="M18.4294 25.8765C18.0882 25.9824 17.8117 25.7824 17.8117 25.4294V24.5588C17.8117 24.3 17.9705 24.0588 18.2176 23.9706C21.8058 22.653 24.3764 19.2059 24.3764 15.1647C24.3764 11.1235 21.8058 7.67648 18.2176 6.35883C17.9941 6.27648 17.8117 6.00589 17.8117 5.7706V4.90001C17.8117 4.54707 18.0882 4.34119 18.4294 4.45295C22.9647 5.90001 26.2529 10.1529 26.2529 15.1706C26.247 20.1765 22.9647 24.4235 18.4294 25.8765Z" fill="white"/>
</svg>
