<svg width="36" height="36" viewBox="0 0 36 36" fill="none" xmlns="http://www.w3.org/2000/svg">
<mask id="mask0_2025_6937" style="mask-type:luminance" maskUnits="userSpaceOnUse" x="0" y="0" width="36" height="36">
<path d="M36 0H0V36H36V0Z" fill="white"/>
</mask>
<g mask="url(#mask0_2025_6937)">
<path d="M17.9922 36.0078C27.9333 36.0078 35.9922 27.9489 35.9922 18.0078C35.9922 8.06669 27.9333 0.0078125 17.9922 0.0078125C8.05106 0.0078125 -0.0078125 8.06669 -0.0078125 18.0078C-0.0078125 27.9489 8.05106 36.0078 17.9922 36.0078Z" fill="#00A478"/>
<path d="M35.0921 18.0077C35.0921 27.4518 27.4362 35.1077 17.9921 35.1077C8.54802 35.1077 0.89209 27.4518 0.89209 18.0077C0.89209 8.56365 8.54802 0.907715 17.9921 0.907715C27.4362 0.907715 35.0921 8.56365 35.0921 18.0077Z" stroke="white" stroke-opacity="0.3" stroke-width="1.8"/>
</g>
<path fill-rule="evenodd" clip-rule="evenodd" d="M19.7585 18.6764V18.6743C19.6472 18.6824 19.0736 18.7168 17.7937 18.7168C16.7718 18.7168 16.0525 18.6865 15.7996 18.6743V18.6774C11.8659 18.5044 8.9298 17.8194 8.9298 16.9999C8.9298 16.1814 11.8659 15.4964 15.7996 15.3204V17.9955C16.0565 18.0137 16.7931 18.0572 17.8109 18.0572C19.0321 18.0572 19.6442 18.0066 19.7585 17.9965V15.3224C23.6841 15.4975 26.6131 16.1824 26.6131 16.9999C26.6131 17.8194 23.6841 18.5023 19.7585 18.6764ZM19.7585 15.0442V12.6504H25.2361V9H10.322V12.6504H15.7996V15.0432C11.3479 15.2476 8 16.1298 8 17.1861C8 18.2423 11.3479 19.1236 15.7996 19.3289V27H19.7585V19.3269C24.2031 19.1225 27.5429 18.2413 27.5429 17.1861C27.5429 16.1308 24.2031 15.2496 19.7585 15.0442Z" fill="white"/>
</svg>
