<svg width="2167" height="349" viewBox="0 0 2167 349" fill="none" xmlns="http://www.w3.org/2000/svg">
<g clip-path="url(#clip0_87_236)">
<path d="M164.207 -0.202884C164.966 -0.209943 165.725 -0.217003 166.506 -0.224277C198.099 -0.451548 198.099 -0.451548 212 3.00024C212.812 3.1936 213.624 3.38696 214.46 3.58618C259.566 14.5867 299.436 42.6606 323.817 82.3323C324.549 83.5525 325.276 84.7752 326 86.0002C326.374 86.6324 326.748 87.2645 327.133 87.9158C340.374 110.712 349.039 137.706 349.203 164.207C349.21 164.966 349.217 165.725 349.225 166.506C349.452 198.099 349.452 198.099 346 212C345.807 212.812 345.614 213.624 345.414 214.46C334.414 259.566 306.34 299.436 266.668 323.817C265.448 324.549 264.225 325.276 263 326C262.368 326.374 261.736 326.748 261.085 327.133C238.289 340.374 211.295 349.039 184.793 349.203C184.035 349.21 183.276 349.217 182.494 349.225C150.901 349.452 150.901 349.452 137 346C136.188 345.807 135.377 345.614 134.54 345.414C89.4346 334.414 49.5649 306.34 25.1838 266.668C24.4518 265.448 23.7241 264.225 23.0002 263C22.6266 262.368 22.2529 261.736 21.8679 261.085C8.62628 238.289 -0.0380932 211.295 -0.202884 184.793C-0.209943 184.035 -0.217003 183.276 -0.224277 182.494C-0.451548 150.901 -0.451548 150.901 3.00024 137C3.1936 136.188 3.38696 135.377 3.58618 134.54C14.5867 89.4346 42.6606 49.5649 82.3323 25.1838C83.5525 24.4518 84.7752 23.7241 86.0002 23.0002C86.6324 22.6266 87.2645 22.2529 87.9158 21.8679C110.712 8.62628 137.706 -0.0380932 164.207 -0.202884Z" fill="#1570EF"/>
<path d="M411 91C421.23 91 431.46 91 442 91C443.336 95.0067 444.409 98.5408 445.228 102.619C445.449 103.713 445.671 104.806 445.899 105.933C446.135 107.118 446.371 108.302 446.614 109.523C446.868 110.782 447.122 112.041 447.383 113.338C448.076 116.777 448.765 120.217 449.453 123.657C450.174 127.257 450.899 130.856 451.623 134.456C452.993 141.265 454.359 148.076 455.724 154.886C457.278 162.643 458.837 170.398 460.396 178.154C463.602 194.101 466.803 210.05 470 226C472.125 217.827 473.944 209.637 475.544 201.347C475.778 200.145 476.013 198.944 476.254 197.706C476.889 194.453 477.52 191.2 478.15 187.946C478.813 184.53 479.479 181.115 480.144 177.7C481.401 171.252 482.653 164.803 483.905 158.354C485.332 151.004 486.762 143.654 488.193 136.305C491.133 121.204 494.067 106.102 497 91C509.54 91 522.08 91 535 91C538.556 107.925 541.978 124.871 545.301 141.844C545.787 144.321 546.273 146.797 546.759 149.274C548.021 155.705 549.282 162.136 550.542 168.567C551.835 175.165 553.129 181.762 554.424 188.359C556.951 201.239 559.476 214.12 562 227C562.262 225.709 562.525 224.418 562.795 223.088C565.293 210.794 567.793 198.5 570.294 186.206C571.58 179.889 572.864 173.572 574.148 167.255C584.617 115.729 584.617 115.729 590 91C600.23 91 610.46 91 621 91C619.641 99.1517 618.179 107.187 616.421 115.25C616.045 116.992 616.045 116.992 615.661 118.77C614.979 121.927 614.294 125.083 613.609 128.239C612.88 131.594 612.155 134.95 611.43 138.305C610.05 144.686 608.667 151.065 607.283 157.445C605.587 165.263 603.895 173.082 602.203 180.9C600.423 189.124 598.643 197.347 596.859 205.569C594.354 217.117 591.853 228.664 589.384 240.219C589.003 241.998 588.622 243.777 588.241 245.555C587.565 248.709 586.894 251.864 586.226 255.019C585.937 256.366 585.649 257.713 585.36 259.061C585.118 260.198 584.877 261.335 584.628 262.507C584 265 584 265 583 266C580.043 266.089 577.109 266.115 574.152 266.098C572.823 266.096 572.823 266.096 571.466 266.093C568.623 266.088 565.78 266.075 562.938 266.062C561.015 266.057 559.092 266.053 557.17 266.049C552.447 266.038 547.723 266.021 543 266C540.938 257.373 539.134 248.735 537.564 240.005C537.341 238.779 537.118 237.553 536.888 236.29C536.408 233.654 535.93 231.019 535.454 228.383C534.701 224.213 533.943 220.044 533.184 215.876C531.714 207.793 530.248 199.71 528.783 191.627C526.911 181.301 525.038 170.976 523.16 160.652C522.406 156.507 521.655 152.363 520.905 148.218C520.331 145.045 519.754 141.873 519.177 138.701C518.97 137.554 518.764 136.407 518.551 135.225C518.36 134.179 518.17 133.134 517.973 132.057C517.808 131.147 517.644 130.238 517.474 129.301C517.017 126.855 517.017 126.855 516 124C515.793 125.054 515.793 125.054 515.581 126.128C512.219 143.213 508.855 160.297 505.491 177.381C503.864 185.642 502.237 193.904 500.611 202.166C499.194 209.366 497.776 216.566 496.358 223.766C495.607 227.579 494.856 231.392 494.106 235.205C493.4 238.794 492.693 242.382 491.986 245.971C491.603 247.916 491.22 249.862 490.838 251.808C490.495 253.545 490.495 253.545 490.145 255.318C489.947 256.325 489.749 257.331 489.545 258.368C489.085 260.591 488.55 262.798 488 265C475.13 265 462.26 265 449 265C446.444 254.775 443.967 244.59 441.748 234.295C441.447 232.908 441.146 231.521 440.844 230.134C440.038 226.422 439.236 222.709 438.433 218.996C437.586 215.077 436.737 211.16 435.887 207.242C434.463 200.668 433.04 194.095 431.618 187.521C429.984 179.96 428.346 172.399 426.707 164.839C424.949 156.731 423.193 148.622 421.438 140.513C420.938 138.202 420.437 135.891 419.936 133.58C419.144 129.927 418.354 126.273 417.565 122.619C417.143 120.667 416.719 118.715 416.296 116.764C414.445 108.189 412.721 99.6037 411 91Z" fill="white"/>
<path d="M1539.07 132.883C1549.57 132.554 1559.78 134.909 1568.04 141.672C1571.61 145.111 1574.42 148.777 1577 153C1577.78 151.99 1578.57 150.979 1579.38 149.938C1588.89 138.906 1602.11 133.951 1616.34 132.813C1627.49 132.499 1638.35 135.494 1646.75 143.063C1659.89 157.474 1659.44 177.143 1659.29 195.371C1659.29 197.39 1659.28 199.409 1659.28 201.428C1659.27 206.69 1659.24 211.952 1659.21 217.214C1659.18 222.605 1659.16 227.995 1659.15 233.385C1659.11 243.924 1659.06 254.462 1659 265C1648.77 265 1638.54 265 1628 265C1627.98 260.853 1627.98 260.853 1627.96 256.622C1627.91 247.462 1627.84 238.301 1627.76 229.141C1627.72 223.59 1627.68 218.04 1627.65 212.489C1627.63 207.126 1627.59 201.764 1627.54 196.402C1627.52 194.362 1627.51 192.321 1627.5 190.281C1627.49 187.411 1627.46 184.542 1627.43 181.673C1627.43 180.839 1627.44 180.005 1627.44 179.146C1627.32 171.825 1626.21 164.713 1621.5 158.938C1616.52 155.08 1611.04 155.438 1605 156C1596.79 158.156 1588.93 164.075 1583 170C1582.78 173.012 1582.69 175.934 1582.68 178.948C1582.67 179.875 1582.66 180.802 1582.65 181.757C1582.62 184.83 1582.6 187.903 1582.59 190.977C1582.57 193.104 1582.55 195.231 1582.53 197.358C1582.48 202.964 1582.44 208.57 1582.4 214.176C1582.36 219.893 1582.31 225.611 1582.26 231.328C1582.16 242.552 1582.08 253.776 1582 265C1571.77 265 1561.54 265 1551 265C1550.99 262.17 1550.97 259.339 1550.96 256.422C1550.91 247.05 1550.84 237.679 1550.76 228.307C1550.72 222.627 1550.68 216.948 1550.65 211.268C1550.63 205.782 1550.59 200.297 1550.54 194.811C1550.52 192.723 1550.51 190.634 1550.5 188.545C1550.49 185.611 1550.46 182.677 1550.43 179.743C1550.43 178.887 1550.44 178.031 1550.44 177.149C1550.33 170.317 1549.48 163.543 1544.56 158.5C1539.38 155.467 1534.38 155.222 1528.49 156.578C1519.8 159.306 1513.38 164.624 1507 171C1506.78 173.981 1506.69 176.872 1506.68 179.856C1506.67 180.773 1506.66 181.69 1506.65 182.635C1506.62 185.676 1506.6 188.717 1506.59 191.758C1506.57 193.863 1506.55 195.967 1506.53 198.072C1506.48 203.619 1506.44 209.166 1506.4 214.712C1506.36 220.37 1506.31 226.027 1506.26 231.684C1506.16 242.789 1506.08 253.895 1506 265C1495.77 265 1485.54 265 1475 265C1475 222.43 1475 179.86 1475 136C1482.26 136 1489.52 136 1497 136C1498.79 140.779 1500.41 145.135 1501.69 150C1501.94 150.949 1502.19 151.898 1502.45 152.875C1502.63 153.576 1502.81 154.278 1503 155C1503.41 154.432 1503.82 153.863 1504.25 153.278C1512.23 142.604 1520.4 136.114 1533.69 133.188C1536.38 133.035 1536.38 133.035 1539.07 132.883Z" fill="white"/>
<path d="M804 81C804.33 102.78 804.66 124.56 805 147C807.97 144.69 810.94 142.38 814 140C827.087 132.385 840.103 131.651 854.574 135.039C865.706 138.162 873.79 144.407 880.043 154.199C886.074 165.476 889.589 178.191 890 191C890.02 191.636 890.041 192.273 890.062 192.928C890.678 215.399 888.274 238.88 872.199 255.996C861.772 265.497 848.955 268.37 835.188 268.215C821.116 267.266 811.186 261.437 802 251C801.505 250.01 801.505 250.01 801 249C800.567 250.155 800.134 251.31 799.688 252.5C798.125 256.667 796.562 260.833 795 265C787.74 265 780.48 265 773 265C773 205.6 773 146.2 773 85C799 81 799 81 804 81ZM804 168C803.658 170.83 803.658 170.83 803.662 174.19C803.639 175.492 803.617 176.794 803.594 178.135C803.581 179.564 803.569 180.993 803.559 182.422C803.552 183.141 803.545 183.86 803.538 184.6C803.502 188.407 803.478 192.213 803.465 196.02C803.448 199.945 803.39 203.87 803.321 207.795C803.277 210.818 803.263 213.841 803.258 216.865C803.25 218.311 803.23 219.758 803.199 221.204C802.783 229.086 802.783 229.086 805.513 236.2C807.279 237.746 808.935 238.896 811 240C812.352 240.814 812.352 240.814 813.73 241.645C814.541 242.03 815.352 242.415 816.188 242.812C817.006 243.211 817.825 243.609 818.668 244.02C825.891 247.056 834.909 247.17 842.516 245.422C848.207 242.957 852.034 238.33 855 233C862.355 213.297 863.659 186.161 855.312 166.5C852.41 161.359 847.601 156.867 842 155C827.654 153.849 814.423 157.577 804 168Z" fill="white"/>
<path d="M1052 91C1147.51 91 1147.51 91 1166.33 109.137C1177.1 121.14 1179.89 136.065 1179.18 151.808C1178.04 165.69 1172.64 176.93 1162 186C1141.44 202.241 1107.37 200 1084 200C1084 221.45 1084 242.9 1084 265C1073.44 265 1062.88 265 1052 265C1052 207.58 1052 150.16 1052 91ZM1084 113C1084 134.78 1084 156.56 1084 179C1112.37 180.006 1112.37 180.006 1138.5 169.812C1144.95 162.553 1147.35 154.374 1147.21 144.816C1146.46 134.751 1143.62 127.073 1136.1 120.285C1121.77 109.388 1100.12 113 1084 113Z" fill="white"/>
<path d="M1294.37 143.25C1305.43 153.869 1308.76 167.588 1309.17 182.521C1309.26 187.781 1309.23 193.04 1309.2 198.301C1309.19 200.233 1309.19 202.165 1309.19 204.097C1309.18 209.139 1309.16 214.181 1309.14 219.223C1309.12 224.385 1309.11 229.547 1309.1 234.709C1309.08 244.806 1309.04 254.903 1309 265C1301.41 265 1293.82 265 1286 265C1284.33 260 1282.67 255 1281 250C1280.6 250.508 1280.2 251.016 1279.78 251.539C1271.7 261.327 1262.51 266.24 1250 268C1236.89 268.844 1224.06 267.523 1213 260C1211.67 259.134 1211.67 259.134 1210.31 258.25C1202.89 251.029 1199.09 242.098 1198.57 231.781C1198.54 230.021 1198.54 228.261 1198.56 226.5C1198.57 225.579 1198.58 224.658 1198.59 223.708C1198.75 217.13 1199.44 211.669 1203 206C1203.42 205.29 1203.85 204.58 1204.28 203.848C1207.9 198.448 1212.39 195.156 1218 192C1218.66 191.62 1219.33 191.24 1220.02 190.848C1238.21 181.649 1259.81 184.462 1279 188C1278.77 184.997 1278.52 182 1278.25 179C1278.19 178.161 1278.13 177.322 1278.06 176.457C1277.4 169.367 1275.69 163.561 1270.44 158.563C1262.69 153.599 1249.53 155.013 1240.8 156.684C1233.26 158.583 1226.51 161.382 1219.61 164.926C1217 166 1217 166 1214 165C1212.63 162.381 1211.44 159.843 1210.31 157.125C1209.99 156.392 1209.67 155.658 1209.34 154.903C1207 149.42 1207 149.42 1207 146C1231.6 132.868 1270.4 123.72 1294.37 143.25ZM1232.49 211.113C1228.62 216.011 1228.45 221.99 1229 228C1229.91 234.018 1231.67 239.228 1236.51 243.258C1243.62 247.668 1252.93 247.115 1260.84 245.375C1267.82 242.905 1273.79 238.208 1279 233C1279.09 230.855 1279.11 228.706 1279.1 226.559C1279.09 225.254 1279.09 223.948 1279.09 222.604C1279.08 221.215 1279.07 219.826 1279.06 218.438C1279.06 217.045 1279.05 215.653 1279.05 214.26C1279.04 210.84 1279.02 207.42 1279 204C1254.08 200.87 1254.08 200.87 1232.49 211.113Z" fill="white"/>
<path d="M1925 141.379C1934.74 149.086 1938.36 160.766 1939.8 172.772C1940.14 176.571 1940.13 180.357 1940.11 184.17C1940.11 185.049 1940.11 185.928 1940.11 186.834C1940.11 189.712 1940.11 192.59 1940.1 195.469C1940.1 197.475 1940.09 199.482 1940.09 201.488C1940.09 206.749 1940.08 212.009 1940.07 217.27C1940.06 222.646 1940.05 228.022 1940.05 233.399C1940.04 243.932 1940.02 254.466 1940 265C1929.77 265 1919.54 265 1909 265C1908.99 262.271 1908.98 259.541 1908.97 256.729C1908.94 247.681 1908.88 238.632 1908.82 229.584C1908.78 224.102 1908.74 218.619 1908.73 213.137C1908.71 207.839 1908.68 202.542 1908.63 197.245C1908.62 195.23 1908.61 193.216 1908.61 191.201C1909.16 174.763 1909.16 174.763 1902.52 160.282C1897.32 155.651 1892.2 155.597 1885.55 155.656C1875.86 156.595 1865.87 162.132 1859 169C1858.78 172.042 1858.69 174.995 1858.68 178.04C1858.67 178.976 1858.66 179.913 1858.65 180.878C1858.62 183.984 1858.6 187.09 1858.59 190.195C1858.57 192.345 1858.55 194.494 1858.53 196.644C1858.48 202.309 1858.44 207.974 1858.4 213.639C1858.36 219.417 1858.31 225.195 1858.26 230.973C1858.16 242.315 1858.08 253.658 1858 265C1847.77 265 1837.54 265 1827 265C1827 222.43 1827 179.86 1827 136C1834.59 136 1842.18 136 1850 136C1851.84 140.292 1853.42 144.041 1854.69 148.438C1854.94 149.303 1855.19 150.168 1855.45 151.059C1855.63 151.699 1855.81 152.34 1856 153C1856.38 152.504 1856.76 152.008 1857.14 151.496C1873.33 131.525 1903.78 126.746 1925 141.379Z" fill="white"/>
<path d="M1330 136C1339.9 136 1349.8 136 1360 136C1364.5 144.999 1364.5 144.999 1365.81 148.667C1366.26 149.91 1366.26 149.91 1366.71 151.178C1367.02 152.054 1367.33 152.93 1367.65 153.832C1367.99 154.77 1368.33 155.709 1368.67 156.675C1369.39 158.682 1370.11 160.689 1370.83 162.697C1372.71 167.966 1374.6 173.229 1376.49 178.492C1376.87 179.547 1377.25 180.603 1377.64 181.69C1381.22 191.63 1384.87 201.539 1388.56 211.438C1388.84 212.192 1389.12 212.947 1389.41 213.724C1390.94 217.817 1392.47 221.909 1394 226C1396.19 222.708 1397.01 219.982 1398.09 216.18C1398.29 215.49 1398.49 214.8 1398.69 214.09C1399.35 211.805 1400 209.518 1400.65 207.23C1401.11 205.631 1401.56 204.033 1402.02 202.434C1403.23 198.214 1404.44 193.992 1405.64 189.77C1406.85 185.523 1408.07 181.278 1409.28 177.033C1411.44 169.502 1413.59 161.969 1415.74 154.435C1417.49 148.289 1419.24 142.145 1421 136C1431.23 136 1441.46 136 1452 136C1451.34 140.586 1450.87 143.886 1449.41 148.066C1449.09 149.01 1448.76 149.955 1448.42 150.927C1448.07 151.939 1447.71 152.95 1447.34 153.992C1446.97 155.07 1446.6 156.148 1446.21 157.259C1444.98 160.8 1443.74 164.337 1442.5 167.875C1441.64 170.345 1440.78 172.816 1439.92 175.286C1438.37 179.728 1436.83 184.168 1435.28 188.607C1432.23 197.326 1429.21 206.053 1426.19 214.782C1423.39 222.883 1420.58 230.98 1417.75 239.074C1416.06 243.931 1414.38 248.793 1412.72 253.661C1404.68 277.211 1396.15 299.842 1373 312.25C1367.27 314.926 1362.08 316.109 1355.74 316.047C1354.85 316.04 1353.96 316.033 1353.04 316.026C1352.03 316.013 1352.03 316.013 1351 316C1349.66 312.877 1348.33 309.752 1347 306.625C1346.62 305.736 1346.24 304.846 1345.84 303.93C1345.48 303.079 1345.12 302.228 1344.75 301.352C1344.41 300.566 1344.08 299.781 1343.73 298.971C1343 297 1343 297 1343 295C1344.56 294.671 1344.56 294.671 1346.15 294.336C1356.29 292.083 1365.89 289.777 1372.31 280.938C1378.07 271.379 1378.07 271.379 1379.73 260.769C1378.81 257.286 1377.52 254.007 1376.15 250.684C1375.86 249.968 1375.57 249.252 1375.27 248.515C1374.31 246.154 1373.34 243.796 1372.38 241.438C1371.7 239.77 1371.02 238.103 1370.34 236.435C1365.2 223.841 1359.97 211.281 1354.73 198.731C1349.15 185.397 1343.66 172.028 1338.19 158.651C1337.86 157.857 1337.54 157.063 1337.2 156.244C1336.6 154.77 1336 153.295 1335.4 151.82C1335.12 151.155 1334.85 150.489 1334.57 149.803C1334.31 149.169 1334.05 148.534 1333.79 147.881C1333.25 146.599 1332.7 145.325 1332.13 144.057C1330.84 141.179 1330 139.193 1330 136Z" fill="white"/>
<path d="M726.199 144.359C738.183 155.278 743.354 169.7 744.132 185.713C744.587 202.238 744.587 202.238 743 207C703.895 207.495 703.895 207.495 664 208C665.941 225.214 665.941 225.214 675.25 239.137C682.226 244.003 688.89 245.37 697.25 245.313C698.521 245.304 698.521 245.304 699.818 245.295C709.883 245.1 716.965 242.329 725.652 237.305C728 236 728 236 731 235C734.465 245.395 734.465 245.395 738 256C717.206 267.147 694.126 271.963 671 265C656.426 259.766 644.983 249.601 638.312 235.688C634.759 227.427 632.469 218.99 632 210C631.947 209.009 631.894 208.017 631.84 206.996C631.286 186.201 635.909 164.451 650.258 148.652C670.062 129.87 704.563 126.621 726.199 144.359ZM670.469 165.816C665.138 173.742 664 180.498 664 190C681.82 190 699.64 190 718 190C718 180.284 717.596 170.695 711 163C705.442 157.508 700.82 154.728 692.812 154.563C683.198 154.747 676.46 158.341 670.469 165.816Z" fill="white"/>
<path d="M1780.37 144.313C1790.88 154.531 1795.11 164.571 1798 179C1798 188.24 1798 197.48 1798 207C1771.6 207 1745.2 207 1718 207C1720.65 225.547 1720.65 225.547 1731 240C1741.19 246.471 1754 246.518 1765.6 244.317C1771.48 242.486 1776.28 239.825 1781.16 236.074C1782.07 235.543 1782.07 235.543 1783 235C1786 236 1786 236 1786.91 237.718C1787.15 238.448 1787.39 239.178 1787.64 239.93C1788.04 241.123 1788.04 241.123 1788.45 242.34C1788.71 243.177 1788.98 244.013 1789.25 244.875C1789.53 245.704 1789.81 246.533 1790.1 247.387C1792.13 253.606 1792.13 253.606 1791 257C1774.89 267.979 1751.83 270.19 1733.19 266.75C1719.19 263.589 1706.25 257.252 1698 245C1685.86 224.717 1683.42 201.2 1689.03 178.18C1693.94 162.114 1702.28 147.766 1717.22 139.317C1736.82 130.028 1763.33 129.511 1780.37 144.313ZM1727.67 162.004C1721 169.989 1718 179.777 1718 190C1735.82 190 1753.64 190 1772 190C1772 177.574 1771.57 168.984 1763 160C1752.48 151.797 1737.42 153.059 1727.67 162.004Z" fill="white"/>
<path d="M999.246 143.66C1005.85 149.667 1009.61 158.097 1010.31 166.906C1010.78 179.396 1008.53 188.384 1000 198C997.527 199.801 997.527 199.801 994.937 201.312C994.08 201.824 993.223 202.336 992.34 202.863C990 204 990 204 987 204C987 204.66 987 205.32 987 206C987.735 206.111 988.469 206.222 989.226 206.336C996.534 208.086 1003.43 214.175 1008 220C1014.72 231.417 1016.06 243.661 1013.2 256.637C1008.87 268.022 1001.06 275.291 990.281 280.436C967.606 290.464 942.856 286.279 920.019 279.125C918 278 918 278 917.284 276.214C916.936 273.505 917.455 271.993 918.433 269.453C918.752 268.609 919.071 267.764 919.4 266.894C919.742 266.022 920.085 265.149 920.437 264.25C920.776 263.362 921.114 262.474 921.463 261.558C922.299 259.368 923.145 257.183 924 255C924.602 255.189 925.205 255.379 925.826 255.574C928.541 256.418 931.269 257.208 934 258C935.186 258.36 936.372 258.719 937.594 259.09C949.292 262.463 963.686 264.881 975.308 259.969C980.297 257.112 982.749 253.427 984.496 248.105C986.04 241.655 985.138 235.838 982 230C976.68 223.674 970.773 220.549 962.875 218.812C961.821 218.566 961.821 218.566 960.746 218.314C958.832 217.868 956.916 217.433 955 217C953.68 216.67 952.36 216.34 951 216C951 208.74 951 201.48 951 194C953.64 193.587 956.28 193.175 959 192.75C968.467 191.133 975.178 189.114 981 181C983.092 176.816 982.429 171.556 982 167C979.858 162.479 977.599 159.957 973 158C959.3 154.164 944.257 156.842 931.215 162.129C929 163 929 163 926 163C924.627 160.092 923.28 157.172 921.937 154.25C921.547 153.425 921.157 152.6 920.756 151.75C920.209 150.551 920.209 150.551 919.652 149.328C919.312 148.595 918.971 147.862 918.621 147.106C917.883 144.603 917.962 143.386 919 141C921.411 139.745 923.577 138.817 926.125 137.937C926.845 137.681 927.565 137.425 928.306 137.162C951.366 129.238 978.864 128.595 999.246 143.66Z" fill="white"/>
<path d="M2162 145C2160.63 151.958 2158.55 158.386 2156 165C2154.82 164.608 2153.65 164.216 2152.44 163.813C2151.63 163.543 2150.82 163.274 2149.98 162.996C2147.73 162.244 2145.48 161.485 2143.24 160.723C2141.91 160.274 2140.58 159.824 2139.25 159.375C2138.61 159.157 2137.98 158.939 2137.32 158.714C2127.65 155.459 2115.13 153.856 2105.19 157.188C2100.68 159.749 2098.64 162.001 2097.06 166.938C2096.98 170.808 2098.01 172.7 2100 176C2106.72 181.127 2116.02 183.543 2123.88 186.438C2156.09 198.344 2156.09 198.344 2164.19 212.938C2167.72 221.986 2167.7 234.375 2164.56 243.563C2159.54 253.661 2150.84 261.021 2140.39 264.992C2116.8 272.499 2091.48 267.102 2070 256C2070.73 251.312 2072.37 247.091 2074.06 242.688C2074.49 241.577 2074.49 241.577 2074.92 240.444C2075.61 238.628 2076.3 236.814 2077 235C2077.65 235.268 2078.31 235.536 2078.98 235.813C2082.73 237.288 2086.52 238.651 2090.31 240C2091.03 240.261 2091.76 240.521 2092.5 240.789C2100.41 243.6 2107.57 245.361 2116 245.375C2117.13 245.412 2117.13 245.412 2118.29 245.449C2123.98 245.479 2128.23 244.128 2133 241C2136.64 237.127 2137.12 233.455 2137.43 228.231C2136.59 223.858 2134.14 220.81 2130.57 218.27C2129.58 217.789 2128.58 217.308 2127.56 216.813C2126.99 216.534 2126.42 216.256 2125.83 215.969C2117.65 212.155 2109.07 209.188 2100.57 206.171C2088.51 201.779 2078.22 196.789 2072.01 185.149C2067.85 176.192 2067.77 165.729 2070.9 156.449C2075.29 146.663 2083.19 140.982 2092.75 136.75C2115.08 128.443 2141.71 133.539 2162 145Z" fill="white"/>
<path d="M2012 86C2012 102.5 2012 119 2012 136C2023.88 136 2035.76 136 2048 136C2048 140.95 2048 145.9 2048 151C2036.12 151 2024.24 151 2012 151C2012.06 161.962 2012.14 172.924 2012.24 183.885C2012.28 188.975 2012.32 194.066 2012.35 199.156C2012.37 204.071 2012.41 208.986 2012.46 213.9C2012.48 215.773 2012.49 217.646 2012.5 219.518C2012.51 222.147 2012.54 224.774 2012.57 227.403C2012.57 228.172 2012.56 228.942 2012.56 229.735C2012.65 234.847 2013.57 238.473 2016 243C2020.37 245.914 2023.87 245.902 2029 245C2032.86 243.508 2036.47 241.527 2040.09 239.531C2043 238 2043 238 2045 238C2046.34 240.956 2047.67 243.915 2049 246.875C2049.38 247.717 2049.76 248.559 2050.16 249.426C2050.52 250.231 2050.88 251.037 2051.25 251.867C2051.75 252.983 2051.75 252.983 2052.27 254.121C2053 256 2053 256 2053 258C2036.85 266.253 2019.54 271.747 2001.47 266.035C1993.27 262.597 1988.65 256.957 1985.1 248.98C1980.42 236.489 1980.72 222.916 1980.8 209.789C1980.81 208.083 1980.81 206.376 1980.81 204.67C1980.82 200.228 1980.84 195.786 1980.86 191.344C1980.88 186.792 1980.89 182.24 1980.9 177.688C1980.92 168.792 1980.96 159.896 1981 151C1973.74 151 1966.48 151 1959 151C1958.9 140.16 1958.9 140.16 1959 137C1960 136 1960 136 1962.22 135.886C1963.18 135.892 1964.14 135.897 1965.13 135.902C1966.06 135.905 1966.99 135.907 1967.95 135.91C1969.74 135.924 1969.74 135.924 1971.56 135.938C1975.34 135.958 1979.11 135.979 1983 136C1983 121.81 1983 107.62 1983 93C2005.75 86 2005.75 86 2012 86Z" fill="white"/>
<path d="M121 126C154.536 123.003 154.536 123.003 162.93 127.607C167.26 131.791 169.557 136.951 171.837 142.452C173.669 146.466 176.312 149.705 179.063 153.125C180.049 154.414 181.031 155.707 182.008 157.004C182.495 157.65 182.983 158.296 183.485 158.961C187.616 164.521 191.559 170.218 195.521 175.899C196.905 177.939 196.905 177.939 198.264 179.458C202.337 184.433 202.677 188.352 202.488 194.652C202.481 195.552 202.474 196.453 202.467 197.38C202.439 200.233 202.376 203.085 202.313 205.937C202.287 207.881 202.265 209.824 202.244 211.768C202.189 216.512 202.103 221.256 202 226C170.188 228.519 170.188 228.519 162.231 224.655C158.243 221.228 156.071 216.921 153.998 212.154C152.452 208.816 150.279 206.042 148.063 203.125C147.249 201.987 146.439 200.847 145.633 199.703C142.588 195.413 139.515 191.142 136.438 186.875C135.932 186.171 135.426 185.468 134.905 184.743C134.399 184.041 133.893 183.34 133.371 182.617C132.852 181.876 132.333 181.135 131.798 180.371C129.995 177.9 129.995 177.9 127.614 175.504C119.168 166.103 119.927 157.318 120.438 145.25C120.483 143.378 120.524 141.505 120.561 139.633C120.659 135.086 120.814 130.544 121 126Z" fill="white"/>
<path d="M49.9998 126C55.2279 125.676 60.4501 125.442 65.6859 125.286C67.4616 125.221 69.2367 125.132 71.0101 125.019C85.2403 124.134 85.2403 124.134 89.7273 127.168C93.2839 130.606 95.5948 134.714 97.9998 139C99.1165 140.632 100.247 142.255 101.398 143.863C102.393 145.344 103.386 146.827 104.375 148.312C109.39 155.742 114.617 162.965 120.051 170.094C120.505 170.716 120.958 171.339 121.426 171.981C123.012 174.093 123.012 174.093 125.117 176.169C133.142 185.168 131.913 194.836 131.5 206.187C131.46 208.112 131.423 210.038 131.39 211.963C131.303 216.644 131.165 221.321 131 226C125.877 226.248 120.758 226.429 115.631 226.549C113.891 226.599 112.151 226.667 110.411 226.754C96.0023 227.456 96.0023 227.456 91.192 223.958C89.136 221.405 87.5517 218.882 85.9998 216C85.1815 214.851 84.3469 213.713 83.4881 212.594C82.7701 211.573 82.0521 210.552 81.3123 209.5C80.4613 208.296 79.6097 207.093 78.7576 205.89C78.3132 205.262 77.8688 204.634 77.4109 203.986C75.3974 201.152 73.3638 198.333 71.3216 195.519C70.2208 193.99 69.1327 192.453 68.0569 190.907C65.3513 187.052 62.6525 183.553 59.2811 180.258C49.0324 169.573 48.9325 159.035 49.1873 144.875C49.336 138.575 49.6166 132.289 49.9998 126Z" fill="white"/>
<path d="M192 126C225.443 123.169 225.443 123.169 233.93 127.493C238.246 131.373 240.568 136.24 242.841 141.507C244.716 145.54 247.354 148.947 250 152.5C250.983 153.889 251.962 155.281 252.937 156.676C256.788 162.132 260.708 167.537 264.637 172.938C265.148 173.643 265.66 174.348 266.187 175.074C266.635 175.689 267.082 176.303 267.543 176.936C268.024 177.617 268.504 178.298 269 179C269.71 179.874 270.42 180.748 271.151 181.648C273.61 186.107 273.51 189.553 273.39 194.555C273.385 195.456 273.379 196.358 273.373 197.287C273.351 200.15 273.301 203.012 273.25 205.875C273.23 207.823 273.212 209.771 273.195 211.719C273.151 216.48 273.082 221.24 273 226C241.401 228.829 241.401 228.829 233.181 224.524C228.925 220.631 226.581 215.741 224.238 210.54C222.18 206.318 219.33 202.729 216.5 199C215.423 197.517 214.35 196.032 213.281 194.543C211.011 191.399 208.74 188.256 206.469 185.113C205.888 184.31 205.307 183.506 204.709 182.678C203.606 181.152 202.503 179.626 201.4 178.1C200.897 177.403 200.393 176.706 199.875 175.988C199.439 175.386 199.003 174.783 198.555 174.161C198.041 173.448 197.528 172.735 197 172C196.369 171.266 196.369 171.266 195.725 170.518C191.773 165.656 191.317 161.938 191.512 155.785C191.519 154.93 191.526 154.074 191.533 153.192C191.561 150.481 191.624 147.773 191.687 145.063C191.712 143.216 191.735 141.369 191.756 139.522C191.811 135.014 191.897 130.507 192 126Z" fill="white"/>
<path d="M237 126C241.517 125.95 246.033 125.914 250.55 125.89C252.082 125.88 253.614 125.867 255.146 125.849C269.029 125.695 281.949 125.979 292.922 135.703C299.018 142.403 300.647 148.635 300.41 157.586C299.299 166.834 294.938 174.831 288 181C282.499 185.163 282.499 185.163 278.939 184.775C275.529 183.412 273.982 180.046 272.062 177.062C271.083 175.588 270.101 174.116 269.117 172.645C268.606 171.877 268.096 171.11 267.569 170.319C265.029 166.566 262.359 162.91 259.688 159.25C254.843 152.579 250.053 145.871 245.312 139.125C244.712 138.275 244.112 137.424 243.493 136.548C242.655 135.352 242.655 135.352 241.801 134.133C241.307 133.43 240.814 132.728 240.306 132.004C239.038 130.059 237.993 128.097 237 126Z" fill="white"/>
</g>
<defs>
<clipPath id="clip0_87_236">
<rect width="2167" height="349" fill="white"/>
</clipPath>
</defs>
</svg>
