<svg width="29" height="30" viewBox="0 0 29 30" fill="none" xmlns="http://www.w3.org/2000/svg">
<rect x="0.823242" y="0.911583" width="28.1768" height="28.1768" rx="14.0884" fill="#FFA231"/>
<path d="M6.4894 14.1214C6.4894 14.1214 13.7975 11.1313 16.332 10.0785C17.3036 9.6574 20.5986 8.30973 20.5986 8.30973C20.5986 8.30973 22.1193 7.72024 21.9926 9.15198C21.9503 9.74158 21.6123 11.8051 21.2744 14.0371C20.7675 17.1957 20.2183 20.6489 20.2183 20.6489C20.2183 20.6489 20.1339 21.6175 19.4158 21.786C18.6976 21.9545 17.5148 21.1964 17.3036 21.0279C17.1347 20.9015 14.1354 19.0065 13.0372 18.08C12.7414 17.8274 12.4035 17.322 13.0794 16.7324C14.6001 15.3427 16.4166 13.616 17.5148 12.5211C18.0217 12.0157 18.5287 10.8365 16.4166 12.2683C13.4173 14.3319 10.4603 16.2691 10.4603 16.2691C10.4603 16.2691 9.7845 16.6903 8.51721 16.3112C7.24993 15.9322 5.77141 15.4269 5.77141 15.4269C5.77141 15.4269 4.75767 14.7951 6.48962 14.1214H6.4894Z" stroke="black"/>
</svg>
